<svg width="26" height="12" viewBox="0 0 26 12" fill="none" xmlns="http://www.w3.org/2000/svg">
<path d="M25.7021 5.31498C25.7018 5.31469 25.7015 5.31435 25.7012 5.31406L20.3944 0.281803C19.9968 -0.0951806 19.3537 -0.0937777 18.958 0.285093C18.5623 0.663916 18.5638 1.27664 18.9614 1.65367L22.5244 5.03226H1.01562C0.454695 5.03226 0 5.46552 0 6C0 6.53448 0.454695 6.96774 1.01562 6.96774H22.5244L18.9615 10.3463C18.5639 10.7234 18.5624 11.3361 18.9581 11.7149C19.3538 12.0938 19.9969 12.0951 20.3944 11.7182L25.7012 6.68594C25.7015 6.68565 25.7018 6.68531 25.7022 6.68502C26.0999 6.30673 26.0987 5.69202 25.7021 5.31498Z" fill="#323232"/>
</svg>
