<svg xmlns="http://www.w3.org/2000/svg" xmlns:xlink="http://www.w3.org/1999/xlink" viewBox="0 0 493 422"><defs><style>.cls-1,.cls-10{isolation:isolate;}.cls-2{fill:#ebebeb;}.cls-3{fill:#f5f5f5;}.cls-4{fill:#e6e6e6;}.cls-5{fill:#e0e0e0;}.cls-6{fill:#f0f0f0;}.cls-7{fill:#fafafa;}.cls-8{fill:#fff;}.cls-14,.cls-9{fill:#407bff;}.cls-10{opacity:0.2;}.cls-11{fill:#263238;}.cls-12{fill:#898989;}.cls-12,.cls-13{opacity:0.6;}.cls-13{fill:#c4c4c4;}.cls-14,.cls-25{opacity:0.3;}.cls-15,.cls-25{fill:#31286a;}.cls-16,.cls-27{fill:#e7aea4;}.cls-17,.cls-18{fill:#f0f1f1;}.cls-18{opacity:0.46;mix-blend-mode:color-dodge;}.cls-19{fill:#cfd1d2;}.cls-20{opacity:0.19;fill:url(#linear-gradient);}.cls-20,.cls-21,.cls-24,.cls-25,.cls-27,.cls-28,.cls-29,.cls-32{mix-blend-mode:multiply;}.cls-21{fill:#ebb12a;opacity:0.52;}.cls-22{fill:#75a0ea;}.cls-23{fill:url(#linear-gradient-2);}.cls-24{opacity:0.44;fill:url(#linear-gradient-3);}.cls-26{fill:#727f84;}.cls-27{opacity:0.26;}.cls-28,.cls-29{opacity:0.33;}.cls-28{fill:url(#linear-gradient-4);}.cls-29{fill:url(#linear-gradient-5);}.cls-30{fill:#9bf;}.cls-31{fill:#83a8e2;}.cls-32{opacity:0.1;}.cls-33{fill:url(#linear-gradient-6);}.cls-34{fill:url(#linear-gradient-7);}</style><linearGradient id="linear-gradient" x1="983.3" y1="197.28" x2="1000.16" y2="262.07" gradientTransform="matrix(-1, 0, 0, 1, 1369.5, 0)" gradientUnits="userSpaceOnUse"><stop offset="0" stop-color="#8fcef8"/><stop offset="0.23" stop-color="#8ecbf7"/><stop offset="0.39" stop-color="#8bc2f2"/><stop offset="0.53" stop-color="#85b2ea"/><stop offset="0.66" stop-color="#7d9cdf"/><stop offset="0.78" stop-color="#7380d0"/><stop offset="0.9" stop-color="#665ebf"/><stop offset="0.99" stop-color="#5939ac"/></linearGradient><linearGradient id="linear-gradient-2" x1="1120.41" y1="232.65" x2="1147.21" y2="294.84" gradientTransform="matrix(1, 0, 0, -1, -895.66, 521.8)" gradientUnits="userSpaceOnUse"><stop offset="0" stop-color="#865bec"/><stop offset="0.99" stop-color="#a668f5"/></linearGradient><linearGradient id="linear-gradient-3" x1="1120.82" y1="234.04" x2="1146.71" y2="294.12" gradientTransform="matrix(1, 0, 0, -1, -895.66, 522.66)" xlink:href="#linear-gradient-2"/><linearGradient id="linear-gradient-4" x1="1024.04" y1="246.88" x2="1043.92" y2="246.88" gradientTransform="matrix(-1, 0, 0, 1, 1369.5, 0)" gradientUnits="userSpaceOnUse"><stop offset="0" stop-color="#8e71f1"/><stop offset="1" stop-color="#694dde"/></linearGradient><linearGradient id="linear-gradient-5" x1="1046.52" y1="243.62" x2="1192.86" y2="333.15" xlink:href="#linear-gradient-4"/><linearGradient id="linear-gradient-6" x1="1071.28" y1="173" x2="1074.49" y2="205.69" gradientTransform="matrix(-1, 0, 0, 1, 1369.5, 0)" gradientUnits="userSpaceOnUse"><stop offset="0" stop-color="#3f2d5c"/><stop offset="1" stop-color="#6c4c84"/></linearGradient><linearGradient id="linear-gradient-7" x1="1055.77" y1="173.89" x2="1059.09" y2="207.71" xlink:href="#linear-gradient-6"/></defs><title>as-user</title><g class="cls-1"><g id="Character_1" data-name="Character 1"><rect class="cls-2" x="-3.5" y="352.14" width="500" height="0.25"/><rect class="cls-2" x="413.28" y="368.24" width="33.12" height="0.25"/><rect class="cls-2" x="319.03" y="370.95" width="8.69" height="0.25"/><rect class="cls-2" x="393.09" y="358.95" width="19.19" height="0.25"/><rect class="cls-2" x="48.96" y="360.63" width="43.19" height="0.25"/><rect class="cls-2" x="101.06" y="360.63" width="6.33" height="0.25"/><rect class="cls-2" x="127.97" y="364.85" width="93.68" height="0.25"/><path class="cls-2" d="M233.51,307.54H40.42a5.71,5.71,0,0,1-5.71-5.71V30.4a5.71,5.71,0,0,1,5.71-5.7H233.51a5.71,5.71,0,0,1,5.71,5.7V301.83A5.71,5.71,0,0,1,233.51,307.54ZM40.42,25A5.46,5.46,0,0,0,35,30.4V301.83a5.47,5.47,0,0,0,5.46,5.46H233.51a5.47,5.47,0,0,0,5.46-5.46V30.4A5.46,5.46,0,0,0,233.51,25Z"/><path class="cls-2" d="M449.81,307.54H256.71a5.72,5.72,0,0,1-5.71-5.71V30.4a5.72,5.72,0,0,1,5.71-5.7h193.1a5.71,5.71,0,0,1,5.71,5.7V301.83A5.71,5.71,0,0,1,449.81,307.54ZM256.71,25a5.46,5.46,0,0,0-5.46,5.45V301.83a5.47,5.47,0,0,0,5.46,5.46h193.1a5.47,5.47,0,0,0,5.46-5.46V30.4A5.46,5.46,0,0,0,449.81,25Z"/><path class="cls-3" d="M313,252.2H433.19a8.25,8.25,0,0,1-7.88,8.23c-12.91.58-32.78,2.62-39.07,9.77-11.75,13.31-10.61,60.09,3.46,70.93,4.4,3.39,17.26,10.14,17.26,10.14H339.27s12-6.88,16.19-10.14c14-10.93,14.39-57.68,2.59-70.93-6.05-6.8-24.67-9-37.16-9.69A8.32,8.32,0,0,1,313,252.2Z"/><path class="cls-4" d="M418.3,260.86c-12.2,1-26.82,3.39-32.06,9.34a23.6,23.6,0,0,0-4,6.88H362.09a24.22,24.22,0,0,0-4-6.88c-5.26-5.91-20-8.35-32-9.34Z"/><polygon class="cls-2" points="364.22 252.26 365.86 233.58 342.17 233.58 340.54 252.26 364.22 252.26"/><polygon class="cls-5" points="364.22 252.26 365.86 233.58 367.13 233.58 365.5 252.26 364.22 252.26"/><polygon class="cls-6" points="361.97 250.35 363.27 235.49 344.42 235.49 343.12 250.35 361.97 250.35"/><polygon class="cls-7" points="360.53 249.13 361.61 236.71 345.87 236.71 344.78 249.13 360.53 249.13"/><polygon class="cls-4" points="371.9 252.2 395.69 252.2 393.05 222.03 369.26 222.03 371.9 252.2"/><polygon class="cls-5" points="371.9 252.2 370.77 252.2 368.13 222.03 369.26 222.03 371.9 252.2"/><polygon class="cls-6" points="374.06 249.12 393 249.12 390.9 225.1 371.96 225.1 374.06 249.12"/><polygon class="cls-7" points="375.44 247.14 391.27 247.14 389.51 227.08 373.69 227.08 375.44 247.14"/><path class="cls-2" d="M383.44,236.11h0a2.77,2.77,0,0,1-3.9,0h0a2.76,2.76,0,0,1,0-3.89h0a2.75,2.75,0,0,1,3.9,0h0A2.76,2.76,0,0,1,383.44,236.11Z"/><path class="cls-6" d="M382.27,239.48h0a2,2,0,0,1,2.85,0h0a2,2,0,0,1-1.42,3.44h0A2,2,0,0,1,382.27,239.48Z"/><rect class="cls-5" x="78.23" y="93.72" width="112.19" height="124.08" transform="translate(268.64 311.52) rotate(180)"/><rect class="cls-6" x="74.65" y="93.72" width="116.36" height="124.08" transform="translate(265.65 311.52) rotate(180)"/><rect class="cls-8" x="79.57" y="97.68" width="106.7" height="114.42" transform="translate(265.84 309.78) rotate(180)"/><rect class="cls-5" x="79.57" y="97.68" width="3.09" height="114.42" transform="translate(162.22 309.78) rotate(180)"/><rect class="cls-5" x="132.89" y="129.39" width="3.09" height="104.22" transform="translate(-47.07 315.93) rotate(-90)"/><rect class="cls-6" x="79.57" y="174.78" width="108.36" height="5.18" transform="translate(267.49 354.74) rotate(180)"/><path class="cls-4" d="M374.89,115s1-6.6-3.81-10.83-4.39-6.74-3-7.07,2.64,3.9,4.76,5.06c0,0,.07-6-2.08-8.25s-3.28-7.94-1.23-8,2.25,3.4,2.68,5.88,2.7,6,2.7,6,.44-5.39,1.83-7.61-2.31-7.3-.88-9.52,4,2,3.75,6.77-3.38,9.83-2.64,14.8c0,0,1.4-3.49,2.65-3.8s2.53-2.63,3.37-3.49,1.91,2.11,0,4.86-6.76,10.11-6,16.06Z"/><path class="cls-3" d="M372,112l-1.58,9.89a5,5,0,0,0,5,5.82h1.68a5,5,0,0,0,5-5.82L380.47,112Z"/><rect class="cls-4" x="284.44" y="124.02" width="111.4" height="5.72"/><rect class="cls-6" x="289.57" y="102.92" width="4.91" height="21.1"/><rect class="cls-6" x="313.3" y="102.92" width="4.91" height="21.1"/><rect class="cls-6" x="342.07" y="102.66" width="4.91" height="21.1" transform="translate(-14.22 60.16) rotate(-9.78)"/><rect class="cls-6" x="295.65" y="105.7" width="4.91" height="18.32"/><rect class="cls-6" x="306.93" y="105.7" width="4.91" height="18.32"/><rect class="cls-6" x="335.41" y="105.7" width="4.91" height="18.32"/><rect class="cls-6" x="321.79" y="105.39" width="4.91" height="18.32" transform="translate(-17.13 73.05) rotate(-12.53)"/><rect class="cls-6" x="302.35" y="101.88" width="2.45" height="22.15"/><rect class="cls-6" x="331.54" y="101.88" width="2.45" height="22.15"/><rect class="cls-4" x="284.44" y="166.75" width="111.4" height="5.72" transform="translate(680.29 339.23) rotate(180)"/><rect class="cls-6" x="385.81" y="145.65" width="4.91" height="21.1" transform="translate(776.53 312.4) rotate(180)"/><rect class="cls-6" x="362.08" y="145.65" width="4.91" height="21.1" transform="translate(729.07 312.4) rotate(180)"/><rect class="cls-6" x="333.31" y="145.39" width="4.91" height="21.1" transform="translate(640.17 366.63) rotate(-170.22)"/><rect class="cls-6" x="379.73" y="148.43" width="4.91" height="18.32" transform="translate(764.37 315.19) rotate(180)"/><rect class="cls-6" x="368.45" y="148.43" width="4.91" height="18.32" transform="translate(741.81 315.19) rotate(180)"/><rect class="cls-6" x="339.98" y="148.43" width="4.91" height="18.32" transform="translate(684.86 315.19) rotate(180)"/><rect class="cls-6" x="353.59" y="148.12" width="4.91" height="18.32" transform="translate(669.5 388.03) rotate(-167.47)"/><rect class="cls-6" x="375.49" y="144.61" width="2.45" height="22.15" transform="translate(753.43 311.36) rotate(180)"/><rect class="cls-6" x="346.29" y="144.61" width="2.45" height="22.15" transform="translate(695.04 311.36) rotate(180)"/><rect class="cls-3" x="295.13" y="150.05" width="23.91" height="16.51" transform="translate(614.18 316.62) rotate(180)"/><ellipse id="_Path_" data-name="&lt;Path&gt;" class="cls-3" cx="246.5" cy="385.98" rx="193.89" ry="11.32"/><path class="cls-9" d="M94.11,361s-5-10.8.7-21.45,7.3-13.17,3.69-15.35-5.26,8.52-5.26,8.52a24,24,0,0,1-.53-15.07c2.51-7.7,4.09-20.26.66-21.6s-.66,15.66-3.63,21.45a49.82,49.82,0,0,1-2.91-12.64c-.41-6.19.23-16.08-2.48-18.61s-4.44-.78-1.78,12.88a142.9,142.9,0,0,1,2.64,24.76s-5.88-17.92-9.82-18.44-3.94,5.28-.56,10.32,9.89,14.05,11,18.69c0,0-6.45-13.49-12.25-9.36s5,12.28,9.89,15.23,8.19,21.39,8.19,21.39Z"/><path class="cls-10" d="M94.11,361s-5-10.8.7-21.45,7.3-13.17,3.69-15.35-5.26,8.52-5.26,8.52a24,24,0,0,1-.53-15.07c2.51-7.7,4.09-20.26.66-21.6s-.66,15.66-3.63,21.45a49.82,49.82,0,0,1-2.91-12.64c-.41-6.19.23-16.08-2.48-18.61s-4.44-.78-1.78,12.88a142.9,142.9,0,0,1,2.64,24.76s-5.88-17.92-9.82-18.44-3.94,5.28-.56,10.32,9.89,14.05,11,18.69c0,0-6.45-13.49-12.25-9.36s5,12.28,9.89,15.23,8.19,21.39,8.19,21.39Z"/><path class="cls-9" d="M90.2,365.41s4.82-10.88-1-21.45-7.45-13-3.87-15.29,5.36,8.44,5.36,8.44A24.05,24.05,0,0,0,91.07,322c-2.6-7.67-4.33-20.2-.91-21.6S91,316.09,94,321.84a50.13,50.13,0,0,0,2.76-12.68c.34-6.2-.42-16.07,2.25-18.65s4.44-.85,1.94,12.85a142.45,142.45,0,0,0-2.34,24.81s5.66-18,9.59-18.59,4,5.22.69,10.3-9.72,14.2-10.73,18.86c0,0,6.29-13.58,12.14-9.54s-4.9,12.35-9.7,15.37-7.94,21.51-7.94,21.51Z"/><polygon class="cls-11" points="112.44 357.65 72.6 357.65 75.82 386.16 109.22 386.16 112.44 357.65"/><rect class="cls-12" x="186.72" y="262.53" width="3.27" height="115.46" transform="translate(376.7 640.51) rotate(-180)"/><rect class="cls-12" x="346.2" y="262.53" width="3.27" height="115.46" transform="translate(695.66 640.51) rotate(-180)"/><path class="cls-11" d="M269.23,364.07s4.44,11.73,1.61,13.24-29.21,0-29.21,0-2.33-4.58,4.75-6.28,10.31-5.95,10.31-5.95Z"/><path class="cls-11" d="M315.17,364.07s4.45,11.73,1.61,13.24-29.21,0-29.21,0-2.33-4.58,4.75-6.28,10.31-5.95,10.31-5.95Z"/><rect class="cls-12" x="136.88" y="262.13" width="262.87" height="2.9" rx="1.45" ry="1.45" transform="translate(536.64 527.16) rotate(-180)"/><path class="cls-13" d="M137.8,262.13h261a.91.91,0,0,1,.91.91v.81a.91.91,0,0,0-.91-.91h-261a.91.91,0,0,0-.92.91V263A.92.92,0,0,1,137.8,262.13Z"/><rect class="cls-12" x="145.14" y="262.53" width="3.27" height="115.46" transform="translate(293.55 640.51) rotate(-180)"/><path class="cls-14" d="M227.7,227.31s-8,13.46-8,22.07c0,4.89,5.68,10.29,5.68,10.29l31.94-.05s-18.65-5.22-14-16.68,7.6-15.63,7.6-15.63Z"/><path class="cls-9" d="M286.71,283.69s-35.1,2.44-47.8,13.57c-4,6.05-6.17,6.54,16.58,68,0,0,9,4.35,15-1.21a418.12,418.12,0,0,1-10.41-49.62s26.62,2.9,32.92-.49S297.84,290.22,286.71,283.69Z"/><path class="cls-15" d="M332.63,283.69s-35.1,2.44-47.8,13.57c-4,6.05-6.18,6.54,16.58,68,0,0,8.95,4.35,15-1.21A419.24,419.24,0,0,1,306,314.45s18.81.89,25.18-2.36C342.57,306.29,343.75,290.22,332.63,283.69Z"/><path class="cls-9" d="M332.63,283.69s-35.1,2.44-47.8,13.57c-4,6.05-6.18,6.54,16.58,68,0,0,8.95,4.35,15-1.21A419.24,419.24,0,0,1,306,314.45s18.81.89,25.18-2.36C342.57,306.29,343.75,290.22,332.63,283.69Z"/><rect class="cls-12" x="387.77" y="262.53" width="3.27" height="115.46" transform="translate(778.81 640.51) rotate(-180)"/><path class="cls-16" d="M243.14,248.72s-6.69-2.47-10-.47c-3.75,2.24-5.45,5.27-6.35,10.16-.73,3.92,4.53-2.54,5.62-3s3.39,4.23,6.54,3,4.72-9,4.72-9"/><polygon class="cls-17" points="145.74 229.75 173 229.75 186.72 262.06 159.46 262.06 145.74 229.75"/><path class="cls-18" d="M156.33,229.75H173l11.06,26.06a18.62,18.62,0,0,1-8.63,2.13c-11,0-20-9.75-20-21.76A23.77,23.77,0,0,1,156.33,229.75Z"/><polygon class="cls-19" points="145.74 229.75 141.24 262.06 159.46 262.06 145.74 229.75"/><path class="cls-19" d="M154.48,242.42h19.28a.53.53,0,0,0,.48-.73h0a.51.51,0,0,0-.48-.32H154.48a.52.52,0,0,0-.48.73h0A.53.53,0,0,0,154.48,242.42Z"/><path class="cls-19" d="M156,245.91h19.28a.53.53,0,0,0,.48-.73h0a.51.51,0,0,0-.48-.32H156a.52.52,0,0,0-.48.73h0A.53.53,0,0,0,156,245.91Z"/><path class="cls-19" d="M157.45,249.4h19.27a.53.53,0,0,0,.48-.73h0a.51.51,0,0,0-.48-.32H157.45a.53.53,0,0,0-.49.73h0A.53.53,0,0,0,157.45,249.4Z"/><path class="cls-19" d="M165.92,252.35H178a.53.53,0,0,0,.49-.73h0a.55.55,0,0,0-.49-.32H165.92a.52.52,0,0,0-.48.73h0A.53.53,0,0,0,165.92,252.35Z"/><path class="cls-19" d="M161.64,259.28h12.05a.53.53,0,0,0,.49-.73h0a.55.55,0,0,0-.49-.32H161.64a.52.52,0,0,0-.48.73h0A.53.53,0,0,0,161.64,259.28Z"/><path class="cls-19" d="M169.85,233.41l2.11,5h-1.15l-2.12-5Z"/><polygon class="cls-19" points="167.34 233.41 167.73 234.35 167.29 234.35 165.65 234.35 169.14 238.39 167.89 238.39 164.25 234.16 163.93 233.41 167.34 233.41"/><path class="cls-11" d="M364.11,245.14a1.64,1.64,0,0,1,1.64-1.73h18a1.64,1.64,0,0,1,1.64,1.73c-.19,3.47-1.13,11.41-5.85,17H370C365.24,256.55,364.29,248.61,364.11,245.14Z"/><path class="cls-9" d="M377.59,243.41s9.6-11.74,7.78-37.37c-14.84,15.52-10.63,37.37-10.63,37.37Z"/><path class="cls-20" d="M385.37,206v.09c-11.62,14.7-8.36,32.94-7.48,36.86l-.31.42h-2.85S370.53,221.56,385.37,206Z"/><path class="cls-9" d="M367.68,193.42s13.6,14.88,7.06,50h-1.81S363.14,217,367.68,193.42Z"/><path class="cls-9" d="M358,213s11.32,8.29,15,30.38H371.5S356.81,228.57,358,213Z"/><path class="cls-21" d="M372.93,262.13h-3a20.85,20.85,0,0,1-2.66-4.08c10.9-.89,12-8.74,12-12a1.35,1.35,0,0,1,1.35-1.35h4.72a2.56,2.56,0,0,1,0,.39c-.19,3.47-1.13,11.41-5.85,17h-6.59Z"/><polygon class="cls-22" points="307.46 229.19 297.41 157.65 171.85 157.65 181.91 229.19 307.46 229.19"/><polygon class="cls-14" points="183.53 227.31 305.31 227.31 295.79 159.53 174 159.53 183.53 227.31"/><path class="cls-16" d="M286.09,183.85a20.7,20.7,0,0,0,.83,8.58,11.21,11.21,0,0,1-.47,7.74l0,.06a1.52,1.52,0,0,0,.6,1.93l.57.29a2.07,2.07,0,0,1,1.22,1.45l.88,4,6.7-1.29,1.85-14.84-5.57-10.33Z"/><path class="cls-16" d="M299.79,207.34s2.23,2.66,2.6,8l15.69-1-2.24-7.22-10.13-19.41-5.92-.6S298.11,195,299.79,207.34Z"/><path class="cls-11" d="M290,209.47a2.75,2.75,0,0,0,3.38,2.23c3-.76,7.15-2.53,6.68-6.5-.73-6.13-1.62-16.3,2.34-16s3.3,5,1.53,8.71,5.73,10.17,11.94,9.28a12.93,12.93,0,0,1,2.74-8.31c4.34-6,5.41-9.6,5.65-12.91s-1.13-7.67-5.48-9c-1.36-4-8.49-10.35-28.89-3.37a10.82,10.82,0,0,1-1.92.49,10.4,10.4,0,0,1-5.5-.51s-.9,5.29,1.73,8.8a5.25,5.25,0,0,0,4.7,2.06c4.19-.42,6.25,1.71,7,4.8.89,3.47,2.18,15-1.05,16.7a19.27,19.27,0,0,1-5.16,2Z"/><rect class="cls-23" x="210.37" y="259.67" width="53.09" height="2.46" transform="translate(473.84 521.8) rotate(-180)"/><rect class="cls-24" x="210.37" y="260.53" width="53.09" height="1.6" transform="translate(473.84 522.66) rotate(-180)"/><path class="cls-25" d="M263.54,366.88c-5.6-18.54-12.1-53.77-12.1-53.77l8.65,1.34a425.43,425.43,0,0,0,8.64,43.07c.38,2.33.74,4.79,1,7.16A11,11,0,0,1,263.54,366.88Z"/><path class="cls-26" d="M283.79,314.33l3.13,1a1.77,1.77,0,0,1,1.1,2.32L262.3,385.07a1.78,1.78,0,0,1-1.88,1.13h0a1.78,1.78,0,0,1-1.47-2.33l22.59-68.41A1.78,1.78,0,0,1,283.79,314.33Z"/><path class="cls-26" d="M309.9,313.14l-3.24.65a1.78,1.78,0,0,0-1.38,2.17l17.22,70a1.78,1.78,0,0,0,1.73,1.36h0a1.79,1.79,0,0,0,1.75-2.13l-14-70.68A1.79,1.79,0,0,0,309.9,313.14Z"/><path class="cls-26" d="M330.63,314l-3.57,1a2,2,0,0,0-1.37,2.53l24.84,76.87a2,2,0,0,0,2.05,1.38h0a2,2,0,0,0,1.78-2.52l-21.28-77.84A2,2,0,0,0,330.63,314Z"/><path class="cls-27" d="M306.17,215.09l-3.78.24c-.37-5.33-2.6-8-2.6-8-.12-.91-.23-1.8-.32-2.67A13.24,13.24,0,0,1,306.17,215.09Z"/><path class="cls-11" d="M324.26,215s10.38.12,19.82,19,9.07,20.65,9.07,20.65,5,19.53-24.08,10.57Z"/><path class="cls-28" d="M325.58,234c1.28-4.64,2.32-7.75,2.32-7.75S353.34,253.1,343,267.5c-3.49.24-8.16-.37-14.41-2.3Z"/><path class="cls-11" d="M340,256.36a92.63,92.63,0,0,0-3.15-23.24c-3.39-12.83-4.37-20.71-26.87-19.19s-20.88,3-24,5.15c-2.51,1.76-13.65,20.44-17.84,27.57a5.22,5.22,0,0,1-4.78,2.56c-5.78-.31-17.58-.93-19.22-.84-2.18.12-5.93,5.81-5.08,10.77,18.4,6.53,27.52,10,34.49,8,8.14-2.4,14.06-19.23,15.92-19.85.5,4.2,2.36,24.14-2.24,34-5.09,10.89,30.26,29,52.77,16.7C339.72,271.6,340,256.36,340,256.36Z"/><path class="cls-29" d="M239.83,253.78c2.23,1.39,25.78,15.64,35.63,2.62,10.35-13.67,14.65-27.71,23.58-17.74s9.73,37.33,9.52,38.44c-.14.74-4.4,12.7-7.17,20.44-9.89-4.41-16.38-11.1-14-16.21,4.6-9.86,2.74-29.8,2.24-34-1.86.62-7.78,17.45-15.92,19.85-7,2.06-16.09-1.45-34.49-8A10.81,10.81,0,0,1,239.83,253.78Z"/><path class="cls-30" d="M347.71,288.06s3.39-34.61-25.9-34.61c-32,0-27.35,32.68-35.86,45-3.56,7.7-9.63,13.79-15.45,16.82s35.72,16.61,58.09,3.88C347,308.7,347.71,288.06,347.71,288.06Z"/><path class="cls-31" d="M270.4,315.29c5.81-3,11.88-9.12,15.45-16.82,8.5-12.34,3.87-45,35.85-45,10,0,16.2,4,20,9.36a26.22,26.22,0,0,0-13.18-3.14c-32,0-27.35,32.68-35.86,45a37.45,37.45,0,0,1-14,16C272.06,318.66,268.38,316.34,270.4,315.29Z"/><path class="cls-26" d="M300.28,313.74h0a3.8,3.8,0,0,1,3,4.63L284.39,395a2,2,0,0,1-1.93,1.52h0a2,2,0,0,1-2-2.38l15.31-77.39A3.8,3.8,0,0,1,300.28,313.74Z"/><polygon class="cls-9" points="155.49 237.88 159.46 237.88 157.77 233.92 153.81 233.92 155.49 237.88"/><g class="cls-32"><path class="cls-33" d="M289.93,209.25l-.23-1.39a19.27,19.27,0,0,0,5.16-2c2.71-1.43,2.24-9.79,1.49-14.49a7.86,7.86,0,0,1,3.29,1.47c-.55,3.47-.05,8.66.39,12.37.45,3.86-3.46,5.64-6.43,6.43A3,3,0,0,1,289.93,209.25Z"/><path class="cls-34" d="M319,198.3l-.39.53a12.93,12.93,0,0,0-2.74,8.31c-6.21.89-13.72-5.57-11.94-9.28.14-.29.27-.59.39-.89C309.2,200.48,314.49,200,319,198.3Z"/></g><ellipse class="cls-17" cx="239.51" cy="181.49" rx="5.61" ry="6.46" transform="translate(-56.56 232.93) rotate(-47.01)"/><path class="cls-17" d="M230.56,195.77h22.62a.79.79,0,0,0,.79-.91l-.1-.75a.81.81,0,0,0-.79-.69H230.45a.8.8,0,0,0-.79.91l.1.75A.82.82,0,0,0,230.56,195.77Z"/><path class="cls-17" d="M231.33,201.29H254a.81.81,0,0,0,.8-.91l-.11-.75a.8.8,0,0,0-.79-.69H231.22a.8.8,0,0,0-.79.91l.1.75A.82.82,0,0,0,231.33,201.29Z"/><path class="cls-9" d="M241,210h6a.8.8,0,0,0,.79-.91l-.11-.75a.8.8,0,0,0-.79-.69h-6a.81.81,0,0,0-.8.91l.11.75A.8.8,0,0,0,241,210Z"/></g></g></svg>