<?xml version="1.0" encoding="UTF-8" standalone="no"?>
<svg width="64px" height="48px" viewBox="0 0 64 48" version="1.1" xmlns="http://www.w3.org/2000/svg" xmlns:xlink="http://www.w3.org/1999/xlink">
    <!-- Generator: Sketch 3.6.1 (26313) - http://www.bohemiancoding.com/sketch -->
    <title>Credit Card</title>
    <desc>Created with Sketch.</desc>
    <defs></defs>
    <g id="Page-1" stroke="none" stroke-width="1" fill="none" fill-rule="evenodd">
        <g id="Finance" transform="translate(-212.000000, -380.000000)" fill="#4573E3">
            <g id="Credit-Card" transform="translate(212.000000, 380.000000)">
                <path d="M53,0 L5,0 C2.25,0 0,2.25 0,5 L0,35 C0,37.75 2.25,40 5,40 L53,40 C55.75,40 58,37.75 58,35 L58,5 C58,2.25 55.75,0 53,0 L53,0 Z M53,2 C54.654,2 56,3.346 56,5 L56,35 C56,36.654 54.654,38 53,38 L5,38 C3.346,38 2,36.654 2,35 L2,5 C2,3.346 3.346,2 5,2 L53,2 L53,2 Z" id="Fill-1"></path>
                <path d="M57.6715,3.2701 C57.8735,3.8121 57.9995,4.3901 57.9995,5.0001 L57.9995,35.0001 C57.9995,37.7501 55.7495,40.0001 52.9995,40.0001 L4.9995,40.0001 C4.3905,40.0001 3.8115,39.8741 3.2705,39.6711 C4.3705,41.0841 6.0815,42.0001 7.9995,42.0001 L53.9995,42.0001 C57.2995,42.0001 59.9995,39.3001 59.9995,36.0001 L59.9995,8.0001 C59.9995,6.0811 59.0835,4.3701 57.6715,3.2701" id="Fill-3" fill-opacity="0.5"></path>
                <path d="M15,26 L7,26 C6.45,26 6,25.55 6,25 L6,19 C6,18.45 6.45,18 7,18 L15,18 C15.55,18 16,18.45 16,19 L16,25 C16,25.55 15.55,26 15,26" id="Fill-5"></path>
                <path d="M46,10 C46,12.209 44.209,14 42,14 C39.791,14 38,12.209 38,10 C38,7.791 39.791,6 42,6 C44.209,6 46,7.791 46,10" id="Fill-7" fill-opacity="0.5"></path>
                <path d="M58,24 L63,24 L63,16 L58,16 L58,24 Z" id="Fill-9"></path>
                <path d="M59,8 L58,8 L58,10 L59,10 C60.654,10 62,11.346 62,13 L62,43 C62,44.654 60.654,46 59,46 L11,46 C9.346,46 8,44.654 8,43 L8,40 L6,40 L6,43 C6,45.75 8.25,48 11,48 L59,48 C61.75,48 64,45.75 64,43 L64,13 C64,10.25 61.75,8 59,8" id="Fill-11"></path>
                <path d="M52,10 C52,12.209 50.209,14 48,14 C45.791,14 44,12.209 44,10 C44,7.791 45.791,6 48,6 C50.209,6 52,7.791 52,10" id="Fill-12"></path>
                <path d="M13,34 L7,34 C6.45,34 6,33.55 6,33 L6,33 C6,32.45 6.45,32 7,32 L13,32 C13.55,32 14,32.45 14,33 L14,33 C14,33.55 13.55,34 13,34" id="Fill-13"></path>
                <path d="M27,34 L17,34 C16.45,34 16,33.55 16,33 L16,33 C16,32.45 16.45,32 17,32 L27,32 C27.55,32 28,32.45 28,33 L28,33 C28,33.55 27.55,34 27,34" id="Fill-14"></path>
            </g>
        </g>
    </g>
</svg>