<svg width="26" height="12" viewBox="0 0 26 12" fill="none" xmlns="http://www.w3.org/2000/svg">
<path d="M0.297894 6.68501C0.298199 6.6853 0.298453 6.68564 0.29881 6.68593L5.60565 11.7182C6.00322 12.0952 6.64626 12.0938 7.042 11.7149C7.43769 11.3361 7.43616 10.7234 7.03859 10.3463L3.47558 6.96774L24.9844 6.96774C25.5453 6.96774 26 6.53448 26 6C26 5.46552 25.5453 5.03226 24.9844 5.03226L3.47563 5.03226L7.03854 1.65367C7.43611 1.27664 7.43763 0.663915 7.04195 0.285092C6.64621 -0.093828 6.00312 -0.0951336 5.6056 0.281801L0.298758 5.31406C0.298453 5.31435 0.298199 5.31469 0.297843 5.31498C-0.0999254 5.69327 -0.0986552 6.30798 0.297894 6.68501Z" fill="#767676"/>
</svg>
