<svg width="500" height="373" viewBox="0 0 500 373" fill="none" xmlns="http://www.w3.org/2000/svg">
<path d="M500 327.44H0V327.69H500V327.44Z" fill="#EBEBEB"/>
<path d="M449.9 343.54H416.78V343.79H449.9V343.54Z" fill="#EBEBEB"/>
<path d="M331.22 346.25H322.53V346.5H331.22V346.25Z" fill="#EBEBEB"/>
<path d="M415.78 334.25H396.59V334.5H415.78V334.25Z" fill="#EBEBEB"/>
<path d="M95.65 335.93H52.46V336.18H95.65V335.93Z" fill="#EBEBEB"/>
<path d="M110.89 335.93H104.56V336.18H110.89V335.93Z" fill="#EBEBEB"/>
<path d="M225.15 340.15H131.47V340.4H225.15V340.15Z" fill="#EBEBEB"/>
<path d="M237.01 282.84H43.92C42.4056 282.84 40.9532 282.238 39.8824 281.168C38.8115 280.097 38.21 278.644 38.21 277.13V5.7C38.2126 4.18735 38.8154 2.73755 39.8859 1.66888C40.9565 0.600212 42.4073 -2.31973e-06 43.92 0H237.01C238.523 -2.31973e-06 239.973 0.600212 241.044 1.66888C242.115 2.73755 242.717 4.18735 242.72 5.7V277.13C242.72 277.88 242.572 278.622 242.285 279.315C241.998 280.008 241.578 280.637 241.048 281.168C240.517 281.698 239.888 282.118 239.195 282.405C238.502 282.692 237.76 282.84 237.01 282.84V282.84ZM43.92 0.299999C42.4892 0.310396 41.1196 0.882033 40.106 1.89192C39.0923 2.90181 38.5156 4.26924 38.5 5.7V277.13C38.5026 278.577 39.0787 279.965 40.1021 280.988C41.1255 282.011 42.5127 282.587 43.96 282.59H237.01C238.457 282.587 239.844 282.011 240.868 280.988C241.891 279.965 242.467 278.577 242.47 277.13V5.7C242.454 4.26234 241.872 2.88893 240.85 1.87793C239.827 0.866918 238.448 0.299912 237.01 0.299999H43.92Z" fill="#EBEBEB"/>
<path d="M453.31 282.84H260.21C258.696 282.837 257.246 282.235 256.175 281.165C255.105 280.094 254.503 278.644 254.5 277.13V5.7C254.505 4.18816 255.109 2.7399 256.179 1.6718C257.249 0.603696 258.698 0.00263386 260.21 0H453.31C454.823 -2.31973e-06 456.274 0.600212 457.344 1.66888C458.415 2.73755 459.017 4.18735 459.02 5.7V277.13C459.02 278.644 458.418 280.097 457.348 281.168C456.277 282.238 454.824 282.84 453.31 282.84V282.84ZM260.21 0.299999C258.764 0.299997 257.376 0.873872 256.353 1.89566C255.329 2.91745 254.753 4.30365 254.75 5.75V277.13C254.753 278.577 255.329 279.965 256.352 280.988C257.375 282.011 258.763 282.587 260.21 282.59H453.31C454.757 282.587 456.145 282.011 457.168 280.988C458.191 279.965 458.767 278.577 458.77 277.13V5.7C458.754 4.26234 458.172 2.88893 457.15 1.87793C456.128 0.866918 454.748 0.299912 453.31 0.299999H260.21Z" fill="#EBEBEB"/>
<path d="M316.5 227.5H436.69C436.687 229.622 435.866 231.661 434.399 233.194C432.931 234.727 430.93 235.635 428.81 235.73C415.9 236.31 396.03 238.35 389.74 245.5C377.99 258.81 379.13 305.59 393.2 316.43C397.6 319.82 410.46 326.57 410.46 326.57H342.77C342.77 326.57 354.77 319.69 358.96 316.43C372.96 305.5 373.35 258.75 361.55 245.5C355.5 238.7 336.88 236.5 324.39 235.81C322.261 235.7 320.255 234.776 318.786 233.23C317.318 231.683 316.5 229.632 316.5 227.5V227.5Z" fill="#F5F5F5"/>
<path d="M421.8 236.16C409.6 237.16 394.98 239.55 389.74 245.5C388.027 247.55 386.674 249.877 385.74 252.38H365.59C364.645 249.882 363.293 247.557 361.59 245.5C356.33 239.59 341.59 237.15 329.59 236.16H421.8Z" fill="#E6E6E6"/>
<path d="M367.72 227.56L369.36 208.88H345.67L344.04 227.56H367.72Z" fill="#EBEBEB"/>
<path d="M367.72 227.56L369.36 208.88H370.63L369 227.56H367.72Z" fill="#E0E0E0"/>
<path d="M365.47 225.65L366.77 210.79H347.92L346.62 225.65H365.47Z" fill="#F0F0F0"/>
<path d="M364.03 224.43L365.11 212.01H349.37L348.28 224.43H364.03Z" fill="#FAFAFA"/>
<path d="M375.4 227.5H399.19L396.55 197.33H372.76L375.4 227.5Z" fill="#E6E6E6"/>
<path d="M375.4 227.5H374.27L371.63 197.33H372.76L375.4 227.5Z" fill="#E0E0E0"/>
<path d="M377.56 224.42H396.5L394.4 200.4H375.46L377.56 224.42Z" fill="#F0F0F0"/>
<path d="M378.94 222.44H394.77L393.01 202.38H377.19L378.94 222.44Z" fill="#FAFAFA"/>
<path d="M386.94 211.41C386.421 211.924 385.72 212.213 384.99 212.213C384.26 212.213 383.559 211.924 383.04 211.41V211.41C382.527 210.893 382.238 210.194 382.238 209.465C382.238 208.736 382.527 208.037 383.04 207.52C383.296 207.263 383.599 207.059 383.934 206.92C384.269 206.781 384.628 206.709 384.99 206.709C385.352 206.709 385.711 206.781 386.046 206.92C386.381 207.059 386.685 207.263 386.94 207.52V207.52C387.454 208.037 387.742 208.736 387.742 209.465C387.742 210.194 387.454 210.893 386.94 211.41V211.41Z" fill="#EBEBEB"/>
<path d="M385.77 214.78C385.956 214.591 386.178 214.441 386.422 214.339C386.667 214.236 386.93 214.183 387.195 214.183C387.46 214.183 387.723 214.236 387.967 214.339C388.212 214.441 388.434 214.591 388.62 214.78V214.78C388.909 215.059 389.107 215.418 389.19 215.811C389.272 216.204 389.234 216.612 389.081 216.983C388.928 217.354 388.666 217.671 388.331 217.891C387.995 218.112 387.601 218.226 387.2 218.22C386.797 218.229 386.402 218.116 386.065 217.896C385.728 217.676 385.465 217.36 385.31 216.988C385.156 216.617 385.117 216.207 385.199 215.813C385.281 215.419 385.48 215.059 385.77 214.78Z" fill="#F0F0F0"/>
<path d="M81.7202 193.1H193.91L193.91 69.02L81.7202 69.02L81.7202 193.1Z" fill="#E0E0E0"/>
<path d="M78.14 193.1L194.5 193.1L194.5 69.02L78.14 69.02L78.14 193.1Z" fill="#F0F0F0"/>
<path d="M83.0695 187.4H189.77V72.98L83.0695 72.98L83.0695 187.4Z" fill="white"/>
<path d="M83.0604 187.4H86.1504L86.1504 72.98H83.0604L83.0604 187.4Z" fill="#E0E0E0"/>
<path d="M85.8203 155.25V158.34H190.04V155.25H85.8203Z" fill="#E0E0E0"/>
<path d="M83.0599 155.26H191.42V150.08H83.0599V155.26Z" fill="#F0F0F0"/>
<path d="M378.39 90.3001C378.39 90.3001 379.389 83.7001 374.579 79.4701C369.769 75.2401 370.189 72.7301 371.579 72.4001C372.969 72.0701 374.219 76.3001 376.339 77.4601C376.339 77.4601 376.41 71.4601 374.26 69.2101C372.11 66.9601 370.98 61.2701 373.03 61.2101C375.08 61.1501 375.279 64.6101 375.709 67.0901C376.139 69.5701 378.41 73.0901 378.41 73.0901C378.41 73.0901 378.849 67.7001 380.239 65.4801C381.629 63.2601 377.929 58.1801 379.359 55.9601C380.789 53.7401 383.359 57.9601 383.109 62.7301C382.859 67.5001 379.73 72.5601 380.47 77.5301C380.47 77.5301 381.869 74.0401 383.119 73.7301C384.369 73.4201 385.649 71.1001 386.489 70.2401C387.329 69.3801 388.399 72.3501 386.489 75.1001C384.579 77.8501 379.729 85.2101 380.489 91.1601L378.39 90.3001Z" fill="#E6E6E6"/>
<path d="M375.5 87.3L373.92 97.19C373.8 97.9119 373.84 98.6513 374.037 99.356C374.234 100.061 374.583 100.714 375.06 101.269C375.537 101.824 376.13 102.267 376.797 102.568C377.464 102.869 378.189 103.02 378.92 103.01H380.6C381.332 103.02 382.057 102.869 382.724 102.568C383.391 102.267 383.984 101.824 384.461 101.269C384.938 100.714 385.287 100.061 385.484 99.356C385.681 98.6513 385.72 97.9119 385.6 97.19L383.97 87.3H375.5Z" fill="#F5F5F5"/>
<path d="M399.34 99.3199H287.94V105.04H399.34V99.3199Z" fill="#E6E6E6"/>
<path d="M297.98 78.22H293.07V99.32H297.98V78.22Z" fill="#F0F0F0"/>
<path d="M321.71 78.22H316.8V99.32H321.71V78.22Z" fill="#F0F0F0"/>
<path d="M348.656 77.6882L343.817 78.5222L347.402 99.3156L352.24 98.4815L348.656 77.6882Z" fill="#F0F0F0"/>
<path d="M304.06 81H299.15V99.32H304.06V81Z" fill="#F0F0F0"/>
<path d="M315.34 81H310.43V99.32H315.34V81Z" fill="#F0F0F0"/>
<path d="M343.82 81H338.91V99.32H343.82V81Z" fill="#F0F0F0"/>
<path d="M328.153 80.352L323.36 81.4172L327.335 99.3009L332.128 98.2357L328.153 80.352Z" fill="#F0F0F0"/>
<path d="M308.3 77.1799H305.85V99.3299H308.3V77.1799Z" fill="#F0F0F0"/>
<path d="M337.49 77.1799H335.04V99.3299H337.49V77.1799Z" fill="#F0F0F0"/>
<path d="M287.95 147.78H399.35V142.06H287.95V147.78Z" fill="#E6E6E6"/>
<path d="M389.31 142.05H394.22V120.95H389.31V142.05Z" fill="#F0F0F0"/>
<path d="M365.58 142.05H370.49V120.95H365.58V142.05Z" fill="#F0F0F0"/>
<path d="M335.062 141.201L339.9 142.035L343.485 121.242L338.646 120.408L335.062 141.201Z" fill="#F0F0F0"/>
<path d="M383.23 142.06H388.14V123.74H383.23V142.06Z" fill="#F0F0F0"/>
<path d="M371.95 142.06H376.86V123.74H371.95V142.06Z" fill="#F0F0F0"/>
<path d="M343.47 142.06H348.38V123.74H343.47V142.06Z" fill="#F0F0F0"/>
<path d="M355.174 140.961L359.967 142.026L363.941 124.143L359.148 123.077L355.174 140.961Z" fill="#F0F0F0"/>
<path d="M378.99 142.05H381.44V119.9H378.99V142.05Z" fill="#F0F0F0"/>
<path d="M349.8 142.05H352.25V119.9H349.8V142.05Z" fill="#F0F0F0"/>
<path d="M298.64 141.87H322.55V125.36H298.64V141.87Z" fill="#F5F5F5"/>
<path d="M250 372.6C357.083 372.6 443.89 367.532 443.89 361.28C443.89 355.028 357.083 349.96 250 349.96C142.918 349.96 56.1104 355.028 56.1104 361.28C56.1104 367.532 142.918 372.6 250 372.6Z" fill="#F5F5F5"/>
<path d="M97.6104 336.3C97.6104 336.3 92.6104 325.5 98.3104 314.85C104.01 304.2 105.61 301.68 102 299.5C98.3904 297.32 96.7404 308.02 96.7404 308.02C94.9493 303.184 94.7634 297.9 96.2104 292.95C98.7204 285.25 100.3 272.69 96.8704 271.35C93.4404 270.01 96.2104 287.01 93.2404 292.8C91.7237 288.731 90.7455 284.482 90.3304 280.16C89.9204 273.97 90.5604 264.08 87.8504 261.55C85.1404 259.02 83.4104 260.77 86.0704 274.43C87.6692 282.591 88.5525 290.876 88.7104 299.19C88.7104 299.19 82.8304 281.27 78.8904 280.75C74.9504 280.23 74.9504 286.03 78.3304 291.07C81.7104 296.11 88.2204 305.12 89.3304 309.76C89.3304 309.76 82.8804 296.27 77.0804 300.4C71.2804 304.53 82.0804 312.68 86.9704 315.63C91.8604 318.58 95.1604 337.02 95.1604 337.02L97.6104 336.3Z" fill="#407BFF"/>
<path opacity="0.2" d="M97.6104 336.3C97.6104 336.3 92.6104 325.5 98.3104 314.85C104.01 304.2 105.61 301.68 102 299.5C98.3904 297.32 96.7404 308.02 96.7404 308.02C94.9493 303.184 94.7634 297.9 96.2104 292.95C98.7204 285.25 100.3 272.69 96.8704 271.35C93.4404 270.01 96.2104 287.01 93.2404 292.8C91.7237 288.731 90.7455 284.482 90.3304 280.16C89.9204 273.97 90.5604 264.08 87.8504 261.55C85.1404 259.02 83.4104 260.77 86.0704 274.43C87.6692 282.591 88.5525 290.876 88.7104 299.19C88.7104 299.19 82.8304 281.27 78.8904 280.75C74.9504 280.23 74.9504 286.03 78.3304 291.07C81.7104 296.11 88.2204 305.12 89.3304 309.76C89.3304 309.76 82.8804 296.27 77.0804 300.4C71.2804 304.53 82.0804 312.68 86.9704 315.63C91.8604 318.58 95.1604 337.02 95.1604 337.02L97.6104 336.3Z" fill="black"/>
<path d="M93.7 340.71C93.7 340.71 98.52 329.83 92.7 319.26C86.88 308.69 85.25 306.26 88.83 303.97C92.41 301.68 94.19 312.41 94.19 312.41C95.9372 307.545 96.0704 302.247 94.57 297.3C91.97 289.63 90.24 277.1 93.66 275.7C97.08 274.3 94.5 291.39 97.5 297.14C98.9655 293.051 99.8932 288.788 100.26 284.46C100.6 278.26 99.84 268.39 102.51 265.81C105.18 263.23 106.95 264.96 104.45 278.66C102.947 286.846 102.164 295.148 102.11 303.47C102.11 303.47 107.77 285.47 111.7 284.88C115.63 284.29 115.7 290.1 112.39 295.18C109.08 300.26 102.67 309.38 101.66 314.04C101.66 314.04 107.95 300.46 113.8 304.5C119.65 308.54 108.9 316.85 104.1 319.87C99.3 322.89 96.16 341.38 96.16 341.38L93.7 340.71Z" fill="#407BFF"/>
<path d="M115.94 332.95H76.0996L79.3196 361.46H112.72L115.94 332.95Z" fill="#263238"/>
<path opacity="0.6" d="M190.21 353.28H193.48V237.82H190.21V353.28Z" fill="#898989"/>
<path opacity="0.6" d="M349.69 353.28H352.96V237.82H349.69V353.28Z" fill="#898989"/>
<path d="M272.73 339.37C272.73 339.37 277.17 351.1 274.34 352.61C271.51 354.12 245.13 352.61 245.13 352.61C245.13 352.61 242.8 348.03 249.88 346.33C256.96 344.63 260.19 340.38 260.19 340.38L272.73 339.37Z" fill="#263238"/>
<path d="M318.67 339.37C318.67 339.37 323.12 351.1 320.28 352.61C317.44 354.12 291.07 352.61 291.07 352.61C291.07 352.61 288.74 348.03 295.82 346.33C302.9 344.63 306.13 340.38 306.13 340.38L318.67 339.37Z" fill="#263238"/>
<path opacity="0.6" d="M141.84 240.33L401.81 240.33C402.611 240.33 403.26 239.681 403.26 238.88C403.26 238.079 402.611 237.43 401.81 237.43L141.84 237.43C141.039 237.43 140.39 238.079 140.39 238.88C140.39 239.681 141.039 240.33 141.84 240.33Z" fill="#898989"/>
<path opacity="0.6" d="M141.3 237.43H402.3C402.419 237.43 402.538 237.454 402.648 237.499C402.759 237.545 402.859 237.612 402.943 237.697C403.028 237.781 403.095 237.881 403.141 237.992C403.186 238.102 403.21 238.221 403.21 238.34V239.15C403.21 239.031 403.186 238.912 403.141 238.802C403.095 238.691 403.028 238.591 402.943 238.507C402.859 238.422 402.759 238.355 402.648 238.309C402.538 238.264 402.419 238.24 402.3 238.24H141.3C141.18 238.239 141.06 238.261 140.949 238.306C140.837 238.352 140.735 238.418 140.65 238.503C140.564 238.588 140.496 238.688 140.45 238.799C140.404 238.911 140.38 239.03 140.38 239.15V238.3C140.393 238.065 140.495 237.843 140.666 237.682C140.838 237.52 141.064 237.43 141.3 237.43Z" fill="#C4C4C4"/>
<path opacity="0.6" d="M148.64 353.28H151.91V237.82H148.64V353.28Z" fill="#898989"/>
<path opacity="0.3" d="M231.2 202.61C231.2 202.61 223.2 216.07 223.2 224.68C223.2 229.57 228.88 234.97 228.88 234.97L260.82 234.92C260.82 234.92 242.17 229.7 246.82 218.24C251.47 206.78 254.42 202.61 254.42 202.61H231.2Z" fill="#407BFF"/>
<path d="M290.21 258.99C290.21 258.99 255.11 261.43 242.41 272.56C238.41 278.61 236.24 279.1 258.99 340.56C258.99 340.56 267.99 344.91 273.99 339.35C269.52 323.036 266.044 306.465 263.58 289.73C263.58 289.73 290.2 292.63 296.5 289.24C302.8 285.85 301.34 265.52 290.21 258.99Z" fill="#407BFF"/>
<path d="M336.13 258.99C336.13 258.99 301.03 261.43 288.33 272.56C284.33 278.61 282.15 279.1 304.91 340.56C304.91 340.56 313.86 344.91 319.91 339.35C315.443 323.042 311.966 306.478 309.5 289.75C309.5 289.75 328.31 290.64 334.68 287.39C346.07 281.59 347.25 265.52 336.13 258.99Z" fill="#31286A"/>
<path d="M336.13 258.99C336.13 258.99 301.03 261.43 288.33 272.56C284.33 278.61 282.15 279.1 304.91 340.56C304.91 340.56 313.86 344.91 319.91 339.35C315.443 323.042 311.966 306.478 309.5 289.75C309.5 289.75 328.31 290.64 334.68 287.39C346.07 281.59 347.25 265.52 336.13 258.99Z" fill="#407BFF"/>
<path opacity="0.6" d="M391.27 353.28H394.54V237.82H391.27V353.28Z" fill="#898989"/>
<path d="M246.64 224.02C246.64 224.02 239.95 221.55 236.64 223.55C232.89 225.79 231.19 228.82 230.29 233.71C229.56 237.63 234.82 231.17 235.91 230.71C237 230.25 239.3 234.94 242.45 233.71C245.6 232.48 247.17 224.71 247.17 224.71" fill="#E7AEA4"/>
<path d="M149.24 205.05H176.5L190.22 237.36H162.96L149.24 205.05Z" fill="#F0F1F1"/>
<g style="mix-blend-mode:color-dodge" opacity="0.46">
<path d="M159.83 205.05H176.5L187.56 231.11C184.897 232.506 181.936 233.237 178.93 233.24C167.93 233.24 158.93 223.49 158.93 211.48C158.934 209.306 159.237 207.142 159.83 205.05V205.05Z" fill="#F0F1F1"/>
</g>
<path d="M149.24 205.05L144.74 237.36H162.96L149.24 205.05Z" fill="#CFD1D2"/>
<path d="M157.98 217.72H177.26C177.346 217.718 177.431 217.696 177.506 217.654C177.581 217.612 177.645 217.553 177.692 217.481C177.74 217.409 177.769 217.327 177.777 217.242C177.785 217.156 177.773 217.07 177.74 216.99V216.99C177.702 216.894 177.636 216.813 177.55 216.756C177.464 216.698 177.363 216.669 177.26 216.67H157.98C157.893 216.669 157.808 216.69 157.731 216.731C157.654 216.772 157.589 216.832 157.542 216.904C157.494 216.977 157.465 217.06 157.458 217.147C157.451 217.233 157.465 217.32 157.5 217.4V217.4C157.541 217.494 157.608 217.574 157.693 217.631C157.778 217.688 157.878 217.719 157.98 217.72V217.72Z" fill="#CFD1D2"/>
<path d="M159.5 221.21H178.78C178.866 221.208 178.95 221.186 179.025 221.144C179.101 221.102 179.165 221.043 179.212 220.971C179.259 220.899 179.288 220.817 179.297 220.732C179.305 220.646 179.292 220.56 179.26 220.48V220.48C179.222 220.384 179.155 220.303 179.069 220.246C178.984 220.188 178.883 220.159 178.78 220.16H159.5C159.413 220.159 159.327 220.18 159.251 220.221C159.174 220.262 159.109 220.322 159.061 220.394C159.013 220.467 158.985 220.55 158.977 220.637C158.97 220.723 158.985 220.81 159.02 220.89V220.89C159.06 220.984 159.127 221.064 159.213 221.121C159.298 221.178 159.398 221.209 159.5 221.21V221.21Z" fill="#CFD1D2"/>
<path d="M160.95 224.7H180.22C180.306 224.698 180.39 224.676 180.466 224.634C180.541 224.592 180.605 224.533 180.652 224.461C180.699 224.389 180.728 224.307 180.737 224.222C180.745 224.136 180.733 224.05 180.7 223.97V223.97C180.662 223.874 180.595 223.793 180.51 223.736C180.424 223.678 180.323 223.649 180.22 223.65H160.95C160.863 223.65 160.778 223.672 160.701 223.712C160.625 223.753 160.559 223.812 160.511 223.885C160.462 223.957 160.433 224.04 160.424 224.126C160.415 224.212 160.427 224.3 160.46 224.38V224.38C160.501 224.475 160.57 224.557 160.657 224.614C160.744 224.671 160.846 224.701 160.95 224.7V224.7Z" fill="#CFD1D2"/>
<path d="M169.42 227.65H181.5C181.587 227.65 181.672 227.628 181.749 227.587C181.825 227.547 181.891 227.487 181.939 227.415C181.987 227.343 182.017 227.26 182.026 227.174C182.035 227.088 182.023 227 181.99 226.92V226.92C181.947 226.826 181.878 226.746 181.791 226.689C181.704 226.633 181.603 226.602 181.5 226.6H169.42C169.333 226.599 169.247 226.62 169.171 226.661C169.094 226.702 169.029 226.762 168.981 226.834C168.933 226.907 168.904 226.99 168.897 227.077C168.89 227.163 168.905 227.25 168.94 227.33V227.33C168.98 227.424 169.047 227.504 169.132 227.561C169.218 227.618 169.317 227.649 169.42 227.65V227.65Z" fill="#CFD1D2"/>
<path d="M165.14 234.58H177.19C177.276 234.58 177.362 234.558 177.438 234.518C177.515 234.477 177.58 234.418 177.629 234.345C177.677 234.273 177.707 234.19 177.716 234.104C177.725 234.018 177.712 233.93 177.68 233.85V233.85C177.636 233.756 177.567 233.676 177.481 233.619C177.394 233.563 177.293 233.532 177.19 233.53H165.14C165.053 233.529 164.967 233.55 164.89 233.591C164.814 233.632 164.748 233.692 164.701 233.764C164.653 233.837 164.624 233.92 164.617 234.007C164.61 234.094 164.624 234.181 164.66 234.26V234.26C164.7 234.354 164.767 234.434 164.852 234.491C164.937 234.548 165.037 234.579 165.14 234.58V234.58Z" fill="#CFD1D2"/>
<path d="M173.35 208.71L175.46 213.71H174.31L172.19 208.71H173.35Z" fill="#CFD1D2"/>
<path d="M170.84 208.71L171.23 209.65H170.79H169.15L172.64 213.69H171.39L167.75 209.46L167.43 208.71H170.84Z" fill="#CFD1D2"/>
<path d="M367.61 220.44C367.598 220.217 367.631 219.994 367.708 219.785C367.785 219.575 367.904 219.384 368.057 219.222C368.211 219.06 368.396 218.931 368.601 218.843C368.806 218.755 369.027 218.71 369.25 218.71H387.25C387.473 218.71 387.694 218.755 387.899 218.843C388.104 218.931 388.289 219.06 388.443 219.222C388.596 219.384 388.715 219.575 388.792 219.785C388.869 219.994 388.902 220.217 388.89 220.44C388.7 223.91 387.76 231.85 383.04 237.44H373.5C368.74 231.85 367.79 223.91 367.61 220.44Z" fill="#263238"/>
<path d="M381.09 218.71C381.09 218.71 390.69 206.97 388.87 181.34C374.03 196.86 378.24 218.71 378.24 218.71H381.09Z" fill="#407BFF"/>
<path style="mix-blend-mode:multiply" opacity="0.19" d="M388.87 181.3V181.39C377.25 196.09 380.51 214.33 381.39 218.25L381.08 218.67H378.23C378.23 218.67 374.03 196.86 388.87 181.3Z" fill="url(#paint0_linear_480_1159)"/>
<path d="M371.18 168.72C371.18 168.72 384.78 183.6 378.24 218.72H376.43C376.43 218.72 366.64 192.3 371.18 168.72Z" fill="#407BFF"/>
<path d="M361.5 188.3C361.5 188.3 372.82 196.59 376.5 218.68H375C375 218.68 360.31 203.87 361.5 188.3Z" fill="#407BFF"/>
<g style="mix-blend-mode:multiply" opacity="0.52">
<path d="M376.43 237.43H373.43C372.387 236.179 371.494 234.809 370.77 233.35C381.67 232.46 382.77 224.61 382.77 221.35C382.77 221.173 382.804 220.997 382.872 220.833C382.94 220.67 383.04 220.521 383.165 220.395C383.29 220.27 383.439 220.171 383.603 220.103C383.767 220.035 383.942 220 384.12 220H388.84C388.849 220.13 388.849 220.26 388.84 220.39C388.65 223.86 387.71 231.8 382.99 237.39H376.4L376.43 237.43Z" fill="#EBB12A"/>
</g>
<path d="M310.96 204.49L300.91 132.95H175.35L185.41 204.49H310.96Z" fill="#75A0EA"/>
<path opacity="0.3" d="M187.03 202.61H308.81L299.29 134.83H177.5L187.03 202.61Z" fill="#407BFF"/>
<path d="M289.59 159.15C289.261 162.037 289.544 164.96 290.42 167.73C291.189 170.284 291.022 173.028 289.95 175.47V175.53C289.796 175.869 289.772 176.253 289.883 176.609C289.993 176.965 290.231 177.268 290.55 177.46L291.12 177.75C291.424 177.877 291.693 178.075 291.905 178.327C292.118 178.579 292.267 178.879 292.34 179.2L293.22 183.2L299.92 181.91L301.77 167.07L296.2 156.74L289.59 159.15Z" fill="#E7AEA4"/>
<path d="M303.29 182.64C303.29 182.64 305.52 185.3 305.89 190.64L321.58 189.64L319.34 182.42L309.21 163.01L303.29 162.41C303.29 162.41 301.61 170.3 303.29 182.64Z" fill="#E7AEA4"/>
<path d="M293.5 184.77C293.561 185.146 293.699 185.505 293.905 185.825C294.112 186.144 294.383 186.418 294.7 186.627C295.018 186.837 295.376 186.978 295.751 187.042C296.126 187.106 296.511 187.092 296.88 187C299.88 186.24 304.03 184.47 303.56 180.5C302.83 174.37 301.94 164.2 305.9 164.5C309.86 164.8 309.2 169.5 307.43 173.21C305.66 176.92 313.16 183.38 319.37 182.49C319.29 179.486 320.259 176.547 322.11 174.18C326.45 168.18 327.52 164.58 327.76 161.27C328 157.96 326.63 153.6 322.28 152.27C320.92 148.27 313.79 141.92 293.39 148.9C292.766 149.122 292.124 149.286 291.47 149.39C289.624 149.719 287.724 149.543 285.97 148.88C285.97 148.88 285.07 154.17 287.7 157.68C288.242 158.397 288.958 158.963 289.781 159.323C290.604 159.684 291.506 159.828 292.4 159.74C296.59 159.32 298.65 161.45 299.4 164.54C300.29 168.01 301.58 179.54 298.35 181.24C296.735 182.152 294.997 182.825 293.19 183.24L293.5 184.77Z" fill="#263238"/>
<path d="M213.88 237.43H266.97V234.97H213.88V237.43Z" fill="url(#paint1_linear_480_1159)"/>
<path style="mix-blend-mode:multiply" opacity="0.44" d="M213.88 237.43H266.97V235.83H213.88V237.43Z" fill="url(#paint2_linear_480_1159)"/>
<g style="mix-blend-mode:multiply" opacity="0.3">
<path d="M267.04 342.18C261.44 323.64 254.94 288.41 254.94 288.41L263.59 289.75C265.727 304.246 268.611 318.622 272.23 332.82C272.61 335.15 272.97 337.61 273.23 339.98C271.439 341.327 269.28 342.094 267.04 342.18V342.18Z" fill="#31286A"/>
</g>
<path d="M287.29 289.63L290.42 290.63C290.648 290.705 290.859 290.825 291.039 290.984C291.219 291.143 291.365 291.337 291.468 291.554C291.571 291.771 291.629 292.007 291.638 292.247C291.647 292.487 291.607 292.726 291.52 292.95L265.8 360.37C265.658 360.741 265.395 361.054 265.055 361.259C264.714 361.464 264.314 361.549 263.92 361.5V361.5C263.658 361.468 263.407 361.378 263.185 361.236C262.962 361.095 262.774 360.906 262.633 360.683C262.492 360.46 262.403 360.209 262.371 359.947C262.34 359.686 262.367 359.42 262.45 359.17L285.04 290.76C285.113 290.538 285.23 290.333 285.383 290.156C285.536 289.979 285.722 289.834 285.931 289.729C286.14 289.624 286.367 289.561 286.601 289.544C286.834 289.527 287.068 289.556 287.29 289.63V289.63Z" fill="#727F84"/>
<path d="M313.4 288.44L310.16 289.09C309.924 289.137 309.701 289.231 309.502 289.367C309.304 289.503 309.135 289.678 309.007 289.88C308.878 290.083 308.791 290.31 308.752 290.547C308.713 290.784 308.723 291.027 308.78 291.26L326 361.26C326.094 361.648 326.316 361.993 326.63 362.239C326.943 362.486 327.331 362.62 327.73 362.62V362.62C327.993 362.619 328.253 362.56 328.491 362.447C328.728 362.334 328.938 362.17 329.106 361.966C329.273 361.763 329.393 361.525 329.458 361.27C329.522 361.015 329.53 360.748 329.48 360.49L315.48 289.81C315.379 289.356 315.105 288.96 314.717 288.704C314.329 288.448 313.857 288.354 313.4 288.44V288.44Z" fill="#727F84"/>
<path d="M334.13 289.3L330.56 290.3C330.301 290.372 330.06 290.495 329.85 290.663C329.64 290.83 329.466 291.038 329.338 291.274C329.21 291.51 329.131 291.77 329.106 292.037C329.08 292.304 329.109 292.574 329.19 292.83L354.03 369.7C354.168 370.126 354.445 370.494 354.816 370.744C355.188 370.995 355.633 371.113 356.08 371.08C356.374 371.058 356.659 370.971 356.916 370.826C357.172 370.68 357.394 370.48 357.564 370.239C357.734 369.999 357.849 369.723 357.9 369.433C357.951 369.142 357.937 368.844 357.86 368.56L336.58 290.72C336.513 290.466 336.396 290.227 336.236 290.018C336.076 289.809 335.877 289.634 335.649 289.502C335.422 289.37 335.171 289.284 334.91 289.249C334.649 289.215 334.384 289.232 334.13 289.3Z" fill="#727F84"/>
<g style="mix-blend-mode:multiply" opacity="0.26">
<path d="M309.67 190.39L305.89 190.63C305.52 185.3 303.29 182.63 303.29 182.63C303.17 181.72 303.06 180.83 302.97 179.96C304.853 181.02 306.448 182.524 307.616 184.342C308.784 186.16 309.489 188.237 309.67 190.39Z" fill="#E7AEA4"/>
</g>
<path d="M327.76 190.3C327.76 190.3 338.14 190.42 347.58 209.3C357.02 228.18 356.65 229.95 356.65 229.95C356.65 229.95 361.65 249.48 332.57 240.52L327.76 190.3Z" fill="#263238"/>
<path style="mix-blend-mode:multiply" opacity="0.33" d="M329.08 209.3C330.36 204.66 331.4 201.55 331.4 201.55C331.4 201.55 356.84 228.4 346.5 242.8C343.01 243.04 338.34 242.43 332.09 240.5L329.08 209.3Z" fill="url(#paint3_linear_480_1159)"/>
<path d="M343.5 231.66C343.439 223.811 342.38 216.002 340.35 208.42C336.96 195.59 335.98 187.71 313.48 189.23C290.98 190.75 292.6 192.23 289.48 194.38C286.97 196.14 275.83 214.82 271.64 221.95C271.154 222.774 270.451 223.448 269.608 223.899C268.765 224.351 267.814 224.562 266.86 224.51C261.08 224.2 249.28 223.58 247.64 223.67C245.46 223.79 241.71 229.48 242.56 234.44C260.96 240.97 270.08 244.44 277.05 242.44C285.19 240.04 291.11 223.21 292.97 222.59C293.47 226.79 295.33 246.73 290.73 256.59C285.64 267.48 320.99 285.59 343.5 273.29C343.22 246.9 343.5 231.66 343.5 231.66Z" fill="#263238"/>
<path style="mix-blend-mode:multiply" opacity="0.33" d="M243.33 229.08C245.56 230.47 269.11 244.72 278.96 231.7C289.31 218.03 293.61 203.99 302.54 213.96C311.47 223.93 312.27 251.29 312.06 252.4C311.92 253.14 307.66 265.1 304.89 272.84C295 268.43 288.51 261.74 290.89 256.63C295.49 246.77 293.63 226.83 293.13 222.63C291.27 223.25 285.35 240.08 277.21 242.48C270.21 244.54 261.12 241.03 242.72 234.48C242.46 232.657 242.67 230.799 243.33 229.08V229.08Z" fill="url(#paint4_linear_480_1159)"/>
<path d="M351.21 263.36C351.21 263.36 354.6 228.75 325.31 228.75C293.31 228.75 297.96 261.43 289.45 273.75C285.89 281.45 279.82 287.54 274 290.57C268.18 293.6 309.72 307.18 332.09 294.45C350.5 284 351.21 263.36 351.21 263.36Z" fill="#99BBFF"/>
<path d="M273.9 290.59C279.71 287.59 285.78 281.47 289.35 273.77C297.85 261.43 293.22 228.77 325.2 228.77C335.2 228.77 341.4 232.77 345.2 238.13C341.158 235.947 336.613 234.864 332.02 234.99C300.02 234.99 304.67 267.67 296.16 279.99C293.137 286.564 288.274 292.121 282.16 295.99C275.56 293.96 271.88 291.64 273.9 290.59Z" fill="#83A8E2"/>
<path d="M303.78 289.04C304.288 289.134 304.771 289.331 305.2 289.618C305.629 289.905 305.995 290.277 306.276 290.71C306.557 291.143 306.746 291.629 306.833 292.138C306.92 292.647 306.902 293.168 306.78 293.67L287.89 370.3C287.784 370.732 287.536 371.116 287.186 371.391C286.837 371.667 286.405 371.817 285.96 371.82C285.662 371.825 285.367 371.764 285.096 371.641C284.825 371.518 284.584 371.335 284.393 371.107C284.201 370.879 284.063 370.611 283.988 370.322C283.913 370.034 283.904 369.733 283.96 369.44L299.27 292.05C299.365 291.554 299.557 291.082 299.836 290.661C300.114 290.24 300.474 289.879 300.894 289.599C301.314 289.319 301.785 289.125 302.281 289.029C302.776 288.933 303.286 288.937 303.78 289.04V289.04Z" fill="#727F84"/>
<path d="M158.99 213.18H162.96L161.27 209.22H157.31L158.99 213.18Z" fill="#407BFF"/>
<g style="mix-blend-mode:multiply" opacity="0.1">
<path style="mix-blend-mode:multiply" opacity="0.1" d="M293.43 184.55L293.2 183.16C295.007 182.745 296.745 182.072 298.36 181.16C301.07 179.73 300.6 171.37 299.85 166.67C301.046 166.899 302.172 167.402 303.14 168.14C302.59 171.61 303.09 176.8 303.53 180.51C303.98 184.37 300.07 186.15 297.1 186.94C296.702 187.038 296.287 187.053 295.882 186.984C295.477 186.916 295.091 186.765 294.747 186.541C294.403 186.317 294.109 186.024 293.882 185.682C293.656 185.34 293.502 184.954 293.43 184.55V184.55Z" fill="url(#paint5_linear_480_1159)"/>
<path style="mix-blend-mode:multiply" opacity="0.1" d="M322.5 173.6L322.11 174.13C320.259 176.497 319.29 179.436 319.37 182.44C313.16 183.33 305.65 176.87 307.43 173.16C307.57 172.87 307.7 172.57 307.82 172.27C312.7 175.78 317.99 175.3 322.5 173.6Z" fill="url(#paint6_linear_480_1159)"/>
</g>
<path d="M247.735 161.193C249.848 158.926 249.445 155.117 246.835 152.684C244.225 150.251 240.397 150.116 238.284 152.383C236.172 154.649 236.575 158.458 239.184 160.891C241.794 163.324 245.622 163.459 247.735 161.193Z" fill="#F0F1F1"/>
<path d="M234.06 171.07H256.68C256.795 171.071 256.908 171.048 257.013 171.001C257.117 170.954 257.211 170.885 257.286 170.798C257.361 170.711 257.416 170.609 257.448 170.499C257.48 170.389 257.487 170.273 257.47 170.16L257.37 169.41C257.341 169.22 257.246 169.046 257.102 168.92C256.957 168.793 256.772 168.723 256.58 168.72H233.95C233.836 168.72 233.723 168.745 233.619 168.793C233.515 168.84 233.423 168.909 233.348 168.996C233.273 169.082 233.218 169.183 233.185 169.292C233.153 169.402 233.144 169.517 233.16 169.63L233.26 170.38C233.291 170.571 233.388 170.745 233.534 170.871C233.68 170.997 233.867 171.068 234.06 171.07V171.07Z" fill="#F0F1F1"/>
<path d="M234.83 176.59H257.5C257.615 176.589 257.728 176.565 257.832 176.517C257.936 176.47 258.029 176.401 258.105 176.315C258.181 176.229 258.237 176.128 258.271 176.018C258.304 175.909 258.315 175.794 258.3 175.68L258.19 174.93C258.164 174.739 258.069 174.564 257.924 174.437C257.779 174.311 257.593 174.241 257.4 174.24H234.72C234.606 174.24 234.494 174.265 234.39 174.313C234.286 174.36 234.194 174.429 234.119 174.516C234.044 174.602 233.988 174.703 233.956 174.812C233.923 174.922 233.915 175.037 233.93 175.15L234.03 175.9C234.061 176.091 234.158 176.265 234.305 176.391C234.451 176.517 234.637 176.588 234.83 176.59Z" fill="#F0F1F1"/>
<path d="M244.5 185.3H250.5C250.614 185.3 250.727 185.275 250.831 185.227C250.935 185.18 251.027 185.111 251.102 185.024C251.177 184.938 251.232 184.837 251.265 184.728C251.297 184.618 251.306 184.503 251.29 184.39L251.18 183.64C251.154 183.449 251.059 183.274 250.914 183.147C250.769 183.021 250.583 182.951 250.39 182.95H244.39C244.276 182.95 244.163 182.975 244.058 183.023C243.954 183.07 243.861 183.139 243.786 183.225C243.71 183.311 243.654 183.412 243.62 183.522C243.586 183.631 243.576 183.746 243.59 183.86L243.7 184.61C243.727 184.803 243.823 184.979 243.97 185.106C244.117 185.233 244.306 185.302 244.5 185.3V185.3Z" fill="#407BFF"/>
<defs>
<linearGradient id="paint0_linear_480_1159" x1="389.7" y1="172.58" x2="372.84" y2="237.37" gradientUnits="userSpaceOnUse">
<stop stop-color="#8FCEF8"/>
<stop offset="0.23" stop-color="#8ECBF7"/>
<stop offset="0.39" stop-color="#8BC2F2"/>
<stop offset="0.53" stop-color="#85B2EA"/>
<stop offset="0.66" stop-color="#7D9CDF"/>
<stop offset="0.78" stop-color="#7380D0"/>
<stop offset="0.9" stop-color="#665EBF"/>
<stop offset="0.99" stop-color="#5939AC"/>
</linearGradient>
<linearGradient id="paint1_linear_480_1159" x1="252.59" y1="207.95" x2="225.79" y2="270.14" gradientUnits="userSpaceOnUse">
<stop stop-color="#865BEC"/>
<stop offset="0.99" stop-color="#A668F5"/>
</linearGradient>
<linearGradient id="paint2_linear_480_1159" x1="-58341.7" y1="610.295" x2="-58343.2" y2="724.255" gradientUnits="userSpaceOnUse">
<stop stop-color="#865BEC"/>
<stop offset="0.99" stop-color="#A668F5"/>
</linearGradient>
<linearGradient id="paint3_linear_480_1159" x1="348.96" y1="222.18" x2="329.08" y2="222.18" gradientUnits="userSpaceOnUse">
<stop stop-color="#8E71F1"/>
<stop offset="1" stop-color="#694DDE"/>
</linearGradient>
<linearGradient id="paint4_linear_480_1159" x1="72950.2" y1="15375.3" x2="82479.5" y2="21882.3" gradientUnits="userSpaceOnUse">
<stop stop-color="#8E71F1"/>
<stop offset="1" stop-color="#694DDE"/>
</linearGradient>
<linearGradient id="paint5_linear_480_1159" x1="301.72" y1="148.3" x2="298.51" y2="180.99" gradientUnits="userSpaceOnUse">
<stop stop-color="#3F2D5C"/>
<stop offset="1" stop-color="#6C4C84"/>
</linearGradient>
<linearGradient id="paint6_linear_480_1159" x1="16498.4" y1="1955.2" x2="16521.3" y2="2303.81" gradientUnits="userSpaceOnUse">
<stop stop-color="#3F2D5C"/>
<stop offset="1" stop-color="#6C4C84"/>
</linearGradient>
</defs>
</svg>
