<?xml version="1.0" encoding="UTF-8" standalone="no"?>
<svg width="64px" height="54px" viewBox="0 0 64 54" version="1.1" xmlns="http://www.w3.org/2000/svg" xmlns:xlink="http://www.w3.org/1999/xlink">
    <!-- Generator: Sketch 3.6.1 (26313) - http://www.bohemiancoding.com/sketch -->
    <title>Wallet</title>
    <desc>Created with Sketch.</desc>
    <defs></defs>
    <g id="Page-1" stroke="none" stroke-width="1" fill="none" fill-rule="evenodd">
        <g id="Finance" transform="translate(-316.000000, -377.000000)" fill="#4573E3">
            <g id="Wallet" transform="translate(316.000000, 377.000000)">
                <path d="M51,4 C52.654,4 54,5.346 54,7 L54,10 L5,10 C3.346,10 2,8.654 2,7 C2,5.346 3.346,4 5,4 L37,4 L43,2 L5,2 C2.25,2 0,4.25 0,7 L0,7 C0,9.75 2.25,12 5,12 L56,12 L56,7 C56,4.25 53.75,2 51,2 L46,2 L47,4 L51,4" id="Fill-1"></path>
                <path d="M46.9996,6 L49.9996,6 C51.0996,6 51.9996,6.9 51.9996,8 L51.9996,10 L47.9996,10 L46.9996,6 Z" id="Fill-3" fill-opacity="0.5"></path>
                <path d="M15.9996,10 L1.9996,10 L1.9996,8 C1.9996,6.9 2.8996,6 3.9996,6 L30.0006,6 L15.9996,10 Z" id="Fill-5" fill-opacity="0.5"></path>
                <path d="M61,26 L55,26 C52.25,26 50,28.25 50,31 L50,33 C50,35.75 52.25,38 55,38 L61,38 C62.65,38 64,36.65 64,35 L64,29 C64,27.35 62.65,26 61,26 M61,28 C61.542,28 62,28.458 62,29 L62,35 C62,35.542 61.542,36 61,36 L55,36 C53.346,36 52,34.654 52,33 L52,31 C52,29.346 53.346,28 55,28 L61,28" id="Fill-7"></path>
                <path d="M58,49 C58,50.654 56.654,52 55,52 L5,52 C3.346,52 2,50.654 2,49 L2,11 L0,7 L0,49 C0,51.75 2.25,54 5,54 L55,54 C57.75,54 60,51.75 60,49 L60,37 L58,37 L58,49 Z" id="Fill-9"></path>
                <path d="M55,10 L53,10 L53,12 L55,12 C56.654,12 58,13.346 58,15 L58,28 L60,28 L60,15 C60,12.25 57.75,10 55,10" id="Fill-11"></path>
                <path d="M56,30 C54.895,30 54,30.895 54,32 C54,33.105 54.895,34 56,34 C57.105,34 58,33.105 58,32 C58,30.895 57.105,30 56,30 M56,31 C56.551,31 57,31.449 57,32 C57,32.551 56.551,33 56,33 C55.449,33 55,32.551 55,32 C55,31.449 55.449,31 56,31" id="Fill-13"></path>
                <path d="M4.5,49 L4.5,49 C4.224,49 4,48.776 4,48.5 L4,14.5 C4,14.224 4.224,14 4.5,14 L4.5,14 C4.776,14 5,14.224 5,14.5 L5,48.5 C5,48.776 4.776,49 4.5,49" id="Fill-15" fill-opacity="0.5"></path>
                <path d="M47.0003,0 L6.0003,12 L50.0003,12 L47.0003,0 Z M45.5643,2.504 L47.4383,10 L19.9533,10 L45.5643,2.504 Z" id="Fill-17"></path>
            </g>
        </g>
    </g>
</svg>