<svg xmlns="http://www.w3.org/2000/svg" viewBox="0 0 493 422"><defs><style>.cls-1{fill:#ebebeb;}.cls-2{fill:#f5f5f5;}.cls-3{fill:#e6e6e6;}.cls-4{fill:#e0e0e0;}.cls-5{fill:#f0f0f0;}.cls-6{fill:#fafafa;}.cls-11,.cls-12,.cls-14,.cls-15,.cls-16,.cls-17,.cls-22,.cls-23,.cls-7{fill:#fff;}.cls-13,.cls-8{fill:#407bff;}.cls-22,.cls-23,.cls-9{opacity:0.2;}.cls-14,.cls-15,.cls-23,.cls-9{isolation:isolate;}.cls-10{fill:#263238;}.cls-11{opacity:0.6;}.cls-12{opacity:0.7;}.cls-13,.cls-16{opacity:0.3;}.cls-14,.cls-17{opacity:0.4;}.cls-15{opacity:0.1;}.cls-18{fill:#e4897b;}.cls-19{fill:#aa473d;}.cls-20{fill:none;stroke:#263238;stroke-linecap:round;stroke-linejoin:round;stroke-width:0.72px;}.cls-21{fill:#ebb376;}.cls-24{fill:#2e3b61;}.cls-25{fill:#ebaf7f;}.cls-26{fill:#cd8f5d;}.cls-27{fill:#47555b;}</style></defs><title>company-login</title><g id="Character_1" data-name="Character 1"><rect class="cls-1" x="-3.5" y="352.14" width="500" height="0.25"/><rect class="cls-1" x="413.28" y="368.24" width="33.12" height="0.25"/><rect class="cls-1" x="319.03" y="370.95" width="8.69" height="0.25"/><rect class="cls-1" x="393.09" y="358.95" width="19.19" height="0.25"/><rect class="cls-1" x="48.96" y="360.63" width="43.19" height="0.25"/><rect class="cls-1" x="101.06" y="360.63" width="6.33" height="0.25"/><rect class="cls-1" x="127.97" y="364.85" width="93.68" height="0.25"/><path class="cls-1" d="M233.51,307.54H40.42a5.71,5.71,0,0,1-5.71-5.71V30.4a5.71,5.71,0,0,1,5.71-5.7H233.51a5.71,5.71,0,0,1,5.71,5.7V301.83A5.71,5.71,0,0,1,233.51,307.54ZM40.42,25A5.46,5.46,0,0,0,35,30.4V301.83a5.47,5.47,0,0,0,5.46,5.46H233.51a5.47,5.47,0,0,0,5.46-5.46V30.4A5.46,5.46,0,0,0,233.51,25Z"/><path class="cls-1" d="M449.81,307.54H256.71a5.72,5.72,0,0,1-5.71-5.71V30.4a5.72,5.72,0,0,1,5.71-5.7h193.1a5.71,5.71,0,0,1,5.71,5.7V301.83A5.71,5.71,0,0,1,449.81,307.54ZM256.71,25a5.46,5.46,0,0,0-5.46,5.45V301.83a5.47,5.47,0,0,0,5.46,5.46h193.1a5.47,5.47,0,0,0,5.46-5.46V30.4A5.46,5.46,0,0,0,449.81,25Z"/><path class="cls-2" d="M313,252.2H433.19a8.25,8.25,0,0,1-7.88,8.23c-12.91.58-32.78,2.62-39.07,9.77-11.75,13.31-10.61,60.09,3.46,70.93,4.4,3.39,17.26,10.14,17.26,10.14H339.27s12-6.88,16.19-10.14c14-10.93,14.39-57.68,2.59-70.93-6.05-6.8-24.67-9-37.16-9.69A8.32,8.32,0,0,1,313,252.2Z"/><path class="cls-3" d="M418.3,260.86c-12.2,1-26.82,3.39-32.06,9.34a23.6,23.6,0,0,0-4,6.88H362.09a24.22,24.22,0,0,0-4-6.88c-5.26-5.91-20-8.35-32-9.34Z"/><polygon class="cls-1" points="364.22 252.26 365.86 233.58 342.17 233.58 340.54 252.26 364.22 252.26"/><polygon class="cls-4" points="364.22 252.26 365.86 233.58 367.13 233.58 365.5 252.26 364.22 252.26"/><polygon class="cls-5" points="361.97 250.35 363.27 235.49 344.42 235.49 343.12 250.35 361.97 250.35"/><polygon class="cls-6" points="360.53 249.13 361.61 236.71 345.87 236.71 344.78 249.13 360.53 249.13"/><polygon class="cls-3" points="371.9 252.2 395.69 252.2 393.05 222.03 369.26 222.03 371.9 252.2"/><polygon class="cls-4" points="371.9 252.2 370.77 252.2 368.13 222.03 369.26 222.03 371.9 252.2"/><polygon class="cls-5" points="374.06 249.12 393 249.12 390.9 225.1 371.96 225.1 374.06 249.12"/><polygon class="cls-6" points="375.44 247.14 391.27 247.14 389.51 227.08 373.69 227.08 375.44 247.14"/><path class="cls-1" d="M383.44,236.11h0a2.77,2.77,0,0,1-3.9,0h0a2.76,2.76,0,0,1,0-3.89h0a2.75,2.75,0,0,1,3.9,0h0A2.76,2.76,0,0,1,383.44,236.11Z"/><path class="cls-5" d="M382.27,239.48h0a2,2,0,0,1,2.85,0h0a2,2,0,0,1-1.42,3.44h0A2,2,0,0,1,382.27,239.48Z"/><rect class="cls-4" x="78.23" y="93.72" width="112.19" height="124.08" transform="translate(268.64 311.52) rotate(180)"/><rect class="cls-5" x="74.65" y="93.72" width="116.36" height="124.08" transform="translate(265.65 311.52) rotate(180)"/><rect class="cls-7" x="79.57" y="97.68" width="106.7" height="114.42" transform="translate(265.84 309.78) rotate(180)"/><rect class="cls-4" x="79.57" y="97.68" width="3.09" height="114.42" transform="translate(162.22 309.78) rotate(180)"/><rect class="cls-4" x="132.89" y="129.39" width="3.09" height="104.22" transform="translate(-47.07 315.93) rotate(-90)"/><rect class="cls-5" x="79.57" y="174.78" width="108.36" height="5.18" transform="translate(267.49 354.74) rotate(180)"/><path class="cls-3" d="M374.89,115s1-6.6-3.81-10.83-4.39-6.74-3-7.07,2.64,3.9,4.76,5.06c0,0,.07-6-2.08-8.25s-3.28-7.94-1.23-8,2.25,3.4,2.68,5.88,2.7,6,2.7,6,.44-5.39,1.83-7.61-2.31-7.3-.88-9.52,4,2,3.75,6.77-3.38,9.83-2.64,14.8c0,0,1.4-3.49,2.65-3.8s2.53-2.63,3.37-3.49,1.91,2.11,0,4.86-6.76,10.11-6,16.06Z"/><path class="cls-2" d="M372,112l-1.58,9.89a5,5,0,0,0,5,5.82h1.68a5,5,0,0,0,5-5.82L380.47,112Z"/><rect class="cls-3" x="284.44" y="124.02" width="111.4" height="5.72"/><rect class="cls-5" x="289.57" y="102.92" width="4.91" height="21.1"/><rect class="cls-5" x="313.3" y="102.92" width="4.91" height="21.1"/><rect class="cls-5" x="342.07" y="102.66" width="4.91" height="21.1" transform="translate(-14.22 60.16) rotate(-9.78)"/><rect class="cls-5" x="295.65" y="105.7" width="4.91" height="18.32"/><rect class="cls-5" x="306.93" y="105.7" width="4.91" height="18.32"/><rect class="cls-5" x="335.41" y="105.7" width="4.91" height="18.32"/><rect class="cls-5" x="321.79" y="105.39" width="4.91" height="18.32" transform="translate(-17.13 73.05) rotate(-12.53)"/><rect class="cls-5" x="302.35" y="101.88" width="2.45" height="22.15"/><rect class="cls-5" x="331.54" y="101.88" width="2.45" height="22.15"/><rect class="cls-3" x="284.44" y="166.75" width="111.4" height="5.72" transform="translate(680.29 339.23) rotate(180)"/><rect class="cls-5" x="385.81" y="145.65" width="4.91" height="21.1" transform="translate(776.53 312.4) rotate(180)"/><rect class="cls-5" x="362.08" y="145.65" width="4.91" height="21.1" transform="translate(729.07 312.4) rotate(180)"/><rect class="cls-5" x="333.31" y="145.39" width="4.91" height="21.1" transform="translate(640.17 366.63) rotate(-170.22)"/><rect class="cls-5" x="379.73" y="148.43" width="4.91" height="18.32" transform="translate(764.37 315.19) rotate(180)"/><rect class="cls-5" x="368.45" y="148.43" width="4.91" height="18.32" transform="translate(741.81 315.19) rotate(180)"/><rect class="cls-5" x="339.98" y="148.43" width="4.91" height="18.32" transform="translate(684.86 315.19) rotate(180)"/><rect class="cls-5" x="353.59" y="148.12" width="4.91" height="18.32" transform="translate(669.5 388.03) rotate(-167.47)"/><rect class="cls-5" x="375.49" y="144.61" width="2.45" height="22.15" transform="translate(753.43 311.36) rotate(180)"/><rect class="cls-5" x="346.29" y="144.61" width="2.45" height="22.15" transform="translate(695.04 311.36) rotate(180)"/><rect class="cls-2" x="295.13" y="150.05" width="23.91" height="16.51" transform="translate(614.18 316.62) rotate(180)"/><ellipse id="_Path_" data-name="&lt;Path&gt;" class="cls-2" cx="246.5" cy="385.98" rx="193.89" ry="11.32"/><path class="cls-8" d="M329,361s-5-10.8.7-21.45,7.3-13.17,3.7-15.35-5.27,8.52-5.27,8.52a24,24,0,0,1-.53-15.07c2.51-7.7,4.09-20.26.66-21.6s-.65,15.66-3.63,21.45a49.82,49.82,0,0,1-2.91-12.64c-.41-6.19.23-16.08-2.48-18.61s-4.44-.78-1.78,12.88a142.9,142.9,0,0,1,2.64,24.76s-5.87-17.92-9.82-18.44-3.94,5.28-.56,10.32,9.89,14.05,10.95,18.69c0,0-6.45-13.49-12.25-9.36s5.05,12.28,9.89,15.23,8.2,21.39,8.2,21.39Z"/><path class="cls-9" d="M329,361s-5-10.8.7-21.45,7.3-13.17,3.7-15.35-5.27,8.52-5.27,8.52a24,24,0,0,1-.53-15.07c2.51-7.7,4.09-20.26.66-21.6s-.65,15.66-3.63,21.45a49.82,49.82,0,0,1-2.91-12.64c-.41-6.19.23-16.08-2.48-18.61s-4.44-.78-1.78,12.88a142.9,142.9,0,0,1,2.64,24.76s-5.87-17.92-9.82-18.44-3.94,5.28-.56,10.32,9.89,14.05,10.95,18.69c0,0-6.45-13.49-12.25-9.36s5.05,12.28,9.89,15.23,8.2,21.39,8.2,21.39Z"/><path class="cls-8" d="M325.06,365.41s4.82-10.88-1-21.45-7.46-13-3.88-15.29,5.36,8.44,5.36,8.44a24,24,0,0,0,.35-15.07c-2.6-7.67-4.33-20.2-.91-21.6s.84,15.65,3.88,21.4a49.65,49.65,0,0,0,2.76-12.68c.34-6.2-.42-16.07,2.26-18.65s4.43-.85,1.93,12.85a142.45,142.45,0,0,0-2.34,24.81s5.66-18,9.6-18.59,4,5.22.68,10.3-9.71,14.2-10.73,18.86c0,0,6.29-13.58,12.14-9.54s-4.9,12.35-9.7,15.37-7.94,21.51-7.94,21.51Z"/><polygon class="cls-10" points="347.3 357.65 307.46 357.65 310.69 386.16 344.08 386.16 347.3 357.65"/><rect class="cls-9" x="212.51" y="74.14" width="215.52" height="191.98" rx="2.48" ry="2.48"/><rect class="cls-8" x="204.36" y="70.6" width="215.52" height="191.98" rx="2.48" ry="2.48"/><path class="cls-11" d="M204.36,87.69V260.1a2.3,2.3,0,0,0,2,2.48H417.82a2.3,2.3,0,0,0,2.06-2.48V87.69Z"/><rect class="cls-7" x="206.91" y="97.85" width="210.41" height="152.27"/><ellipse class="cls-11" cx="412.84" cy="78.64" rx="3.16" ry="3.81"/><ellipse class="cls-11" cx="402.49" cy="78.64" rx="3.16" ry="3.81"/><path class="cls-11" d="M395.29,78.64c0,2.1-1.41,3.81-3.16,3.81S389,80.74,389,78.64s1.41-3.81,3.15-3.81S395.29,76.54,395.29,78.64Z"/><polygon class="cls-8" points="251.74 115.63 251.74 154.91 241.64 167.09 219.27 167.09 219.27 115.63 251.74 115.63"/><polygon class="cls-12" points="251.74 115.63 251.74 154.91 241.64 167.09 219.27 167.09 219.27 115.63 251.74 115.63"/><polygon class="cls-13" points="251.74 154.91 241.64 167.09 241.64 154.91 251.74 154.91"/><rect class="cls-13" x="224.31" y="123.05" width="22.4" height="1.47"/><rect class="cls-13" x="224.31" y="128.64" width="22.4" height="1.47"/><rect class="cls-13" x="224.31" y="134.23" width="22.4" height="1.48"/><rect class="cls-13" x="224.31" y="139.82" width="22.4" height="1.48"/><rect class="cls-13" x="224.31" y="145.41" width="16.61" height="1.48"/><polygon class="cls-8" points="303.24 115.63 303.24 154.91 293.14 167.09 270.77 167.09 270.77 115.63 303.24 115.63"/><polygon class="cls-12" points="303.24 115.63 303.24 154.91 293.14 167.09 270.77 167.09 270.77 115.63 303.24 115.63"/><polygon class="cls-13" points="303.24 154.91 293.14 167.09 293.14 154.91 303.24 154.91"/><rect class="cls-13" x="275.8" y="123.05" width="22.4" height="1.47"/><rect class="cls-13" x="275.8" y="128.64" width="22.4" height="1.47"/><rect class="cls-13" x="275.8" y="134.23" width="22.4" height="1.48"/><rect class="cls-13" x="275.8" y="139.82" width="22.4" height="1.48"/><rect class="cls-13" x="275.8" y="145.41" width="16.61" height="1.48"/><polygon class="cls-8" points="354.74 115.63 354.74 154.91 344.64 167.09 322.27 167.09 322.27 115.63 354.74 115.63"/><polygon class="cls-12" points="354.74 115.63 354.74 154.91 344.64 167.09 322.27 167.09 322.27 115.63 354.74 115.63"/><polygon class="cls-13" points="354.74 154.91 344.64 167.09 344.64 154.91 354.74 154.91"/><rect class="cls-13" x="327.3" y="123.05" width="22.4" height="1.47"/><rect class="cls-13" x="327.3" y="128.64" width="22.4" height="1.47"/><rect class="cls-13" x="327.3" y="134.23" width="22.4" height="1.48"/><rect class="cls-13" x="327.3" y="139.82" width="22.4" height="1.48"/><rect class="cls-13" x="327.3" y="145.41" width="16.61" height="1.48"/><polygon class="cls-8" points="406.24 115.63 406.24 154.91 396.13 167.09 373.77 167.09 373.77 115.63 406.24 115.63"/><polygon class="cls-12" points="406.24 115.63 406.24 154.91 396.13 167.09 373.77 167.09 373.77 115.63 406.24 115.63"/><polygon class="cls-13" points="406.24 154.91 396.13 167.09 396.13 154.91 406.24 154.91"/><rect class="cls-13" x="378.8" y="123.05" width="22.4" height="1.47"/><rect class="cls-13" x="378.8" y="128.64" width="22.4" height="1.47"/><rect class="cls-13" x="378.8" y="134.23" width="22.4" height="1.48"/><rect class="cls-13" x="378.8" y="139.82" width="22.4" height="1.48"/><rect class="cls-13" x="378.8" y="145.41" width="16.61" height="1.48"/><polygon class="cls-8" points="251.74 183.63 251.74 222.91 241.64 235.09 219.27 235.09 219.27 183.63 251.74 183.63"/><polygon class="cls-12" points="251.74 183.63 251.74 222.91 241.64 235.09 219.27 235.09 219.27 183.63 251.74 183.63"/><polygon class="cls-13" points="251.74 222.91 241.64 235.09 241.64 222.91 251.74 222.91"/><rect class="cls-13" x="224.31" y="191.05" width="22.4" height="1.47"/><rect class="cls-13" x="224.31" y="196.64" width="22.4" height="1.47"/><rect class="cls-13" x="224.31" y="202.23" width="22.4" height="1.48"/><rect class="cls-13" x="224.31" y="207.82" width="22.4" height="1.48"/><rect class="cls-13" x="224.31" y="213.41" width="16.61" height="1.47"/><polygon class="cls-8" points="303.24 183.63 303.24 222.91 293.14 235.09 270.77 235.09 270.77 183.63 303.24 183.63"/><polygon class="cls-12" points="303.24 183.63 303.24 222.91 293.14 235.09 270.77 235.09 270.77 183.63 303.24 183.63"/><polygon class="cls-13" points="303.24 222.91 293.14 235.09 293.14 222.91 303.24 222.91"/><rect class="cls-13" x="275.8" y="191.05" width="22.4" height="1.47"/><rect class="cls-13" x="275.8" y="196.64" width="22.4" height="1.47"/><rect class="cls-13" x="275.8" y="202.23" width="22.4" height="1.48"/><rect class="cls-13" x="275.8" y="207.82" width="22.4" height="1.48"/><rect class="cls-13" x="275.8" y="213.41" width="16.61" height="1.47"/><polygon class="cls-8" points="354.74 183.63 354.74 222.91 344.64 235.09 322.27 235.09 322.27 183.63 354.74 183.63"/><polygon class="cls-12" points="354.74 183.63 354.74 222.91 344.64 235.09 322.27 235.09 322.27 183.63 354.74 183.63"/><polygon class="cls-13" points="354.74 222.91 344.64 235.09 344.64 222.91 354.74 222.91"/><rect class="cls-13" x="327.3" y="191.05" width="22.4" height="1.47"/><rect class="cls-13" x="327.3" y="196.64" width="22.4" height="1.47"/><rect class="cls-13" x="327.3" y="202.23" width="22.4" height="1.48"/><rect class="cls-13" x="327.3" y="207.82" width="22.4" height="1.48"/><rect class="cls-13" x="327.3" y="213.41" width="16.61" height="1.47"/><polygon class="cls-8" points="406.24 183.63 406.24 222.91 396.13 235.09 373.77 235.09 373.77 183.63 406.24 183.63"/><polygon class="cls-12" points="406.24 183.63 406.24 222.91 396.13 235.09 373.77 235.09 373.77 183.63 406.24 183.63"/><polygon class="cls-13" points="406.24 222.91 396.13 235.09 396.13 222.91 406.24 222.91"/><rect class="cls-13" x="378.8" y="191.05" width="22.4" height="1.47"/><rect class="cls-13" x="378.8" y="196.64" width="22.4" height="1.47"/><rect class="cls-13" x="378.8" y="202.23" width="22.4" height="1.48"/><rect class="cls-13" x="378.8" y="207.82" width="22.4" height="1.48"/><rect class="cls-13" x="378.8" y="213.41" width="16.61" height="1.47"/><path class="cls-8" d="M213,255.37H188.72v-.93h5.47a1.58,1.58,0,0,0,1.54-1.3l2.45-14.58.48-2.87H207l7.43,17.52A1.55,1.55,0,0,1,213,255.37Z"/><path class="cls-14" d="M213,255.37H188.72v-.93h5.47a1.58,1.58,0,0,0,1.54-1.3l2.45-14.58.48-2.87H207l7.43,17.52A1.55,1.55,0,0,1,213,255.37Z"/><path class="cls-9" d="M213,254.44h-18.8a1.58,1.58,0,0,0,1.54-1.3l2.45-14.58h8.7l6.61,15.11A.55.55,0,0,1,213,254.44Z"/><path class="cls-8" d="M226,241.06H177.51a.71.71,0,0,1-.72-.88l6.89-36.43a1.11,1.11,0,0,1,1-.87h48.48a.7.7,0,0,1,.71.87L227,240.18A1.12,1.12,0,0,1,226,241.06Z"/><path class="cls-14" d="M226,241.06H177.51a.71.71,0,0,1-.72-.88l6.89-36.43a1.11,1.11,0,0,1,1-.87h48.48a.7.7,0,0,1,.71.87L227,240.18A1.12,1.12,0,0,1,226,241.06Z"/><path class="cls-10" d="M225,241.06H176.51a.71.71,0,0,1-.72-.88l6.89-36.43a1.11,1.11,0,0,1,1-.87h48.48a.7.7,0,0,1,.71.87L226,240.18A1.12,1.12,0,0,1,225,241.06Z"/><polygon class="cls-8" points="224.35 238.83 177.99 238.83 184.37 205.11 230.72 205.11 224.35 238.83"/><path class="cls-8" d="M143.55,255.37v-1.13l18.66-3.78h36.51a2.46,2.46,0,0,1,2.45,2.46h0a2.45,2.45,0,0,1-2.45,2.45Z"/><path class="cls-14" d="M201.17,252.92a2.45,2.45,0,0,1-.71,1.73,2.48,2.48,0,0,1-1.74.72H143.55v-1.13l18.67-3.78h36.5A2.45,2.45,0,0,1,201.17,252.92Z"/><path class="cls-14" d="M201.17,252.92a2.45,2.45,0,0,1-.71,1.73,2.48,2.48,0,0,1-1.74.72H176.55v-1.13l18.67-3.78h3.5A2.45,2.45,0,0,1,201.17,252.92Z"/><polygon class="cls-10" points="214.51 386.16 219.5 386.16 228.48 261.22 221.85 261.22 214.51 386.16"/><polygon class="cls-15" points="214.51 386.16 219.51 386.16 228.04 267.43 228.48 261.42 221.85 261.42 221.5 267.43 214.51 386.16"/><polygon class="cls-9" points="221.5 267.13 228.04 267.13 228.48 261.42 221.85 261.42 221.5 267.13"/><polygon class="cls-10" points="177.86 386.16 182.85 386.16 183.67 261.22 177.04 261.22 177.86 386.16"/><polygon class="cls-15" points="177.04 261.42 177.17 281.58 177.85 386.16 182.85 386.16 183.53 281.58 183.66 261.42 177.04 261.42"/><polygon class="cls-9" points="177.04 261.42 177.17 281.8 183.53 281.8 183.66 261.42 177.04 261.42"/><polygon class="cls-10" points="124.83 386.16 129.82 386.16 138.8 261.22 132.17 261.22 124.83 386.16"/><polygon class="cls-15" points="124.83 386.16 129.82 386.16 138.36 267.43 138.8 261.42 132.17 261.42 131.81 267.43 124.83 386.16"/><polygon class="cls-9" points="131.81 267.13 138.36 267.13 138.8 261.42 132.17 261.42 131.81 267.13"/><polygon class="cls-10" points="271.65 386.16 276.64 386.16 269.3 261.22 262.68 261.22 271.65 386.16"/><polygon class="cls-15" points="262.68 261.42 263.12 267.43 271.65 386.16 276.64 386.16 269.66 267.43 269.3 261.42 262.68 261.42"/><polygon class="cls-9" points="269.3 261.42 262.68 261.42 263.12 267.13 269.66 267.13 269.3 261.42"/><path class="cls-8" d="M129.08,258.09H272.39a2.16,2.16,0,0,1,2.16,2.16v4.1a0,0,0,0,1,0,0H126.92a0,0,0,0,1,0,0v-4.1A2.16,2.16,0,0,1,129.08,258.09Z" transform="translate(401.47 522.44) rotate(180)"/><path class="cls-14" d="M129.08,258.09H272.39a2.16,2.16,0,0,1,2.16,2.16v4.1a0,0,0,0,1,0,0H126.92a0,0,0,0,1,0,0v-4.1A2.16,2.16,0,0,1,129.08,258.09Z" transform="translate(401.47 522.44) rotate(180)"/><rect class="cls-9" x="126.92" y="258.09" width="147.64" height="3.13" transform="translate(401.47 519.31) rotate(180)"/><path class="cls-8" d="M123.82,258.91H277.65a1.76,1.76,0,0,0,1.76-1.77h0a1.76,1.76,0,0,0-1.76-1.76H123.82a1.76,1.76,0,0,0-1.76,1.76h0A1.76,1.76,0,0,0,123.82,258.91Z"/><path class="cls-14" d="M123.82,258.91H277.65a1.76,1.76,0,0,0,1.76-1.77h0a1.76,1.76,0,0,0-1.76-1.76H123.82a1.76,1.76,0,0,0-1.76,1.76h0A1.76,1.76,0,0,0,123.82,258.91Z"/><rect class="cls-8" x="128.65" y="130.13" width="29.8" height="29.8" rx="4.12" ry="4.12" transform="translate(287.1 290.07) rotate(180)"/><polygon class="cls-8" points="141.22 158.82 143.55 168.85 145.88 158.82 141.22 158.82"/><path class="cls-16" d="M143.29,154a17.71,17.71,0,0,1-8.62-14.55v-.32l8.87-3.77,8.87,3.77v.32A17.65,17.65,0,0,1,143.81,154l-.26.16Z"/><path class="cls-11" d="M143.55,135.88l8.37,3.57a17,17,0,0,1-8.37,14.1Z"/><path class="cls-17" d="M143.55,135.88l-8.38,3.57a17,17,0,0,0,8.38,14.1Z"/><g id="_Group_" data-name="&lt;Group&gt;"><path class="cls-18" d="M135.5,248.85l7,1.05a27,27,0,0,1,4.88-1.05,32.94,32.94,0,0,1,5.4,0s3.17,1.19,3.17,4.22c0,0-7.39,2-10.22.79l-10.22-.79Z"/><path class="cls-9" d="M135.5,248.85l7,1.05a27,27,0,0,1,4.88-1.05,32.94,32.94,0,0,1,5.4,0s3.17,1.19,3.17,4.22c0,0-7.39,2-10.22.79l-10.22-.79Z"/><path class="cls-19" d="M152.84,201.58a18.08,18.08,0,0,0,.84,4.24,2.34,2.34,0,0,1-2.44,0Z"/><path class="cls-10" d="M155.57,199.59c-.27.64-.75,1.06-1.08.93s-.36-.77-.1-1.42.75-1.06,1.08-.93S155.83,198.94,155.57,199.59Z"/><path class="cls-20" d="M157.21,197a4.43,4.43,0,0,0-3.9-.31"/><path class="cls-18" d="M150.89,207c-.23.28-.46.55-.71.8a9.94,9.94,0,0,1-5.19,2.85,9.73,9.73,0,0,1-1.52.2,9,9,0,0,1-7.23-2.9,8.89,8.89,0,0,1-1.86-3.09c-1.79-4.8,0-8.59,2.59-15.23a9.75,9.75,0,0,1,16.26-3.32C158.41,191.79,154.93,201.83,150.89,207Z"/><path class="cls-9" d="M145,210.67a9.73,9.73,0,0,1-1.52.2,9,9,0,0,1-7.23-2.9,10.68,10.68,0,0,1,2.15-1.67A14,14,0,0,1,145,210.67Z"/><path class="cls-18" d="M123.43,210.92c.66,4.69,10.9,6.44,10.9,6.44s5,2.3,5.26.29c-2.09-2.42-2.32-4.53-1.6-6.38a9.1,9.1,0,0,1,2.06-3,19.62,19.62,0,0,1,1.49-1.38l-3.13-12.82C136.16,199,128.47,210.23,123.43,210.92Z"/><path class="cls-10" d="M152.65,182.7s2.19-.27,3.87,3.81c1.41,3.44-1.92,4.18-1.77,7.83s-3.2,5.68-3.2,5.68-2.8,2.42-5.19,1.11c0,0-3.12,1.53-3.94,4.2s-5.65-2.15-10-1.42c0,0-2.95-2.75-2.73-9.43a23.08,23.08,0,0,1,2.1-8.38,11.38,11.38,0,0,1,6.24-6.2C143,177.68,151.72,179.37,152.65,182.7Z"/><path class="cls-18" d="M145.76,199.16a4.62,4.62,0,0,0,.86,3.86c1.06,1.15,2.77-.32,3.46-2.35.6-1.81.81-4.64-.75-5S146.09,197.21,145.76,199.16Z"/><path class="cls-10" d="M146.86,214.79q-2.15,6-3.84,11.5c-.72,2.28-1.38,4.51-2,6.66q-.76,2.72-1.42,5.26c-.21.82-.42,1.63-.62,2.43-1.1,4.41-2,8.43-2.69,12a158.65,158.65,0,0,0-2.59,16.87l-39.25-4.91c1.36-6.74,2.42-12.63,3.9-19,.82-3.48,1.75-7.1,3-11.07.84-2.85,1.82-5.88,3-9.17,3.94-11.3,7.57-14.43,7.57-14.43C127,208.5,146.86,214.79,146.86,214.79Z"/><path class="cls-18" d="M159.91,249.58l7,1a27,27,0,0,1,4.88-1,33.08,33.08,0,0,1,5.41,0s3.16,1.19,3.16,4.22c0,0-7.38,2-10.22.79l-10.22-.79Z"/><polygon class="cls-21" points="116.58 378.85 123.89 378.99 127.53 362.13 120.23 362.01 116.58 378.85"/><polygon class="cls-9" points="120.23 362.01 127.53 362.14 125.45 371.77 118.22 371.29 120.23 362.01"/><path class="cls-8" d="M140.07,337.59A229.19,229.19,0,0,1,129.42,369l-13.33-1s5.47-21.37,7.45-40.94c1.23-12.09,1.12-22.09-2.42-22.86-2.22-.49-7.43-.47-14.11-.32V279c18.73,3.84,37.37,11.1,38.79,16.92C147.78,304.13,144.32,321.46,140.07,337.59Z"/><polygon class="cls-8" points="114.67 368.64 130.55 369.69 132.89 362.83 115.39 362.01 114.67 368.64"/><polygon class="cls-22" points="114.67 368.64 130.55 369.69 132.89 362.83 115.39 362.01 114.67 368.64"/><path class="cls-8" d="M125,378.62l.15,0s.17.05.19.07,0,0,0,.05h.06a8.87,8.87,0,0,0,1.9.37,1.93,1.93,0,0,0,1.39-.27.9.9,0,0,0,.27-.94.64.64,0,0,0-.37-.5,2.93,2.93,0,0,0-2,.37,2.64,2.64,0,0,0,.72-1.67.69.69,0,0,0-.62-.55,1,1,0,0,0-.81.19c-.77.66-.89,2.72-.89,2.85h0Zm.79-.42-.15.08a3.62,3.62,0,0,1,.61-2.23.47.47,0,0,1,.37-.13h.09c.24,0,.29.16.3.26A3.45,3.45,0,0,1,125.78,378.2Zm.1.36c.88-.48,2.13-1,2.6-.8a.29.29,0,0,1,.17.25.59.59,0,0,1-.16.59C128.13,378.92,127.17,378.9,125.88,378.56Z"/><path class="cls-10" d="M124.82,377.73l-8.19-.51a.52.52,0,0,0-.57.46h0l-.8,6.45a1.29,1.29,0,0,0,1.19,1.37c2.86.13,4.23.05,7.83.25a68.91,68.91,0,0,0,9.62.31c3-.3,2.67-3.31,1.36-3.45-3.13-.36-7.26-2.65-9.22-4.39A2,2,0,0,0,124.82,377.73Z"/><path class="cls-9" d="M140.07,337.59c-5-3.15-10.81-6.86-16.53-10.52,1.23-12.09,1.12-22.09-2.42-22.86-2.22-.49-7.43-.47-14.11-.32V279c18.73,3.84,37.37,11.1,38.79,16.92C147.78,304.13,144.32,321.46,140.07,337.59Z"/><polygon class="cls-21" points="159.31 378.85 166.62 378.99 170.26 362.13 162.96 362.01 159.31 378.85"/><polygon class="cls-9" points="162.96 362.01 170.26 362.14 168.18 371.77 160.95 371.29 162.96 362.01"/><path class="cls-8" d="M132.77,276.57l1.18-9.44-38.17-6.29S83.29,285.58,89.4,297.7c5.61,11.12,65.27,4.5,74.45,6.51s-5,63.8-5,63.8l13.34,1s20.6-55.6,16.37-73.09C186.68,288.31,155.23,278.2,132.77,276.57Z"/><polygon class="cls-8" points="157.4 368.64 173.28 369.69 175.62 362.83 158.12 362.01 157.4 368.64"/><polygon class="cls-22" points="157.4 368.64 173.28 369.69 175.62 362.83 158.12 362.01 157.4 368.64"/><path class="cls-8" d="M167.72,378.62l.15,0s.17.05.19.07,0,0,0,.05h.06a8.87,8.87,0,0,0,1.9.37,1.93,1.93,0,0,0,1.39-.27.9.9,0,0,0,.27-.94.64.64,0,0,0-.37-.5,2.93,2.93,0,0,0-2,.37,2.64,2.64,0,0,0,.72-1.67.69.69,0,0,0-.62-.55,1,1,0,0,0-.81.19c-.77.66-.89,2.72-.89,2.85h0Zm.79-.42-.15.08a3.62,3.62,0,0,1,.61-2.23.47.47,0,0,1,.37-.13h.09c.24,0,.29.16.3.26A3.4,3.4,0,0,1,168.51,378.2Zm.1.36c.88-.48,2.13-1,2.6-.8a.29.29,0,0,1,.17.25.59.59,0,0,1-.16.59C170.86,378.92,169.9,378.9,168.61,378.56Z"/><path class="cls-10" d="M167.55,377.73l-8.19-.51a.52.52,0,0,0-.57.46h0l-.8,6.45a1.29,1.29,0,0,0,1.19,1.37c2.86.13,4.23.05,7.83.25a68.91,68.91,0,0,0,9.62.31c3.05-.3,2.68-3.31,1.36-3.45-3.13-.36-7.26-2.65-9.22-4.39A2,2,0,0,0,167.55,377.73Z"/><polygon points="94.38 265.14 112.06 267.46 112.64 264.85 94.92 262.28 94.38 265.14"/><polygon points="114.11 264.87 113.89 267.46 130.24 269.71 130.24 267.15 114.11 264.87"/><polygon points="131.25 267.29 131.25 269.71 133.63 270.03 133.63 267.69 131.25 267.29"/><path class="cls-9" d="M143,226.29c-.72,2.28-1.38,4.51-2,6.66q-.76,2.72-1.42,5.26c-1.23-6.7,1-14.7,1-14.7Z"/><path class="cls-18" d="M146.86,214.79c3.19.64,4.24,25.43,4.38,28.07s15.66,7.77,15.66,7.77v3.61s-16.64-1.16-20.53-2.75-4.83-24.59-4.83-24.59Z"/><path class="cls-10" d="M146.86,214.79c2.93.91,4.38,17.26,4.38,17.26l-9.06,3.65-2.25-9.1s-.64-1.84.62-5.74C142.38,215.22,146.86,214.79,146.86,214.79Z"/></g><path class="cls-8" d="M79.28,296.26h72.25a7.91,7.91,0,0,1,7.91,7.91v4.23a0,0,0,0,1,0,0H71.37a0,0,0,0,1,0,0v-4.23A7.91,7.91,0,0,1,79.28,296.26Z"/><path class="cls-10" d="M102.77,266.2h48.49A3.88,3.88,0,0,1,155,271l-8.67,37.46h-2l7.38-32.83a3.87,3.87,0,0,0-3.78-4.73H103.76Z"/><path class="cls-10" d="M121.13,309.72v31.65a1.84,1.84,0,0,1-1.84,1.84h-7.76a1.84,1.84,0,0,1-1.84-1.84V309.72Z"/><path class="cls-10" d="M78.29,382.8a3.36,3.36,0,1,0-3.36,3.36A3.35,3.35,0,0,0,78.29,382.8Z"/><path class="cls-22" d="M76.61,382.8a1.68,1.68,0,1,0-1.68,1.68A1.68,1.68,0,0,0,76.61,382.8Z"/><path class="cls-10" d="M159.24,382.8a3.37,3.37,0,1,0-3.36,3.36A3.36,3.36,0,0,0,159.24,382.8Z"/><path class="cls-22" d="M157.56,382.8a1.68,1.68,0,1,0-1.68,1.68A1.68,1.68,0,0,0,157.56,382.8Z"/><path class="cls-10" d="M118.18,368V331.87h-5.56V368c-21.66.56-34.83,8.13-37.46,9.79a1.07,1.07,0,0,0-.49.9v3a1.06,1.06,0,0,0,1.06,1.06h0a1.07,1.07,0,0,0,.92-.54L77.94,380a121.5,121.5,0,0,1,34.68-5.74v5.94a1.38,1.38,0,0,0,1.38,1.38h2.81a1.37,1.37,0,0,0,1.37-1.38v-5.94A121.53,121.53,0,0,1,152.87,380l1.28,2.25a1.07,1.07,0,0,0,.93.54h0a1.07,1.07,0,0,0,1.06-1.06v-3a1.07,1.07,0,0,0-.49-.9C153,376.17,139.85,368.6,118.18,368Z"/><rect class="cls-10" x="113.58" y="379.44" width="3.65" height="6.73"/><rect class="cls-9" x="109.69" y="309.72" width="11.44" height="13.15"/><path class="cls-10" d="M161.85,306.46v3.78a1.93,1.93,0,0,1-1.94,1.93h-89A1.92,1.92,0,0,1,69,310.24v-3.78a1.93,1.93,0,0,1,1.93-1.93h89A1.94,1.94,0,0,1,161.85,306.46Z"/><path class="cls-10" d="M120.9,308.41H69S52.47,281,52.47,235.63V219a12.4,12.4,0,0,1,12.4-12.39h22a12.39,12.39,0,0,1,12.39,12C99.92,242,103.36,292.58,120.9,308.41Z"/><path class="cls-22" d="M109.47,308.41H71.31a3.93,3.93,0,0,1-3.5-2.13c-3.76-7.24-15.34-32.66-15.34-70.65V219a12.39,12.39,0,0,1,12.39-12.39h19a12.39,12.39,0,0,1,12.39,12c.57,20.87,3.37,63.47,16.47,83.61A4,4,0,0,1,109.47,308.41Z"/><path class="cls-9" d="M161.85,306.46v3.78a1.94,1.94,0,0,1-1.93,1.93H120a2.61,2.61,0,0,1-2.61-2.61v-2.42a2.61,2.61,0,0,1,2.61-2.61h39.88A1.94,1.94,0,0,1,161.85,306.46Z"/><path class="cls-8" d="M69,205.12l3.3-4.33s14.09.65,14.43,5.8S69,205.12,69,205.12Z"/><path class="cls-8" d="M59.69,218s.86,22.9,0,82c0,2-7.46,1.93-8,0-1.79-6.73,0-60.47,0-60.47"/><polygon class="cls-8" points="51.86 300.35 59.45 300.61 59.45 304.4 51.86 304.01 51.86 300.35"/><path class="cls-23" d="M59.69,218s.86,22.9,0,82c0,2-7.46,1.93-8,0-1.79-6.73,0-60.47,0-60.47"/><path class="cls-8" d="M48.11,288c-.41-10.9-1.9-61,4.36-77.59,0,0,5.89-7.49,25.82-7.49S104.22,217,104.22,217s.86,22.89,0,82c0,2-7.46,1.92-8,0-1.79-6.73,0-60.47,0-60.47l-4,48.89a1.21,1.21,0,0,1-1.38,1.09c-6.29-1-34-4.89-41.33.11A.91.91,0,0,1,48.11,288Z"/><polygon class="cls-8" points="96.39 299.33 103.98 299.59 103.98 303.38 96.39 302.99 96.39 299.33"/><path class="cls-8" d="M91.25,288.61l-.6,4s-30.93-6.75-40.95.44l-.6-4.43S56.84,281.47,91.25,288.61Z"/><path class="cls-14" d="M48.11,288c-.41-10.9-1.9-61,4.36-77.59,0,0,5.89-7.49,25.82-7.49S104.22,217,104.22,217s.86,22.89,0,82c0,2-7.46,1.92-8,0-1.79-6.73,0-60.47,0-60.47l-4,48.89a1.21,1.21,0,0,1-1.38,1.09c-6.29-1-34-4.89-41.33.11A.91.91,0,0,1,48.11,288Z"/><path class="cls-9" d="M96.25,238.57s.44-15.53,8-21.54C104.22,217,94.8,221.09,96.25,238.57Z"/><path class="cls-9" d="M73.57,204.67s-9.1,5-10.55,73.14C63,277.81,59.06,209.08,73.57,204.67Z"/><path class="cls-24" d="M418.23,387.6a27.69,27.69,0,0,1,1.87-7c1.31-2.61,9.63-.95,9.63-.95s1.66,1.43,2,8.08Z"/><path class="cls-24" d="M389.89,387.54c1.95-1.19.84-10.09.84-10.09s-9.11-7.29-10.36-1.71-8.65,8.09-12.86,8.77c-2.91.47-3.81,2.08-4.09,3Z"/><path class="cls-8" d="M408.76,322.81a39.67,39.67,0,0,0-.67,4.92c-.85,16.52-13.91,54.28-16.24,55.16-3.61,1.36-9.3-1.54-12.28-2.49a2.54,2.54,0,0,1-1.79-2.9c6.46-29.72,8.84-72.52,9.7-97.86a115.22,115.22,0,0,1,2.63-21.58s31.84-8.49,32,2.26C422.31,269.83,411.6,307.12,408.76,322.81Z"/><path class="cls-9" d="M408.76,322.81l-21.28-43.17a115.22,115.22,0,0,1,2.63-21.58s31.84-8.49,32,2.26C422.31,269.83,411.6,307.12,408.76,322.81Z"/><path class="cls-8" d="M401.67,260.35l16.83,122s7.4,1.79,13.15.36c0,0,4.92-64.89,4.51-80.57s3.54-42-.9-44.88S401.67,260.35,401.67,260.35Z"/><path class="cls-10" d="M438.54,258.32a2.33,2.33,0,0,1-1.68,2.41c-2.35.68-5.06,1.16-10.28,2.24a99.53,99.53,0,0,1-19.61,2c-12.89.08-17.77-4.36-17.77-4.36-.56,0,.29-2.69,1.05-15.52.26-4.35.51-9.86.69-16.82.17-6.26.28-13.71.29-22.54,0-10.62,16.45-22,16.76-22h0c0,1.53,2.41,4.35,6.12,4.59,4.41.29,9.81-1.9,9.81-4.44,0,0,8,12.74,10.8,26.35.36,1.72.64,3.54.86,5.46C436.25,221.39,435.6,217.27,438.54,258.32Z"/><path class="cls-10" d="M408,183.65s-15.29-.13-19,5-11.75,32.92-7.54,42.16,12.09-3.82,16.46-9.48S408,183.65,408,183.65Z"/><path class="cls-25" d="M407.83,181.32v1.58s-.43,4.94,5.65,5.66,10.62-.9,10.46-4.72a55,55,0,0,1-1.11-8.44,16.6,16.6,0,0,1,.21-3l-11.79-.24-3.48.57Z"/><path class="cls-26" d="M407.78,172.77l.05,8.55a10,10,0,0,0,4.25.94c5.42,0,8.92-4,10.76-6.86a16.6,16.6,0,0,1,.21-3l-11.79-.24Z"/><path class="cls-25" d="M424,170.54c-1.37,7.36-10.88,7.12-15,6.66-1.16-.13-1.88-.28-1.88-.28-1.31-.34-2-2.4-2.37-5.09-.67-5.32.17-13.13,1.07-15.12,1.36-3,3.9-6.26,13.47-3.91S425.71,161.1,424,170.54Z"/><path class="cls-27" d="M392.35,204.34s-5.91,13.06-5.74,17a20.37,20.37,0,0,1,5.74.74C397,223.43,392.35,204.34,392.35,204.34Z"/><path class="cls-24" d="M402.87,149.7a31.82,31.82,0,0,0,9.18-2.49c4-1.75,9.12.18,10.77,1a2.4,2.4,0,0,0-.41-1,2.15,2.15,0,0,1,.85,1.26c.08.05.12.09.1.11a2.83,2.83,0,0,1,1.38.08s-.38-.05-.52.19a.13.13,0,0,1-.06.07c6.29,3,6.87,13,4.85,15.28a77.31,77.31,0,0,0-6,8.93,9.56,9.56,0,0,1,.06-3.84c.44-2.43-1.66-2.43-4.32-3.54s-.44-4.21-2.76-6.09-10.85-.77-10.74-2.21C402.05,156.36,402.87,150,402.87,149.7Z"/><path class="cls-27" d="M425.88,228.8c-2.49,10-29.49,15.21-35.63,16.26.26-4.35.51-9.86.69-16.82Z"/><path class="cls-25" d="M420,232.06a48.33,48.33,0,0,0,7-1.37c1-.52,5.73-7.2,2.65-8.92s-11.35,5.15-11.35,5.15Z"/><path class="cls-10" d="M385,234.05s22.22,1.2,37.12-2a6.4,6.4,0,0,0-4.3-6.22s-23.24-4.92-28.82-3.55S385,234.05,385,234.05Z"/><path class="cls-10" d="M436,216.61c-4.61,5.56-10.64,10.1-17.28,11.16h0a12.4,12.4,0,0,1-1.64-7.42,14.88,14.88,0,0,1,2.42-6.81,15,15,0,0,0,1.31-2.63c3.62-9.26,3.08-27.1,3.08-27.1s15.41,1.61,20.21,8.47C447.07,196.48,443.32,207.82,436,216.61Z"/><path class="cls-26" d="M409,177.2c-1.16-.13-1.88-.28-1.88-.28-1.31-.34-2-2.4-2.37-5.09a6.47,6.47,0,0,1,4,3.3A4.78,4.78,0,0,1,409,177.2Z"/><path class="cls-25" d="M402.77,181.37s-5.32-8.79-1.18-9.17a6.26,6.26,0,0,1,6.4,3.45c.59,1-.16,5.67-.16,5.67Z"/><path class="cls-10" d="M423.05,220.06a11.18,11.18,0,0,1-.91,3.05,14.65,14.65,0,0,1-3.38,4.66h0c-13.82-6.24-16.61-27.66-17.08-39.43-.19-4.73,0-7.9,0-7.9,6.23-2.06,8,1.52,8,1.52s7.36,17.51,11.18,28.95C422.3,215.29,423.24,218.78,423.05,220.06Z"/><path class="cls-27" d="M436,216.61c-4.61,5.56-10.64,10.1-17.28,11.16h0c-13.82-6.24-16.61-27.66-17.08-39.43,0,0,6.54,23.72,15.44,32a9.76,9.76,0,0,0,5,2.76s11.23-3.18,13.58-6.16A1.28,1.28,0,0,1,436,216.61Z"/></g></svg>