<svg width="435" height="388" viewBox="0 0 435 388" fill="none" xmlns="http://www.w3.org/2000/svg">
<path d="M214.533 387.54C321.615 387.54 408.423 382.472 408.423 376.22C408.423 369.968 321.615 364.9 214.533 364.9C107.45 364.9 20.6426 369.968 20.6426 376.22C20.6426 382.472 107.45 387.54 214.533 387.54Z" fill="#F5F5F5"/>
<path d="M202.893 286.49H9.89336C8.38071 286.487 6.93091 285.885 5.86224 284.814C4.79357 283.743 4.19336 282.293 4.19336 280.78V9.34994C4.20653 7.84597 4.81255 6.40792 5.8798 5.34816C6.94705 4.2884 8.38933 3.69252 9.89336 3.68994H202.893C203.643 3.68994 204.386 3.83764 205.078 4.12459C205.771 4.41154 206.401 4.83214 206.931 5.36236C207.461 5.89258 207.882 6.52205 208.169 7.21482C208.456 7.90759 208.603 8.65009 208.603 9.39994V9.39994V280.77C208.605 281.521 208.458 282.264 208.172 282.958C207.885 283.652 207.465 284.283 206.934 284.814C206.404 285.345 205.774 285.767 205.081 286.054C204.387 286.342 203.644 286.49 202.893 286.49V286.49ZM9.89336 3.88994C8.44701 3.89259 7.06081 4.46901 6.03902 5.49267C5.01723 6.51633 4.44336 7.90359 4.44336 9.34994V280.77C4.44204 281.487 4.58197 282.197 4.85515 282.86C5.12833 283.523 5.5294 284.126 6.03548 284.634C6.54156 285.142 7.14273 285.545 7.80467 285.82C8.4666 286.096 9.17634 286.239 9.89336 286.24H202.893C203.614 286.243 204.328 286.103 204.994 285.829C205.661 285.556 206.267 285.154 206.778 284.645C207.289 284.137 207.694 283.534 207.971 282.869C208.249 282.204 208.392 281.49 208.393 280.77V9.34994C208.392 8.62992 208.249 7.91724 207.971 7.25278C207.694 6.58833 207.288 5.98516 206.777 5.47789C206.266 4.97062 205.66 4.56923 204.994 4.29673C204.327 4.02423 203.613 3.88599 202.893 3.88994H9.89336Z" fill="#E6E6E6"/>
<path d="M419.244 286.49H226.144C224.631 286.485 223.182 285.881 222.112 284.812C221.042 283.742 220.439 282.293 220.434 280.78V9.34994C220.449 7.84505 221.058 6.40702 222.126 5.34753C223.195 4.28805 224.639 3.69249 226.144 3.68994H419.244C420.739 3.7056 422.168 4.30726 423.225 5.36562C424.281 6.42398 424.881 7.85457 424.894 9.34994V280.77C424.896 282.276 424.304 283.722 423.246 284.793C422.188 285.864 420.749 286.474 419.244 286.49V286.49ZM226.144 3.88994C224.696 3.89259 223.309 4.46868 222.286 5.49206C221.262 6.51543 220.686 7.90267 220.684 9.34994V280.77C220.689 282.216 221.266 283.602 222.289 284.625C223.311 285.648 224.697 286.225 226.144 286.23H419.244C420.69 286.225 422.076 285.648 423.099 284.625C424.121 283.602 424.698 282.216 424.704 280.77V9.34994C424.701 7.90267 424.125 6.51543 423.101 5.49206C422.078 4.46868 420.691 3.89259 419.244 3.88994H226.144Z" fill="#E6E6E6"/>
<path d="M125.333 308.29H16.5831C14.8329 308.271 13.1548 307.59 11.886 306.384C10.6172 305.178 9.85163 303.537 9.74313 301.79L0.0131366 112.93C-0.042064 112.09 0.0770978 111.247 0.363141 110.455C0.649184 109.662 1.09593 108.938 1.67532 108.326C2.25472 107.715 2.95425 107.23 3.72999 106.902C4.50573 106.574 5.34093 106.41 6.18314 106.42H114.893C116.645 106.44 118.324 107.122 119.594 108.33C120.863 109.538 121.627 111.181 121.733 112.93L131.503 301.77C131.56 302.611 131.442 303.455 131.156 304.249C130.871 305.042 130.424 305.768 129.845 306.38C129.265 306.993 128.565 307.478 127.789 307.807C127.012 308.136 126.176 308.3 125.333 308.29V308.29Z" fill="#407BFF"/>
<path opacity="0.8" d="M125.333 308.29H16.5831C14.8329 308.271 13.1548 307.59 11.886 306.384C10.6172 305.178 9.85163 303.537 9.74313 301.79L0.0131366 112.93C-0.042064 112.09 0.0770978 111.247 0.363141 110.455C0.649184 109.662 1.09593 108.938 1.67532 108.326C2.25472 107.715 2.95425 107.23 3.72999 106.902C4.50573 106.574 5.34093 106.41 6.18314 106.42H114.893C116.645 106.44 118.324 107.122 119.594 108.33C120.863 109.538 121.627 111.181 121.733 112.93L131.503 301.77C131.56 302.611 131.442 303.455 131.156 304.249C130.871 305.042 130.424 305.768 129.845 306.38C129.265 306.993 128.565 307.478 127.789 307.807C127.012 308.136 126.176 308.3 125.333 308.29V308.29Z" fill="white"/>
<path d="M104.194 100.26H92.1641V101.11H104.194V100.26Z" fill="#407BFF"/>
<path d="M87.9938 100.26H83.5938V101.11H87.9938V100.26Z" fill="#407BFF"/>
<path d="M130.013 296.31H26.013C24.3376 296.295 22.7303 295.645 21.5162 294.49C20.3021 293.335 19.5718 291.763 19.473 290.09L10.153 109.47C10.1006 108.667 10.2148 107.861 10.4885 107.104C10.7622 106.347 11.1895 105.655 11.7436 105.07C12.2976 104.486 12.9664 104.023 13.708 103.71C14.4497 103.397 15.248 103.24 16.053 103.25H120.053C121.727 103.269 123.332 103.922 124.545 105.075C125.758 106.229 126.49 107.799 126.593 109.47L135.893 290.09C135.944 290.891 135.829 291.694 135.556 292.45C135.283 293.205 134.857 293.895 134.306 294.479C133.754 295.062 133.089 295.526 132.35 295.841C131.611 296.156 130.816 296.316 130.013 296.31V296.31Z" fill="#407BFF"/>
<path d="M130.014 292.16H26.0139C25.4057 292.138 24.8267 291.893 24.3864 291.473C23.946 291.053 23.6748 290.486 23.6239 289.88L14.3039 109.25C14.282 109.01 14.3117 108.768 14.391 108.54C14.4703 108.312 14.5975 108.104 14.7639 107.93C14.9303 107.757 15.131 107.62 15.3531 107.529C15.5752 107.438 15.8138 107.394 16.0539 107.4H120.054C120.662 107.422 121.241 107.667 121.681 108.087C122.122 108.507 122.393 109.074 122.444 109.68L131.754 290.31C131.771 290.55 131.74 290.791 131.661 291.018C131.581 291.245 131.457 291.453 131.294 291.63C131.129 291.802 130.93 291.937 130.709 292.029C130.489 292.12 130.252 292.165 130.014 292.16V292.16ZM16.0139 107.61C15.8023 107.603 15.5916 107.64 15.3953 107.72C15.199 107.799 15.0214 107.918 14.8739 108.07C14.7305 108.227 14.621 108.412 14.5522 108.613C14.4833 108.815 14.4567 109.028 14.4739 109.24L23.8239 289.87C23.8721 290.422 24.12 290.939 24.5213 291.321C24.9226 291.704 25.4497 291.928 26.0039 291.95H130.004C130.214 291.956 130.423 291.918 130.617 291.839C130.812 291.76 130.988 291.641 131.134 291.49C131.278 291.333 131.388 291.148 131.456 290.947C131.525 290.745 131.552 290.532 131.534 290.32L122.234 109.69C122.186 109.137 121.938 108.621 121.536 108.239C121.135 107.856 120.608 107.632 120.054 107.61H16.0139Z" fill="white"/>
<path opacity="0.3" d="M93.6428 173.235C105.468 161.1 104.695 141.167 91.915 128.713C79.1353 116.259 59.1888 116.001 47.3632 128.136C35.5377 140.271 36.3112 160.204 49.091 172.658C61.8707 185.112 81.8172 185.37 93.6428 173.235Z" fill="white"/>
<path d="M95.9736 150.69C96.2133 154.88 95.3695 159.061 93.5236 162.83C91.5298 166.873 88.4339 170.271 84.5928 172.631C80.7516 174.992 76.3217 176.218 71.8136 176.17C67.1411 176.134 62.558 174.885 58.5125 172.547C54.467 170.209 51.0975 166.861 48.7336 162.83C46.5269 159.146 45.2533 154.978 45.0236 150.69C44.8218 147.403 45.2985 144.11 46.4241 141.016C47.5496 137.921 49.2999 135.091 51.5661 132.702C53.8323 130.313 56.5658 128.416 59.5967 127.129C62.6275 125.842 65.8909 125.192 69.1836 125.22C76.0429 125.288 82.6213 127.955 87.5927 132.681C92.5641 137.408 95.559 143.843 95.9736 150.69V150.69Z" fill="white"/>
<path d="M93.5224 162.83C91.5286 166.873 88.4327 170.271 84.5916 172.631C80.7504 174.992 76.3205 176.218 71.8124 176.17C67.1399 176.134 62.5568 174.885 58.5113 172.547C54.4658 170.209 51.0963 166.861 48.7324 162.83C55.2003 158.373 62.8778 156.004 70.7324 156.04C78.8258 156.052 86.7421 158.411 93.5224 162.83V162.83Z" fill="#407BFF"/>
<path d="M78.3975 150.092C82.6605 145.718 82.3841 138.534 77.7801 134.048C73.1761 129.561 65.9879 129.47 61.7248 133.845C57.4618 138.22 57.7382 145.403 62.3422 149.89C66.9462 154.376 74.1344 154.467 78.3975 150.092Z" fill="#407BFF"/>
<path d="M115.103 226.05H33.6625C32.9544 226.041 32.2756 225.766 31.762 225.278C31.2484 224.79 30.9379 224.127 30.8925 223.42L30.2825 211.42C30.2604 211.08 30.309 210.739 30.425 210.418C30.5411 210.098 30.7223 209.805 30.9571 209.558C31.1919 209.311 31.4753 209.115 31.7895 208.983C32.1036 208.851 32.4418 208.785 32.7825 208.79H114.213C114.921 208.796 115.602 209.071 116.116 209.559C116.63 210.047 116.94 210.712 116.983 211.42L117.603 223.42C117.623 223.76 117.574 224.1 117.457 224.42C117.34 224.74 117.159 225.032 116.925 225.279C116.69 225.526 116.407 225.721 116.094 225.854C115.78 225.987 115.443 226.053 115.103 226.05V226.05Z" fill="white"/>
<path opacity="0.3" d="M90.1637 202.25H56.1637C55.4548 202.244 54.7747 201.969 54.2606 201.481C53.7465 200.993 53.4367 200.328 53.3937 199.62L53.2637 197.08C53.2401 196.739 53.2876 196.397 53.403 196.075C53.5184 195.754 53.6994 195.459 53.9344 195.211C54.1693 194.963 54.4532 194.767 54.7681 194.634C55.083 194.501 55.422 194.435 55.7637 194.44H89.7637C90.4735 194.449 91.1536 194.726 91.6675 195.216C92.1813 195.705 92.4908 196.371 92.5337 197.08L92.6637 199.62C92.6843 199.96 92.6347 200.3 92.5181 200.62C92.4015 200.94 92.2202 201.232 91.9857 201.479C91.7512 201.725 91.4684 201.921 91.1549 202.054C90.8415 202.187 90.5041 202.253 90.1637 202.25V202.25Z" fill="black"/>
<path opacity="0.3" d="M102.814 283.41H51.8939C50.6869 283.397 49.5294 282.928 48.6538 282.097C47.7783 281.266 47.2496 280.135 47.1739 278.93L46.8739 273.05C46.8367 272.471 46.9194 271.891 47.1167 271.346C47.3141 270.801 47.6219 270.303 48.0209 269.882C48.4199 269.462 48.9015 269.128 49.4354 268.902C49.9694 268.676 50.5442 268.563 51.1239 268.57H102.064C103.271 268.583 104.428 269.052 105.304 269.883C106.18 270.714 106.708 271.845 106.784 273.05L107.084 278.93C107.121 279.51 107.038 280.092 106.839 280.638C106.641 281.185 106.331 281.684 105.93 282.105C105.529 282.526 105.045 282.859 104.509 283.084C103.972 283.308 103.395 283.419 102.814 283.41V283.41Z" fill="black"/>
<path d="M116.592 254.9H35.1523C34.4425 254.891 33.7624 254.614 33.2485 254.124C32.7347 253.635 32.4252 252.969 32.3823 252.26L31.7623 240.26C31.7418 239.92 31.7913 239.579 31.9079 239.259C32.0244 238.938 32.2055 238.645 32.4398 238.398C32.6742 238.15 32.9569 237.954 33.2704 237.82C33.5839 237.686 33.9215 237.618 34.2623 237.62H115.702C116.412 237.629 117.092 237.906 117.606 238.396C118.12 238.885 118.429 239.551 118.472 240.26L119.082 252.26C119.106 252.6 119.059 252.941 118.944 253.262C118.829 253.583 118.649 253.877 118.415 254.125C118.181 254.373 117.898 254.57 117.585 254.703C117.271 254.837 116.933 254.904 116.592 254.9Z" fill="white"/>
<path d="M44.0234 217.44C44.0469 217.816 43.9923 218.194 43.8633 218.548C43.7342 218.902 43.5334 219.226 43.2733 219.499C43.0133 219.773 42.6997 219.989 42.3521 220.135C42.0046 220.282 41.6305 220.355 41.2534 220.35C40.4694 220.344 39.717 220.04 39.1488 219.499C38.5806 218.959 38.2391 218.223 38.1934 217.44C38.1686 217.064 38.2218 216.686 38.3496 216.331C38.4774 215.977 38.6772 215.652 38.9362 215.378C39.1953 215.104 39.5082 214.886 39.8553 214.738C40.2024 214.591 40.5763 214.516 40.9534 214.52C41.7394 214.529 42.493 214.835 43.0626 215.376C43.6322 215.918 43.9754 216.655 44.0234 217.44V217.44Z" fill="#263238"/>
<path d="M52.9824 217.44C53.0058 217.816 52.9513 218.194 52.8222 218.548C52.6932 218.902 52.4923 219.226 52.2323 219.499C51.9723 219.773 51.6587 219.989 51.3111 220.135C50.9635 220.282 50.5895 220.355 50.2124 220.35C49.4283 220.344 48.676 220.04 48.1078 219.499C47.5396 218.959 47.1981 218.223 47.1524 217.44C47.1277 217.065 47.1803 216.69 47.3069 216.336C47.4336 215.983 47.6315 215.659 47.8884 215.385C48.1453 215.111 48.4558 214.893 48.8005 214.744C49.1453 214.596 49.5169 214.519 49.8924 214.52C50.6812 214.526 51.4384 214.83 52.0117 215.372C52.585 215.914 52.9319 216.653 52.9824 217.44V217.44Z" fill="#263238"/>
<path d="M61.8939 217.44C61.9188 217.816 61.8656 218.193 61.7377 218.547C61.6098 218.902 61.4099 219.226 61.1507 219.499C60.8914 219.772 60.5784 219.989 60.2313 220.135C59.8843 220.282 59.5106 220.355 59.1339 220.35C58.3495 220.342 57.5973 220.037 57.028 219.497C56.4587 218.958 56.1143 218.223 56.0639 217.44C56.0401 217.058 56.0963 216.675 56.2288 216.316C56.3614 215.957 56.5675 215.63 56.8339 215.355C57.1002 215.08 57.4211 214.864 57.7758 214.72C58.1305 214.576 58.5114 214.508 58.8939 214.52C59.6685 214.544 60.406 214.857 60.9613 215.397C61.5166 215.938 61.8493 216.666 61.8939 217.44V217.44Z" fill="#263238"/>
<path d="M70.8926 217.44C70.916 217.816 70.8615 218.194 70.7324 218.548C70.6033 218.902 70.4025 219.226 70.1425 219.499C69.8825 219.773 69.5689 219.989 69.2213 220.135C68.8737 220.282 68.4997 220.355 68.1226 220.35C67.3392 220.341 66.5882 220.036 66.0205 219.497C65.4528 218.957 65.1105 218.222 65.0626 217.44C65.0378 217.064 65.091 216.686 65.2188 216.331C65.3466 215.977 65.5463 215.652 65.8054 215.378C66.0645 215.104 66.3774 214.886 66.7245 214.738C67.0716 214.591 67.4454 214.516 67.8226 214.52C68.6086 214.529 69.3622 214.835 69.9317 215.376C70.5013 215.918 70.8446 216.655 70.8926 217.44V217.44Z" fill="#263238"/>
<path d="M45.5137 246.28C45.5371 246.656 45.4826 247.034 45.3535 247.388C45.2245 247.742 45.0236 248.066 44.7636 248.339C44.5036 248.613 44.19 248.829 43.8424 248.975C43.4948 249.122 43.1208 249.195 42.7437 249.19C41.9596 249.184 41.2073 248.88 40.6391 248.339C40.0709 247.799 39.7293 247.063 39.6837 246.28C39.6588 245.904 39.712 245.527 39.8399 245.173C39.9678 244.818 40.1677 244.494 40.427 244.221C40.6862 243.948 40.9992 243.731 41.3463 243.585C41.6934 243.438 42.067 243.365 42.4437 243.37C43.2281 243.378 43.9803 243.683 44.5496 244.223C45.1189 244.762 45.4633 245.497 45.5137 246.28V246.28Z" fill="#263238"/>
<path d="M54.4622 246.28C54.4871 246.656 54.4339 247.033 54.306 247.387C54.1781 247.742 53.9782 248.066 53.719 248.339C53.4597 248.612 53.1467 248.829 52.7997 248.975C52.4526 249.122 52.0789 249.195 51.7022 249.19C50.9179 249.182 50.1656 248.877 49.5963 248.337C49.027 247.798 48.6826 247.063 48.6322 246.28C48.6088 245.904 48.6633 245.526 48.7924 245.172C48.9215 244.818 49.1223 244.494 49.3823 244.221C49.6424 243.947 49.956 243.731 50.3035 243.585C50.6511 243.438 51.0251 243.365 51.4023 243.37C52.1863 243.376 52.9387 243.68 53.5069 244.221C54.0751 244.761 54.4166 245.497 54.4622 246.28V246.28Z" fill="#263238"/>
<path d="M63.4238 246.28C63.4473 246.656 63.3928 247.034 63.2637 247.388C63.1346 247.742 62.9338 248.066 62.6738 248.339C62.4137 248.613 62.1001 248.829 61.7526 248.975C61.405 249.122 61.031 249.195 60.6539 249.19C59.8698 249.184 59.1174 248.88 58.5492 248.339C57.981 247.799 57.6395 247.063 57.5938 246.28C57.569 245.904 57.6222 245.527 57.7501 245.173C57.878 244.818 58.0779 244.494 58.3371 244.221C58.5964 243.948 58.9094 243.731 59.2564 243.585C59.6035 243.438 59.9772 243.365 60.3538 243.37C61.1389 243.376 61.8925 243.68 62.4623 244.22C63.0321 244.76 63.3758 245.496 63.4238 246.28V246.28Z" fill="#263238"/>
<path d="M72.3828 246.28C72.4063 246.656 72.3517 247.034 72.2227 247.388C72.0936 247.742 71.8928 248.066 71.6327 248.339C71.3727 248.613 71.0591 248.829 70.7115 248.975C70.364 249.122 69.9899 249.195 69.6128 249.19C68.8288 249.184 68.0764 248.88 67.5082 248.339C66.94 247.799 66.5985 247.063 66.5528 246.28C66.528 245.904 66.5812 245.527 66.7091 245.173C66.837 244.818 67.0369 244.494 67.2961 244.221C67.5553 243.948 67.8683 243.731 68.2154 243.585C68.5625 243.438 68.9361 243.365 69.3128 243.37C70.0972 243.378 70.8494 243.683 71.4188 244.223C71.9881 244.762 72.3324 245.497 72.3828 246.28V246.28Z" fill="#263238"/>
<path d="M81.3333 246.28C81.3582 246.656 81.305 247.033 81.1771 247.387C81.0492 247.742 80.8493 248.066 80.5901 248.339C80.3308 248.612 80.0178 248.829 79.6707 248.975C79.3237 249.122 78.95 249.195 78.5733 249.19C77.7889 249.182 77.0367 248.877 76.4674 248.337C75.8981 247.798 75.5537 247.063 75.5033 246.28C75.4799 245.904 75.5344 245.526 75.6635 245.172C75.7926 244.818 75.9934 244.494 76.2534 244.221C76.5134 243.947 76.8271 243.731 77.1746 243.585C77.5222 243.438 77.8962 243.365 78.2733 243.37C79.0574 243.376 79.8098 243.68 80.378 244.221C80.9462 244.761 81.2877 245.497 81.3333 246.28V246.28Z" fill="#263238"/>
<path d="M90.293 246.28C90.3164 246.656 90.2619 247.034 90.1328 247.388C90.0038 247.742 89.8029 248.066 89.5429 248.339C89.2829 248.613 88.9693 248.829 88.6217 248.975C88.2741 249.122 87.9001 249.195 87.523 249.19C86.7396 249.181 85.9886 248.876 85.4209 248.337C84.8532 247.797 84.511 247.062 84.463 246.28C84.4381 245.904 84.4913 245.527 84.6192 245.173C84.7471 244.818 84.947 244.494 85.2063 244.221C85.4655 243.948 85.7785 243.731 86.1256 243.585C86.4727 243.438 86.8463 243.365 87.223 243.37C88.0081 243.376 88.7616 243.68 89.3314 244.22C89.9012 244.76 90.2449 245.496 90.293 246.28V246.28Z" fill="#263238"/>
<path d="M59.5323 337.17H18.3223V337.42H59.5323V337.17Z" fill="#E0E0E0"/>
<path d="M143.533 335.17H102.203V335.42H143.533V335.17Z" fill="#E0E0E0"/>
<path d="M197.312 335.17H187.312V335.42H197.312V335.17Z" fill="#E0E0E0"/>
<path d="M97.3633 343.71H51.1133V343.96H97.3633V343.71Z" fill="#E0E0E0"/>
<path d="M257.332 337.04H235.732V337.29H257.332V337.04Z" fill="#E0E0E0"/>
<path d="M294.162 337.04H266.232V337.29H294.162V337.04Z" fill="#E0E0E0"/>
<path d="M428.864 341.27H366.424V341.52H428.864V341.27Z" fill="#E0E0E0"/>
<path d="M197.953 32.61H151.883L154.393 3.90002H200.463L197.953 32.61Z" fill="#EBEBEB"/>
<path d="M198.883 0L197.623 14.99L196.363 33.01H152.053L154.573 0H198.883Z" fill="#FAFAFA"/>
<path d="M194.644 3.89999L197.154 32.61H151.094L148.584 3.89999H152.494L153.864 1.73999H166.274L168.054 3.89999H194.644Z" fill="#E0E0E0"/>
<path d="M269.354 39.02H220.334V88.04H269.354V39.02Z" fill="#EBEBEB"/>
<path d="M270.594 39.02H269.344V88.04H270.594V39.02Z" fill="#E0E0E0"/>
<path d="M264.814 43.55H224.854V83.51H264.814V43.55Z" fill="#F5F5F5"/>
<path d="M225.233 43.55H224.863V83.51H225.233V43.55Z" fill="#E0E0E0"/>
<path d="M245.214 69.31C249.516 69.31 253.004 64.8686 253.004 59.39C253.004 53.9113 249.516 49.47 245.214 49.47C240.912 49.47 237.424 53.9113 237.424 59.39C237.424 64.8686 240.912 69.31 245.214 69.31Z" fill="#E0E0E0"/>
<path d="M241.143 74.3201H249.354V66.1101H241.143V74.3201Z" fill="#E0E0E0"/>
<path d="M260.053 83.51H229.973V80.71C229.973 78.1533 230.988 75.7014 232.796 73.8935C234.604 72.0857 237.056 71.07 239.613 71.07H250.413C251.679 71.07 252.934 71.3197 254.104 71.8048C255.274 72.2899 256.337 73.0008 257.233 73.897C258.128 74.7933 258.838 75.8572 259.322 77.0279C259.806 78.1986 260.054 79.4532 260.053 80.72V83.52V83.51Z" fill="#E0E0E0"/>
<path d="M229.174 66.8301C229.174 68.4701 232.174 69.8301 232.174 69.8301C232.174 69.8301 235.174 68.5001 235.174 66.8301C235.174 66.0601 234.084 65.6201 233.384 65.8301C232.86 66.0381 232.44 66.4441 232.214 66.9601C231.805 66.4441 231.276 66.0357 230.674 65.7701C230.504 65.7113 230.323 65.6938 230.145 65.7189C229.967 65.7441 229.798 65.8113 229.652 65.9149C229.505 66.0185 229.385 66.1556 229.302 66.3147C229.219 66.4739 229.175 66.6505 229.174 66.8301V66.8301Z" fill="#E0E0E0"/>
<path d="M255.794 59.5499C255.794 61.6999 259.684 63.4399 259.684 63.4399C259.684 63.4399 263.574 61.6999 263.574 59.5499C263.574 58.5499 262.144 57.9499 261.224 58.2199C260.537 58.4941 259.985 59.025 259.684 59.7C259.182 59.0208 258.518 58.4777 257.754 58.1199C257.528 58.0402 257.287 58.0165 257.051 58.0511C256.814 58.0856 256.59 58.1773 256.397 58.3181C256.204 58.459 256.048 58.6448 255.943 58.8594C255.838 59.0741 255.786 59.3111 255.794 59.5499V59.5499Z" fill="#E0E0E0"/>
<path d="M170.253 304.28C170.703 307.17 172.793 309.66 172.963 312.58C173.083 314.86 172.013 317.02 171.493 319.25C170.973 321.48 171.213 324.25 173.173 325.42C173.879 325.784 174.67 325.952 175.463 325.906C176.257 325.861 177.023 325.603 177.683 325.16C178.992 324.253 180.073 323.055 180.843 321.66C183.907 316.705 185.579 311.015 185.683 305.19C185.733 302.73 185.443 300.14 183.993 298.19C179.503 291.96 169.113 297.08 170.253 304.28Z" fill="#F5F5F5"/>
<path d="M166.582 296.63C167.009 297.102 167.571 297.431 168.192 297.57C168.565 297.697 168.964 297.724 169.35 297.649C169.736 297.573 170.095 297.398 170.392 297.14C170.622 296.847 170.787 296.508 170.875 296.145C170.963 295.783 170.972 295.406 170.902 295.04C170.841 294.119 170.526 293.233 169.992 292.48C169.722 292.108 169.364 291.808 168.951 291.606C168.538 291.404 168.082 291.305 167.622 291.32C167.165 291.358 166.735 291.551 166.404 291.868C166.073 292.184 165.86 292.605 165.802 293.06C165.695 294.302 165.967 295.547 166.582 296.63V296.63Z" fill="#F5F5F5"/>
<path d="M174.893 290.62C174.684 290.294 174.381 290.038 174.024 289.887C173.668 289.735 173.273 289.695 172.893 289.77C172.527 289.853 172.194 290.045 171.937 290.319C171.68 290.594 171.512 290.939 171.453 291.31C171.437 291.553 171.437 291.797 171.453 292.04C171.453 292.43 171.496 292.82 171.583 293.2C171.664 293.572 171.84 293.916 172.093 294.2C172.437 294.525 172.868 294.744 173.333 294.83C173.624 294.901 173.928 294.901 174.218 294.83C174.509 294.758 174.778 294.618 175.003 294.42C175.203 294.178 175.352 293.898 175.443 293.598C175.534 293.298 175.565 292.982 175.533 292.67C175.523 291.939 175.3 291.227 174.893 290.62V290.62Z" fill="#F5F5F5"/>
<path d="M179.483 290.37C179.317 290.069 179.051 289.837 178.73 289.714C178.41 289.592 178.056 289.587 177.733 289.7C177.419 289.835 177.142 290.043 176.926 290.308C176.71 290.573 176.561 290.885 176.493 291.22C176.449 291.437 176.425 291.658 176.423 291.88C176.396 292.235 176.42 292.592 176.493 292.94C176.562 293.289 176.741 293.608 177.003 293.85C177.286 294.087 177.635 294.234 178.003 294.27C178.244 294.299 178.49 294.275 178.722 294.199C178.953 294.123 179.165 293.997 179.343 293.83C179.724 293.388 179.937 292.824 179.943 292.24C179.999 291.583 179.837 290.926 179.483 290.37V290.37Z" fill="#F5F5F5"/>
<path d="M183.612 291.33C183.122 290.59 182.562 290.54 182.052 290.86C181.558 291.223 181.205 291.746 181.052 292.34C181.005 292.535 180.968 292.731 180.942 292.93C180.884 293.261 180.884 293.599 180.942 293.93C181.007 294.245 181.19 294.524 181.452 294.71C181.699 294.868 181.991 294.939 182.282 294.91C182.662 294.888 183.019 294.724 183.282 294.45C183.649 294.053 183.886 293.555 183.962 293.02C184.058 292.433 183.934 291.831 183.612 291.33V291.33Z" fill="#F5F5F5"/>
<path d="M184.424 295.37C184.374 295.611 184.374 295.859 184.424 296.1C184.448 296.221 184.501 296.335 184.577 296.432C184.654 296.53 184.752 296.608 184.864 296.66C185.244 296.82 185.674 296.54 185.954 296.24C186.253 295.938 186.473 295.567 186.594 295.16C186.651 294.956 186.666 294.743 186.639 294.534C186.611 294.324 186.542 294.122 186.434 293.94C185.494 292.49 184.574 294.66 184.424 295.37Z" fill="#F5F5F5"/>
<path d="M185.233 371.07C185.903 368.7 186.293 366.12 185.403 363.83C182.643 356.69 171.293 358.97 170.543 366.22L185.233 371.07Z" fill="#F5F5F5"/>
<path d="M168.962 357.89C169.253 358.454 169.71 358.915 170.272 359.21C170.602 359.428 170.982 359.557 171.376 359.585C171.77 359.613 172.165 359.539 172.522 359.37C172.812 359.138 173.051 358.849 173.223 358.52C173.395 358.191 173.497 357.83 173.522 357.46C173.701 356.554 173.625 355.616 173.302 354.75C173.136 354.321 172.866 353.94 172.518 353.64C172.169 353.34 171.751 353.13 171.302 353.03C170.851 352.948 170.385 353.023 169.983 353.243C169.58 353.464 169.266 353.815 169.092 354.24C168.822 355.18 168.512 356.99 168.962 357.89Z" fill="#F5F5F5"/>
<path d="M178.493 354.2C178.376 353.842 178.156 353.526 177.861 353.292C177.566 353.057 177.209 352.914 176.833 352.88C176.457 352.867 176.086 352.967 175.767 353.167C175.448 353.366 175.196 353.656 175.043 354C174.96 354.226 174.89 354.456 174.833 354.69C174.728 355.068 174.668 355.458 174.653 355.85C174.627 356.244 174.707 356.637 174.883 356.99C175.117 357.393 175.465 357.716 175.883 357.92C176.149 358.058 176.444 358.129 176.743 358.129C177.043 358.129 177.338 358.058 177.603 357.92C177.858 357.737 178.074 357.505 178.237 357.237C178.4 356.969 178.508 356.67 178.553 356.36C178.752 355.651 178.731 354.897 178.493 354.2V354.2Z" fill="#F5F5F5"/>
<path d="M183.043 355.15C182.961 354.815 182.761 354.521 182.48 354.321C182.199 354.121 181.856 354.028 181.513 354.06C181.177 354.109 180.858 354.238 180.583 354.437C180.308 354.635 180.085 354.897 179.933 355.2C179.834 355.399 179.754 355.606 179.693 355.82C179.572 356.158 179.502 356.512 179.483 356.87C179.464 357.224 179.559 357.574 179.753 357.87C179.976 358.177 180.286 358.41 180.643 358.54C180.869 358.631 181.113 358.671 181.357 358.657C181.6 358.644 181.838 358.576 182.053 358.46C182.542 358.136 182.897 357.646 183.053 357.08C183.252 356.452 183.249 355.776 183.043 355.15V355.15Z" fill="#F5F5F5"/>
<path d="M186.784 357.14C186.494 356.3 185.974 356.14 185.394 356.28C184.811 356.497 184.323 356.911 184.014 357.45C183.913 357.623 183.826 357.803 183.754 357.99C183.624 358.288 183.546 358.606 183.524 358.93C183.503 359.255 183.611 359.574 183.824 359.82C184.021 360.037 184.285 360.182 184.574 360.23C184.948 360.297 185.334 360.229 185.664 360.04C186.111 359.746 186.459 359.324 186.664 358.83C186.903 358.299 186.945 357.7 186.784 357.14V357.14Z" fill="#F5F5F5"/>
<path d="M186.523 361.25C186.405 361.466 186.333 361.705 186.313 361.95C186.303 362.073 186.324 362.196 186.373 362.31C186.421 362.423 186.497 362.522 186.593 362.6C186.779 362.696 186.989 362.735 187.198 362.712C187.406 362.689 187.602 362.605 187.763 362.47C188.127 362.254 188.433 361.952 188.653 361.59C188.864 361.224 188.921 360.789 188.813 360.38C188.303 358.77 186.893 360.6 186.523 361.25Z" fill="#F5F5F5"/>
<path d="M145.814 328.62C146.174 331.52 144.814 334.5 145.504 337.35C146.014 339.58 147.644 341.35 148.764 343.35C149.884 345.35 150.414 348.08 148.864 349.76C148.285 350.306 147.571 350.688 146.795 350.864C146.02 351.039 145.211 351.004 144.454 350.76C142.945 350.256 141.575 349.407 140.454 348.28C136.13 344.361 132.945 339.348 131.234 333.77C130.514 331.42 130.074 328.85 130.904 326.53C133.514 319.35 144.894 321.39 145.814 328.62Z" fill="#F5F5F5"/>
<path d="M147.224 320.26C146.936 320.827 146.488 321.297 145.934 321.61C145.609 321.833 145.233 321.969 144.84 322.004C144.448 322.039 144.053 321.972 143.694 321.81C143.393 321.588 143.142 321.304 142.958 320.979C142.774 320.653 142.66 320.292 142.624 319.92C142.43 319.018 142.488 318.08 142.794 317.21C142.951 316.779 143.211 316.393 143.551 316.084C143.89 315.776 144.3 315.555 144.744 315.44C145.194 315.35 145.66 315.417 146.066 315.63C146.472 315.843 146.793 316.189 146.974 316.61C147.423 317.774 147.51 319.046 147.224 320.26V320.26Z" fill="#F5F5F5"/>
<path d="M137.613 316.77C137.723 316.409 137.936 316.089 138.225 315.847C138.515 315.606 138.868 315.454 139.243 315.41C139.618 315.389 139.991 315.48 140.313 315.673C140.636 315.865 140.893 316.15 141.053 316.49C141.143 316.715 141.22 316.946 141.283 317.18C141.395 317.557 141.462 317.947 141.483 318.34C141.516 318.731 141.447 319.124 141.283 319.48C141.054 319.904 140.707 320.252 140.283 320.48C140.023 320.631 139.731 320.716 139.431 320.729C139.132 320.741 138.833 320.679 138.563 320.55C138.303 320.372 138.08 320.144 137.909 319.88C137.737 319.616 137.62 319.32 137.563 319.01C137.349 318.276 137.366 317.494 137.613 316.77V316.77Z" fill="#F5F5F5"/>
<path d="M133.082 317.77C133.158 317.435 133.35 317.138 133.625 316.933C133.9 316.728 134.24 316.627 134.582 316.65C134.922 316.689 135.247 316.812 135.528 317.007C135.809 317.203 136.037 317.465 136.192 317.77C136.293 317.967 136.38 318.171 136.452 318.38C136.571 318.719 136.645 319.072 136.672 319.43C136.701 319.78 136.617 320.131 136.432 320.43C136.217 320.745 135.909 320.986 135.552 321.12C135.328 321.216 135.085 321.261 134.842 321.252C134.598 321.244 134.359 321.181 134.142 321.07C133.661 320.747 133.307 320.266 133.142 319.71C132.918 319.086 132.897 318.407 133.082 317.77V317.77Z" fill="#F5F5F5"/>
<path d="M129.393 319.87C129.653 319.04 130.173 318.87 130.753 318.99C131.342 319.193 131.841 319.597 132.163 320.13C132.265 320.304 132.356 320.484 132.433 320.67C132.566 320.965 132.651 321.279 132.683 321.6C132.71 321.925 132.61 322.248 132.403 322.5C132.208 322.716 131.949 322.863 131.663 322.92C131.289 322.998 130.9 322.941 130.563 322.76C130.119 322.467 129.771 322.05 129.563 321.56C129.298 321.038 129.237 320.435 129.393 319.87V319.87Z" fill="#F5F5F5"/>
<path d="M129.734 323.99C129.856 324.201 129.931 324.437 129.954 324.68C129.965 324.803 129.947 324.926 129.902 325.041C129.857 325.155 129.786 325.258 129.694 325.34C129.509 325.437 129.3 325.478 129.093 325.458C128.885 325.439 128.687 325.359 128.524 325.23C128.155 325.022 127.842 324.727 127.614 324.37C127.503 324.191 127.429 323.992 127.396 323.784C127.363 323.576 127.373 323.364 127.424 323.16C127.894 321.51 129.384 323.34 129.734 323.99Z" fill="#F5F5F5"/>
<path d="M108.014 66C105.712 66.3239 103.366 65.9578 101.272 64.948C99.1788 63.9382 97.4317 62.3301 96.2522 60.3271C95.0726 58.3241 94.5137 56.0163 94.646 53.6956C94.7784 51.3749 95.5961 49.1456 96.9957 47.2897C98.3953 45.4339 100.314 44.0348 102.509 43.2696C104.704 42.5044 107.076 42.4073 109.326 42.9908C111.576 43.5743 113.603 44.812 115.149 46.5474C116.696 48.2828 117.693 50.4379 118.014 52.74C118.439 55.8233 117.626 58.9495 115.752 61.4345C113.878 63.9196 111.095 65.5611 108.014 66V66ZM105.634 48.91C104.561 49.0701 103.559 49.5441 102.754 50.2723C101.95 51.0006 101.379 51.9505 101.113 53.0026C100.847 54.0547 100.899 55.1619 101.261 56.1849C101.623 57.2079 102.279 58.1009 103.148 58.7515C104.016 59.4022 105.058 59.7814 106.141 59.8414C107.225 59.9015 108.302 59.6396 109.237 59.0889C110.172 58.5382 110.923 57.7232 111.396 56.7465C111.869 55.7698 112.042 54.675 111.894 53.6C111.795 52.8793 111.554 52.1854 111.185 51.5586C110.815 50.9317 110.325 50.3844 109.743 49.9482C109.161 49.5119 108.498 49.1956 107.793 49.0174C107.087 48.8392 106.354 48.8027 105.634 48.91V48.91Z" fill="#E0E0E0"/>
<path d="M103.599 19.3154L99.1816 19.9323L103.15 48.3465L107.567 47.7297L103.599 19.3154Z" fill="#E0E0E0"/>
<path d="M107.251 15.4174L98.9648 16.5892L99.5892 21.0046L107.876 19.8328L107.251 15.4174Z" fill="#E0E0E0"/>
<path d="M108.037 21.3628L100.242 22.45L100.858 26.8672L108.653 25.7801L108.037 21.3628Z" fill="#E0E0E0"/>
<path d="M109.171 29.3706L102.367 30.3196L102.983 34.7368L109.787 33.7878L109.171 29.3706Z" fill="#E0E0E0"/>
<path d="M434.783 138.68L433.413 256.26C428.583 295.36 359.243 326.42 359.243 326.42C359.243 326.42 289.893 295.36 285.073 256.26L283.623 138.68L357.723 114.29L434.783 138.68Z" fill="#F5F5F5"/>
<path d="M425.123 146.12L423.893 251.66C419.683 285.77 359.213 312.85 359.213 312.85C359.213 312.85 298.773 285.77 294.553 251.66L293.283 146.12L357.893 124.85L425.123 146.12Z" fill="#E0E0E0"/>
<path d="M420.893 152.77L419.773 249.65C415.823 281.65 359.133 307.01 359.133 307.01C359.133 307.01 302.443 281.63 298.483 249.65L297.283 152.77L357.873 132.77L420.893 152.77Z" stroke="white" stroke-width="3" stroke-linecap="round" stroke-linejoin="round"/>
<path d="M374.503 184.507C383.722 174.877 382.678 158.915 372.169 148.855C361.661 138.795 345.668 138.448 336.449 148.078C327.23 157.709 328.275 173.671 338.783 183.731C349.291 193.79 365.284 194.138 374.503 184.507Z" fill="#407BFF"/>
<g opacity="0.8">
<path opacity="0.8" d="M374.503 184.507C383.722 174.877 382.678 158.915 372.169 148.855C361.661 138.795 345.668 138.448 336.449 148.078C327.23 157.709 328.275 173.671 338.783 183.731C349.291 193.79 365.284 194.138 374.503 184.507Z" fill="white"/>
</g>
<path d="M343.723 150.46C343.568 150.46 343.415 150.424 343.276 150.354C343.137 150.285 343.016 150.184 342.923 150.06C342.845 149.954 342.788 149.834 342.756 149.707C342.724 149.579 342.718 149.447 342.738 149.316C342.757 149.186 342.802 149.062 342.87 148.949C342.938 148.836 343.027 148.738 343.133 148.66C346.496 146.241 350.552 144.978 354.693 145.06C354.958 145.06 355.213 145.165 355.4 145.353C355.588 145.54 355.693 145.795 355.693 146.06C355.693 146.325 355.588 146.58 355.4 146.767C355.213 146.955 354.958 147.06 354.693 147.06C350.981 146.983 347.343 148.109 344.323 150.27C344.149 150.396 343.938 150.463 343.723 150.46Z" fill="#407BFF"/>
<path d="M348.454 184.87C348.29 184.869 348.128 184.828 347.984 184.75C344.921 183.106 342.264 180.8 340.205 177.999C338.147 175.198 336.739 171.974 336.084 168.56C335.449 165.607 335.479 162.55 336.171 159.61C336.862 156.67 338.199 153.92 340.084 151.56C340.164 151.449 340.267 151.355 340.385 151.285C340.503 151.215 340.634 151.17 340.771 151.153C340.907 151.135 341.045 151.147 341.177 151.185C341.309 151.224 341.431 151.29 341.537 151.378C341.642 151.466 341.728 151.575 341.79 151.698C341.851 151.821 341.886 151.955 341.894 152.092C341.901 152.229 341.88 152.366 341.832 152.495C341.784 152.624 341.709 152.741 341.614 152.84C339.911 154.974 338.707 157.461 338.087 160.12C337.468 162.779 337.45 165.543 338.034 168.21C338.631 171.325 339.916 174.267 341.794 176.822C343.673 179.378 346.099 181.481 348.894 182.98C349.096 183.083 349.256 183.252 349.35 183.458C349.443 183.665 349.464 183.897 349.408 184.116C349.352 184.336 349.223 184.53 349.043 184.667C348.862 184.804 348.64 184.876 348.414 184.87H348.454Z" fill="#407BFF"/>
<path d="M358.464 187.47C356.229 187.46 354.009 187.103 351.884 186.41C351.751 186.377 351.626 186.317 351.517 186.234C351.409 186.151 351.318 186.046 351.251 185.926C351.185 185.807 351.143 185.674 351.13 185.538C351.116 185.402 351.131 185.264 351.173 185.134C351.215 185.003 351.283 184.883 351.373 184.78C351.464 184.677 351.574 184.594 351.698 184.535C351.822 184.477 351.956 184.444 352.093 184.44C352.23 184.436 352.366 184.46 352.494 184.51C358.644 186.51 364.784 185.39 369.344 181.51C371.652 179.473 373.395 176.875 374.406 173.967C375.417 171.059 375.661 167.94 375.114 164.91C375.071 164.645 375.136 164.374 375.293 164.156C375.451 163.939 375.688 163.792 375.954 163.75C376.219 163.708 376.49 163.772 376.708 163.93C376.925 164.087 377.071 164.325 377.114 164.59C377.718 167.958 377.443 171.425 376.315 174.655C375.186 177.886 373.243 180.77 370.674 183.03C367.275 185.938 362.937 187.516 358.464 187.47Z" fill="#407BFF"/>
<path d="M375.282 162.34C375.072 162.34 374.866 162.273 374.695 162.149C374.525 162.025 374.398 161.851 374.332 161.65C373.412 158.813 371.907 156.201 369.914 153.983C367.921 151.764 365.485 149.988 362.762 148.77C362.641 148.718 362.532 148.642 362.44 148.548C362.348 148.453 362.276 148.341 362.228 148.218C362.179 148.096 362.156 147.965 362.158 147.833C362.161 147.701 362.189 147.571 362.242 147.45C362.35 147.21 362.547 147.022 362.793 146.926C363.038 146.831 363.311 146.836 363.552 146.94C366.538 148.272 369.21 150.216 371.396 152.647C373.582 155.078 375.233 157.941 376.242 161.05C376.283 161.175 376.298 161.308 376.287 161.439C376.276 161.57 376.24 161.698 376.179 161.815C376.119 161.932 376.036 162.036 375.935 162.121C375.835 162.206 375.718 162.27 375.592 162.31C375.491 162.334 375.387 162.345 375.282 162.34Z" fill="#407BFF"/>
<path d="M359.523 147.62H359.293C357.79 147.261 356.249 147.079 354.703 147.08C354.438 147.08 354.184 146.975 353.996 146.787C353.808 146.6 353.703 146.345 353.703 146.08C353.703 145.815 353.808 145.56 353.996 145.373C354.184 145.185 354.438 145.08 354.703 145.08C356.404 145.081 358.098 145.279 359.753 145.67C360.018 145.7 360.261 145.835 360.427 146.044C360.593 146.253 360.669 146.52 360.638 146.785C360.608 147.05 360.473 147.292 360.264 147.458C360.055 147.624 359.788 147.7 359.523 147.67V147.62Z" fill="#407BFF"/>
<path d="M341.894 171.52C341.69 171.518 341.492 171.454 341.326 171.336C341.159 171.218 341.033 171.052 340.964 170.86C340.028 168.441 339.698 165.829 340.003 163.253C340.308 160.676 341.239 158.214 342.714 156.08C344.112 154.06 345.985 152.415 348.168 151.289C350.351 150.162 352.778 149.589 355.234 149.62C355.499 149.62 355.754 149.725 355.941 149.913C356.129 150.1 356.234 150.355 356.234 150.62C356.234 150.885 356.129 151.14 355.941 151.327C355.754 151.515 355.499 151.62 355.234 151.62C353.1 151.595 350.993 152.093 349.096 153.071C347.199 154.049 345.571 155.477 344.354 157.23C343.063 159.099 342.25 161.255 341.985 163.511C341.72 165.767 342.012 168.053 342.834 170.17C342.925 170.418 342.913 170.692 342.803 170.932C342.692 171.171 342.491 171.358 342.244 171.45C342.134 171.498 342.014 171.522 341.894 171.52V171.52Z" fill="#407BFF"/>
<path d="M357.753 182.93C354.756 182.828 351.828 182.005 349.217 180.531C346.605 179.056 344.388 176.974 342.753 174.46C342.682 174.35 342.632 174.226 342.609 174.097C342.585 173.968 342.586 173.835 342.614 173.706C342.641 173.578 342.694 173.456 342.768 173.348C342.843 173.239 342.938 173.147 343.048 173.075C343.158 173.003 343.282 172.954 343.411 172.93C343.54 172.906 343.673 172.908 343.802 172.936C343.93 172.963 344.052 173.016 344.161 173.09C344.269 173.165 344.362 173.26 344.433 173.37C345.883 175.609 347.852 177.465 350.173 178.781C352.493 180.097 355.097 180.834 357.763 180.93C358.028 180.93 358.283 181.035 358.47 181.223C358.658 181.41 358.763 181.665 358.763 181.93C358.763 182.195 358.658 182.45 358.47 182.637C358.283 182.825 358.028 182.93 357.763 182.93H357.753Z" fill="#407BFF"/>
<path d="M361.483 182.5C361.351 182.516 361.218 182.505 361.091 182.47C360.963 182.434 360.844 182.374 360.74 182.292C360.636 182.21 360.55 182.109 360.485 181.994C360.42 181.878 360.378 181.751 360.363 181.62C360.347 181.489 360.357 181.355 360.393 181.228C360.429 181.101 360.489 180.982 360.571 180.878C360.652 180.774 360.754 180.687 360.869 180.622C360.984 180.557 361.111 180.516 361.243 180.5C369.353 178.5 371.453 171.39 370.783 165.93C369.923 158.81 364.293 151.6 355.223 151.59C354.957 151.59 354.703 151.485 354.516 151.297C354.328 151.11 354.223 150.855 354.223 150.59C354.223 150.325 354.328 150.07 354.516 149.883C354.703 149.695 354.957 149.59 355.223 149.59C365.453 149.59 371.793 157.7 372.773 165.69C373.773 173.94 369.443 180.52 361.723 182.44C361.645 182.47 361.565 182.49 361.483 182.5Z" fill="#407BFF"/>
<path d="M351.144 157.14C350.952 157.14 350.765 157.086 350.604 156.983C350.442 156.88 350.314 156.734 350.234 156.56C350.178 156.441 350.147 156.311 350.141 156.18C350.136 156.048 350.157 155.917 350.202 155.793C350.248 155.67 350.317 155.556 350.407 155.46C350.496 155.363 350.604 155.285 350.724 155.23C352.249 154.534 353.907 154.176 355.584 154.18C355.849 154.18 356.103 154.285 356.291 154.473C356.478 154.66 356.584 154.915 356.584 155.18C356.584 155.445 356.478 155.7 356.291 155.887C356.103 156.075 355.849 156.18 355.584 156.18C354.203 156.18 352.839 156.476 351.584 157.05C351.445 157.111 351.295 157.142 351.144 157.14V157.14Z" fill="#407BFF"/>
<path d="M357.562 178.27C355.03 178.228 352.562 177.462 350.452 176.062C348.341 174.662 346.676 172.687 345.652 170.37C343.582 165.87 344.192 161.15 347.282 157.76C347.464 157.581 347.708 157.479 347.963 157.474C348.218 157.469 348.465 157.561 348.654 157.733C348.843 157.904 348.959 158.141 348.979 158.395C349 158.649 348.922 158.901 348.762 159.1C347.521 160.506 346.733 162.254 346.503 164.115C346.273 165.977 346.611 167.864 347.472 169.53C348.356 171.552 349.815 173.27 351.668 174.468C353.521 175.667 355.686 176.294 357.892 176.27C359.561 176.256 361.19 175.761 362.585 174.844C363.979 173.927 365.079 172.627 365.752 171.1C366.507 169.29 366.734 167.304 366.404 165.371C366.075 163.438 365.204 161.638 363.892 160.18C363.795 160.082 363.719 159.965 363.669 159.837C363.619 159.708 363.596 159.57 363.602 159.432C363.607 159.295 363.642 159.159 363.702 159.035C363.763 158.911 363.848 158.801 363.954 158.712C364.059 158.622 364.181 158.556 364.314 158.516C364.446 158.477 364.585 158.465 364.722 158.482C364.859 158.498 364.991 158.543 365.11 158.614C365.229 158.684 365.332 158.778 365.412 158.89C366.965 160.631 367.992 162.776 368.375 165.077C368.757 167.378 368.479 169.741 367.572 171.89C366.749 173.763 365.402 175.358 363.694 176.485C361.985 177.611 359.988 178.221 357.942 178.24L357.562 178.27Z" fill="#407BFF"/>
<path d="M361.784 158.02C361.592 158.02 361.405 157.964 361.244 157.86C359.556 156.772 357.592 156.189 355.584 156.18C355.319 156.18 355.064 156.075 354.877 155.887C354.689 155.7 354.584 155.445 354.584 155.18C354.584 154.915 354.689 154.66 354.877 154.473C355.064 154.285 355.319 154.18 355.584 154.18C357.976 154.189 360.315 154.883 362.324 156.18C362.546 156.324 362.703 156.549 362.759 156.808C362.815 157.067 362.767 157.337 362.624 157.56C362.534 157.701 362.409 157.817 362.263 157.897C362.116 157.978 361.951 158.02 361.784 158.02Z" fill="#407BFF"/>
<path d="M357.062 173.77C355.894 173.762 354.741 173.498 353.686 172.997C352.63 172.496 351.697 171.77 350.952 170.87C349.989 169.771 349.365 168.417 349.154 166.971C348.943 165.525 349.154 164.049 349.762 162.72C350.298 161.512 351.177 160.489 352.29 159.778C353.404 159.067 354.701 158.699 356.022 158.72C356.288 158.72 356.542 158.825 356.729 159.013C356.917 159.2 357.022 159.455 357.022 159.72C357.022 159.985 356.917 160.24 356.729 160.427C356.542 160.615 356.288 160.72 356.022 160.72C355.087 160.703 354.168 160.96 353.377 161.459C352.586 161.958 351.959 162.678 351.572 163.53C351.134 164.512 350.986 165.6 351.148 166.663C351.309 167.727 351.772 168.722 352.482 169.53C353.189 170.398 354.129 171.048 355.192 171.402C356.254 171.756 357.395 171.8 358.482 171.53C359.363 171.33 360.169 170.882 360.803 170.239C361.438 169.595 361.875 168.784 362.062 167.9C362.09 167.769 362.143 167.644 362.219 167.533C362.294 167.423 362.391 167.328 362.504 167.254C362.616 167.181 362.742 167.131 362.874 167.106C363.005 167.081 363.141 167.082 363.272 167.11C363.404 167.138 363.528 167.191 363.639 167.266C363.75 167.342 363.845 167.439 363.918 167.551C363.991 167.664 364.042 167.789 364.067 167.921C364.091 168.053 364.09 168.189 364.062 168.32C363.799 169.572 363.182 170.722 362.285 171.635C361.389 172.547 360.249 173.184 359.002 173.47C358.371 173.654 357.719 173.755 357.062 173.77Z" fill="#407BFF"/>
<path d="M362.892 165.85C362.679 165.848 362.472 165.779 362.301 165.651C362.13 165.523 362.004 165.344 361.942 165.14C361.54 163.887 360.758 162.79 359.704 162.002C358.651 161.214 357.378 160.772 356.062 160.74C355.797 160.74 355.543 160.635 355.355 160.447C355.168 160.26 355.062 160.005 355.062 159.74C355.062 159.475 355.168 159.22 355.355 159.033C355.543 158.845 355.797 158.74 356.062 158.74C357.802 158.781 359.486 159.362 360.88 160.403C362.274 161.444 363.309 162.894 363.842 164.55C363.921 164.802 363.897 165.075 363.775 165.309C363.653 165.543 363.444 165.72 363.192 165.8C363.096 165.832 362.994 165.849 362.892 165.85Z" fill="#407BFF"/>
<path d="M357.302 169.6C357.037 169.6 356.783 169.495 356.595 169.307C356.408 169.12 356.302 168.865 356.302 168.6C356.302 168.335 356.408 168.08 356.595 167.893C356.783 167.705 357.037 167.6 357.302 167.6C357.443 167.607 357.584 167.585 357.715 167.534C357.846 167.483 357.966 167.405 358.065 167.305C358.164 167.205 358.241 167.085 358.29 166.953C358.34 166.821 358.361 166.681 358.352 166.54C358.358 166.347 358.325 166.154 358.255 165.974C358.185 165.793 358.08 165.628 357.946 165.489C357.812 165.349 357.652 165.238 357.474 165.161C357.297 165.084 357.106 165.043 356.912 165.04C356.765 165.042 356.62 165.074 356.486 165.134C356.352 165.194 356.231 165.281 356.132 165.39C356.025 165.506 355.945 165.644 355.897 165.794C355.848 165.944 355.833 166.103 355.852 166.26C355.86 166.391 355.843 166.523 355.8 166.648C355.757 166.772 355.69 166.887 355.602 166.985C355.515 167.084 355.409 167.164 355.291 167.221C355.172 167.279 355.044 167.312 354.912 167.32C354.781 167.328 354.649 167.31 354.525 167.267C354.4 167.224 354.286 167.157 354.187 167.07C354.089 166.983 354.008 166.877 353.951 166.758C353.894 166.64 353.86 166.511 353.852 166.38C353.821 165.956 353.876 165.53 354.013 165.128C354.151 164.726 354.368 164.356 354.652 164.04C354.939 163.728 355.286 163.478 355.673 163.306C356.061 163.134 356.479 163.044 356.902 163.04C357.36 163.04 357.812 163.131 358.234 163.307C358.656 163.484 359.039 163.742 359.36 164.068C359.681 164.394 359.934 164.78 360.104 165.204C360.275 165.629 360.359 166.083 360.352 166.54C360.369 166.941 360.303 167.341 360.159 167.716C360.015 168.091 359.795 168.432 359.514 168.719C359.233 169.006 358.896 169.232 358.525 169.383C358.153 169.535 357.754 169.609 357.352 169.6H357.302Z" fill="#407BFF"/>
<path d="M383.074 166.28C384.294 180.21 373.994 191.5 360.074 191.5C359.714 191.5 359.354 191.5 358.994 191.5C372.254 190.82 381.874 179.8 380.694 166.31C380.014 159.706 377.02 153.556 372.242 148.947C367.463 144.339 361.208 141.57 354.584 141.13C354.944 141.13 355.304 141.13 355.664 141.13C369.584 141.07 381.894 152.36 383.074 166.28Z" fill="#407BFF"/>
<g opacity="0.4">
<path opacity="0.4" d="M383.074 166.28C384.294 180.21 373.994 191.5 360.074 191.5C359.714 191.5 359.354 191.5 358.994 191.5C372.254 190.82 381.874 179.8 380.694 166.31C380.014 159.706 377.02 153.556 372.242 148.947C367.463 144.339 361.208 141.57 354.584 141.13C354.944 141.13 355.304 141.13 355.664 141.13C369.584 141.07 381.894 152.36 383.074 166.28Z" fill="white"/>
</g>
<path d="M140.953 47.1C140.981 47.3987 141.024 47.6957 141.083 47.99C141.461 49.9142 142.446 51.6666 143.893 52.99C145.543 54.5346 147.713 55.4021 149.973 55.42H234.463C235.449 55.4385 236.429 55.2612 237.346 54.8982C238.262 54.5353 239.098 53.9939 239.804 53.3056C240.51 52.6172 241.072 51.7956 241.458 50.8882C241.845 49.9809 242.047 49.006 242.053 48.02C242.053 47.73 242.053 47.43 242.053 47.13C241.822 44.8893 240.779 42.8106 239.121 41.2855C237.463 39.7604 235.305 38.8942 233.053 38.85H148.523C147.465 38.83 146.414 39.0353 145.441 39.4522C144.467 39.8691 143.594 40.4881 142.878 41.2682C142.162 42.0484 141.62 42.9717 141.289 43.9771C140.957 44.9825 140.842 46.047 140.953 47.1Z" fill="#407BFF"/>
<path opacity="0.8" d="M140.953 47.1C140.981 47.3987 141.024 47.6957 141.083 47.99C141.461 49.9142 142.446 51.6666 143.893 52.99C145.543 54.5346 147.713 55.4021 149.973 55.42H234.463C235.449 55.4385 236.429 55.2612 237.346 54.8982C238.262 54.5353 239.098 53.9939 239.804 53.3056C240.51 52.6172 241.072 51.7956 241.458 50.8882C241.845 49.9809 242.047 49.006 242.053 48.02C242.053 47.73 242.053 47.43 242.053 47.13C241.822 44.8893 240.779 42.8106 239.121 41.2855C237.463 39.7604 235.305 38.8942 233.053 38.85H148.523C147.465 38.83 146.414 39.0353 145.441 39.4522C144.467 39.8691 143.594 40.4881 142.878 41.2682C142.162 42.0484 141.62 42.9717 141.289 43.9771C140.957 44.9825 140.842 46.047 140.953 47.1Z" fill="white"/>
<path d="M242.043 47.99C242.043 48.2578 242.023 48.5252 241.983 48.79C241.685 46.6016 240.613 44.5922 238.963 43.1249C237.312 41.6577 235.191 40.8294 232.983 40.79L143.133 40.93C144.566 39.5359 146.493 38.7664 148.493 38.79H232.983C235.234 38.8384 237.39 39.7062 239.046 41.2304C240.703 42.7547 241.747 44.831 241.983 47.07C242.019 47.3754 242.039 47.6825 242.043 47.99V47.99Z" fill="#407BFF"/>
<path opacity="0.5" d="M242.043 47.99C242.043 48.2578 242.023 48.5252 241.983 48.79C241.685 46.6016 240.613 44.5922 238.963 43.1249C237.312 41.6577 235.191 40.8294 232.983 40.79L143.133 40.93C144.566 39.5359 146.493 38.7664 148.493 38.79H232.983C235.234 38.8384 237.39 39.7062 239.046 41.2304C240.703 42.7547 241.747 44.831 241.983 47.07C242.019 47.3754 242.039 47.6825 242.043 47.99V47.99Z" fill="white"/>
<path d="M227.503 42.77L227.853 46.82L231.613 45.41L232.513 47.41L228.663 48.77L231.423 52.16L229.703 53.44L227.013 49.92L225.013 53.44L223.123 52.16L225.213 48.77L221.213 47.5L221.763 45.5L225.763 46.86L225.413 42.86L227.503 42.77Z" fill="#407BFF"/>
<path d="M204.394 42.77L204.744 46.82L208.514 45.41L209.404 47.41L205.554 48.77L208.324 52.16L206.594 53.44L203.894 49.87L201.894 53.39L200.004 52.11L202.104 48.77L198.104 47.5L198.644 45.5L202.644 46.86L202.294 42.86L204.394 42.77Z" fill="#407BFF"/>
<path d="M181.282 42.77L181.642 46.82L185.402 45.41L186.292 47.41L182.452 48.77L185.212 52.16L183.482 53.44L180.792 49.87L178.792 53.39L176.892 52.11L178.992 48.77L174.992 47.5L175.532 45.5L179.532 46.86L179.182 42.86L181.282 42.77Z" fill="#407BFF"/>
<path d="M158.173 42.77L158.533 46.82L162.293 45.41L163.193 47.41L159.343 48.77L162.103 52.16L160.383 53.44L157.693 49.87L155.693 53.39L153.793 52.11L155.893 48.77L151.893 47.5L152.443 45.5L156.443 46.86L156.093 42.86L158.173 42.77Z" fill="#407BFF"/>
<path d="M214.182 34.9H210.242V35.9H214.182V34.9Z" fill="#407BFF"/>
<path d="M231.114 34.9H218.264V35.9H231.114V34.9Z" fill="#407BFF"/>
<path opacity="0.8" d="M371.693 20.5101L367.603 67.2801C367.481 68.6604 366.876 69.9534 365.893 70.9301C365.337 71.5078 364.671 71.9683 363.934 72.2844C363.197 72.6004 362.404 72.7655 361.603 72.7701H329.133C328.43 72.7739 327.734 72.6295 327.091 72.3463C326.448 72.0632 325.871 71.6477 325.4 71.1268C324.928 70.6059 324.571 69.9915 324.353 69.3235C324.135 68.6555 324.059 67.949 324.133 67.2501L328.223 20.4801C328.376 18.986 329.071 17.5998 330.176 16.583C331.282 15.5661 332.721 14.9888 334.223 14.9601H366.693C367.398 14.9558 368.097 15.1009 368.742 15.3858C369.388 15.6707 369.965 16.0891 370.438 16.6133C370.91 17.1375 371.266 17.7557 371.482 18.4274C371.699 19.099 371.77 19.8088 371.693 20.5101V20.5101Z" fill="#407BFF"/>
<path opacity="0.8" d="M371.693 20.5101L367.603 67.2801C367.481 68.6604 366.876 69.9534 365.893 70.9301C365.337 71.5078 364.671 71.9683 363.934 72.2844C363.197 72.6004 362.404 72.7655 361.603 72.7701H329.133C328.43 72.7739 327.734 72.6295 327.091 72.3463C326.448 72.0632 325.871 71.6477 325.4 71.1268C324.928 70.6059 324.571 69.9915 324.353 69.3235C324.135 68.6555 324.059 67.949 324.133 67.2501L328.223 20.4801C328.376 18.986 329.071 17.5998 330.176 16.583C331.282 15.5661 332.721 14.9888 334.223 14.9601H366.693C367.398 14.9558 368.097 15.1009 368.742 15.3858C369.388 15.6707 369.965 16.0891 370.438 16.6133C370.91 17.1375 371.266 17.7557 371.482 18.4274C371.699 19.099 371.77 19.8088 371.693 20.5101V20.5101Z" fill="white"/>
<path d="M331.184 28.04H331.094C330.963 28.0287 330.835 27.9915 330.718 27.9305C330.6 27.8695 330.497 27.7859 330.412 27.6846C330.327 27.5832 330.264 27.4661 330.225 27.3401C330.185 27.214 330.172 27.0814 330.184 26.95L330.564 22.68C330.584 22.4289 330.698 22.1946 330.884 22.0241C331.069 21.8535 331.312 21.7592 331.564 21.76H336.084C336.349 21.76 336.604 21.8654 336.791 22.0529C336.979 22.2404 337.084 22.4948 337.084 22.76C337.084 23.0252 336.979 23.2796 336.791 23.4671C336.604 23.6547 336.349 23.76 336.084 23.76H332.484L332.194 27.13C332.171 27.3811 332.055 27.6143 331.867 27.783C331.68 27.9518 331.436 28.0436 331.184 28.04Z" fill="#407BFF"/>
<path d="M367.542 28.04H367.452C367.321 28.0287 367.193 27.9915 367.076 27.9305C366.959 27.8695 366.855 27.7859 366.77 27.6846C366.686 27.5832 366.622 27.4661 366.583 27.3401C366.544 27.214 366.53 27.0814 366.542 26.95L366.822 23.76H363.402C363.137 23.76 362.883 23.6546 362.695 23.4671C362.508 23.2796 362.402 23.0252 362.402 22.76C362.402 22.4948 362.508 22.2404 362.695 22.0529C362.883 21.8654 363.137 21.76 363.402 21.76H367.892C368.032 21.7603 368.17 21.7899 368.297 21.8467C368.425 21.9035 368.539 21.9864 368.632 22.09C368.726 22.1918 368.797 22.3119 368.842 22.4428C368.887 22.5736 368.904 22.7122 368.892 22.85L368.522 27.13C368.5 27.3759 368.388 27.6049 368.207 27.7729C368.026 27.9409 367.789 28.0361 367.542 28.04Z" fill="#407BFF"/>
<path d="M332.893 60.3201H328.383C328.244 60.3206 328.106 60.2921 327.978 60.2363C327.851 60.1805 327.736 60.0987 327.642 59.9961C327.548 59.8935 327.476 59.7723 327.432 59.6404C327.387 59.5085 327.37 59.3687 327.383 59.2301L327.753 54.9501C327.777 54.6848 327.905 54.44 328.109 54.2693C328.314 54.0987 328.578 54.0162 328.843 54.0401C329.108 54.0639 329.353 54.1922 329.524 54.3966C329.694 54.601 329.777 54.8648 329.753 55.1301L329.473 58.3201H332.893C333.158 58.3201 333.413 58.4254 333.6 58.613C333.788 58.8005 333.893 59.0548 333.893 59.3201C333.893 59.5853 333.788 59.8396 333.6 60.0272C333.413 60.2147 333.158 60.3201 332.893 60.3201Z" fill="#407BFF"/>
<path d="M364.723 60.3201H360.203C359.938 60.3201 359.684 60.2147 359.496 60.0272C359.308 59.8396 359.203 59.5853 359.203 59.3201C359.203 59.0548 359.308 58.8005 359.496 58.613C359.684 58.4254 359.938 58.3201 360.203 58.3201H363.803L364.093 54.9501C364.117 54.6848 364.245 54.44 364.45 54.2693C364.654 54.0987 364.918 54.0162 365.183 54.0401C365.448 54.0639 365.693 54.1922 365.864 54.3966C366.035 54.601 366.117 54.8648 366.093 55.1301L365.713 59.4001C365.693 59.6495 365.58 59.8823 365.397 60.0526C365.214 60.2229 364.973 60.3184 364.723 60.3201Z" fill="#407BFF"/>
<path d="M361.269 44.1911C363.527 35.4366 359.652 26.8684 352.614 25.0536C345.576 23.2387 338.041 28.8644 335.783 37.6189C333.525 46.3734 337.401 54.9416 344.438 56.7564C351.476 58.5713 359.012 52.9456 361.269 44.1911Z" fill="white"/>
<path d="M352.454 65.79H339.504L340.634 52.84H353.584L352.454 65.79Z" fill="white"/>
<path d="M367.603 67.28C367.481 68.6604 366.876 69.9533 365.893 70.93C365.337 71.5078 364.671 71.9683 363.934 72.2843C363.197 72.6004 362.404 72.7655 361.603 72.77H329.133C328.43 72.7738 327.734 72.6295 327.091 72.3463C326.448 72.0632 325.871 71.6476 325.4 71.1268C324.928 70.6059 324.571 69.9915 324.353 69.3235C324.135 68.6555 324.059 67.949 324.133 67.25C324.133 67.25 339.053 62.53 340.893 62.53H352.423L367.603 67.28Z" fill="white"/>
<path d="M373.578 34.1658L372.064 52.5336L373.061 52.6157L374.574 34.2479L373.578 34.1658Z" fill="#407BFF"/>
<path d="M374.631 25.7606L374.334 29.3684L375.331 29.4505L375.628 25.8427L374.631 25.7606Z" fill="#407BFF"/>
<path d="M240.513 136.61L240.863 137.02L241.323 137.55C241.653 137.9 241.973 138.27 242.323 138.61C243.003 139.33 243.753 140.02 244.513 140.74C246.035 142.141 247.631 143.459 249.293 144.69C250.983 145.94 252.753 147.1 254.543 148.24C255.543 148.78 256.363 149.35 257.303 149.86L259.473 151.06C259.788 151.2 260.143 151.221 260.473 151.12C261.163 150.91 265.193 146.93 266.473 145.46C269.303 142.21 273.613 137.93 275.923 134.29L278.563 137.86C276.931 142.32 274.762 146.565 272.103 150.5C270.664 152.621 268.949 154.542 267.003 156.21C265.827 157.198 264.5 157.991 263.073 158.56C261.272 159.282 259.291 159.429 257.403 158.98C256.91 158.867 256.428 158.71 255.963 158.51L255.073 158.12L253.453 157.38C252.353 156.89 251.303 156.32 250.243 155.79C248.125 154.657 246.069 153.412 244.083 152.06C242.088 150.681 240.172 149.192 238.343 147.6C237.409 146.786 236.518 145.925 235.673 145.02C235.233 144.57 234.803 144.09 234.383 143.61L233.753 142.85C233.533 142.56 233.363 142.35 233.043 141.92L240.513 136.61Z" fill="#FFB573"/>
<path d="M275.572 134.84L280.212 124.92L284.642 132.85C284.642 132.85 281.742 137.85 278.572 137.85L275.572 134.84Z" fill="#FFB573"/>
<path d="M285.443 120.8L290.123 126.82L284.643 132.84L280.213 124.92L285.443 120.8Z" fill="#FFB573"/>
<path d="M283.813 135.59H291.173C291.383 135.593 291.585 135.516 291.739 135.375C291.894 135.234 291.988 135.039 292.003 134.83L293.553 117.16C293.563 117.045 293.549 116.929 293.512 116.819C293.474 116.71 293.415 116.609 293.337 116.524C293.259 116.438 293.164 116.37 293.059 116.323C292.953 116.276 292.839 116.251 292.723 116.25H285.353C285.146 116.252 284.946 116.33 284.792 116.47C284.639 116.611 284.543 116.803 284.523 117.01L282.983 134.68C282.974 134.795 282.988 134.911 283.025 135.021C283.063 135.13 283.122 135.231 283.2 135.316C283.278 135.402 283.372 135.47 283.478 135.517C283.584 135.564 283.698 135.589 283.813 135.59V135.59Z" fill="#407BFF"/>
<path opacity="0.3" d="M283.883 133.81H291.263L292.653 118.02H285.263L283.883 133.81Z" fill="white"/>
<path d="M283.414 131.58L284.724 130.91C285.385 130.567 285.997 130.137 286.544 129.63L286.794 128.75C286.653 128.517 286.44 128.336 286.188 128.235C285.935 128.134 285.656 128.118 285.394 128.19L284.304 128.49L278.904 128.9L278.764 131.17L280.344 133.62H280.894C281.49 133.645 282.075 133.452 282.539 133.076C283.003 132.701 283.314 132.169 283.414 131.58Z" fill="#FFB573"/>
<path d="M231.103 126.91C234.853 126.23 261.303 149.17 261.303 149.17L253.463 160.67C253.463 160.67 224.533 140.53 225.463 135.67C226.343 130.6 225.633 127.91 231.103 126.91Z" fill="#263238"/>
<path opacity="0.2" d="M234.432 134.29L234.152 146.29C237.152 148.62 247.992 156.93 247.992 156.93L234.432 134.29Z" fill="black"/>
<path d="M213.463 365.26L222.343 366.14L225.153 345.57L216.283 344.69L213.463 365.26Z" fill="#FFB573"/>
<path d="M126.143 244.56L123.863 253.2L143.063 261.48L147.033 252.71L126.143 244.56Z" fill="#FFB573"/>
<path d="M228.683 367.92C229.446 368.011 230.218 367.841 230.873 367.44C231.016 367.318 231.128 367.164 231.199 366.99C231.27 366.816 231.299 366.627 231.283 366.44C231.279 366.323 231.245 366.208 231.186 366.107C231.127 366.006 231.043 365.921 230.943 365.86C229.863 365.23 226.243 366.94 225.833 367.14C225.796 367.161 225.766 367.192 225.745 367.229C225.723 367.266 225.713 367.307 225.713 367.35C225.721 367.393 225.741 367.433 225.772 367.465C225.802 367.497 225.84 367.519 225.883 367.53C226.803 367.744 227.74 367.875 228.683 367.92V367.92ZM230.303 366.13C230.438 366.121 230.572 366.149 230.693 366.21C230.736 366.234 230.771 366.268 230.796 366.311C230.821 366.353 230.834 366.401 230.833 366.45C230.846 366.574 230.83 366.7 230.785 366.817C230.739 366.933 230.667 367.037 230.573 367.12C230.013 367.59 228.573 367.63 226.573 367.24C227.755 366.659 229.026 366.28 230.333 366.12L230.303 366.13Z" fill="#407BFF"/>
<path d="M225.892 367.53H225.962C227.052 367.08 229.212 365.21 229.072 364.2C229.012 363.96 228.892 363.66 228.302 363.57C228.093 363.536 227.878 363.545 227.672 363.597C227.465 363.648 227.272 363.741 227.102 363.87C225.962 364.77 225.682 367.17 225.662 367.27C225.653 367.344 225.671 367.418 225.712 367.48C225.765 367.516 225.829 367.534 225.892 367.53V367.53ZM228.092 363.97H228.222C228.602 364.02 228.622 364.17 228.622 364.23C228.712 364.84 227.242 366.31 226.132 366.91C226.235 365.894 226.659 364.938 227.342 364.18C227.569 364.029 227.841 363.962 228.112 363.99L228.092 363.97Z" fill="#407BFF"/>
<path d="M221.894 362.56L213.894 362.89C213.72 362.892 213.553 362.958 213.425 363.077C213.297 363.195 213.218 363.357 213.204 363.53L211.284 374.69C211.273 374.881 211.3 375.071 211.363 375.251C211.426 375.431 211.524 375.597 211.651 375.739C211.778 375.882 211.932 375.997 212.104 376.08C212.276 376.162 212.463 376.21 212.654 376.22H212.824C216.314 376.04 217.994 375.78 222.414 375.63C225.114 375.54 233.414 376.52 237.114 375.68C240.814 374.84 240.114 371.17 238.524 371.19C233.384 371.29 227.454 367.94 224.474 364.03C224.004 363.69 222.454 362.53 221.894 362.56Z" fill="#263238"/>
<path d="M127.944 254.34L132.024 247.41C132.115 247.262 132.15 247.086 132.12 246.915C132.091 246.743 132 246.589 131.864 246.48L123.524 238.82C123.215 238.599 122.832 238.509 122.458 238.569C122.083 238.629 121.748 238.834 121.524 239.14C121.485 239.18 121.454 239.228 121.434 239.28C119.694 242.28 118.994 243.86 116.724 247.65C115.334 249.98 109.984 256.45 108.724 259.97C107.464 263.49 110.874 264.97 111.724 263.59C114.434 259.22 120.454 256.06 125.364 255.68C125.894 255.49 127.674 254.82 127.944 254.34Z" fill="#263238"/>
<path opacity="0.2" d="M225.154 345.57L223.704 356.17L214.834 355.31L216.274 344.7L225.154 345.57Z" fill="black"/>
<path opacity="0.2" d="M152.932 254.84L148.832 264.1L136.482 258.64L139.632 249.82L152.932 254.84Z" fill="black"/>
<path d="M236.764 137.51C241.834 146.13 235.634 153.4 230.464 179.16L197.034 179.25C197.584 165.37 197.524 154.15 191.594 126.84C191.446 126.167 191.451 125.47 191.607 124.799C191.764 124.128 192.069 123.501 192.499 122.963C192.93 122.425 193.475 121.99 194.095 121.691C194.715 121.391 195.395 121.233 196.084 121.23C198.854 121.23 202.324 121.33 205.844 121.69C211.411 122.142 216.941 122.977 222.394 124.19C225.351 124.913 228.26 125.821 231.104 126.91C232.814 127.5 234.894 132.18 236.764 137.51Z" fill="#263238"/>
<path d="M231.703 180.9C231.703 180.9 250.463 235.17 250.013 261.27C249.753 276.22 248.633 304.07 244.123 323.67C240.443 339.67 225.443 349.87 225.443 349.87L213.443 349.15C213.443 349.15 206.893 324.77 208.053 315.04C210.293 295.72 216.963 281.19 216.163 263.45C214.883 234.38 206.283 180.45 206.283 180.45L231.703 180.9Z" fill="#407BFF"/>
<path d="M211.024 352.28L227.974 353.29L229.524 348.19L210.584 346.44L211.024 352.28Z" fill="#263238"/>
<path opacity="0.2" d="M213.174 290.54C213.174 290.54 213.174 290.44 213.264 290.44C223.914 291.44 231.264 276.12 229.524 255.13L223.894 201.63L213.174 290.54Z" fill="black"/>
<path d="M223.283 180.44C223.283 180.44 238.193 275.88 207.173 286.62C190.813 292.82 177.033 286.1 160.733 278.88C151.303 274.7 139.523 263.42 139.523 263.42L144.053 251.09C152.2 248.883 160.725 248.45 169.053 249.82C184.963 252.29 185.623 256.82 191.273 253.4C203.153 224.03 182.713 200.82 196.603 180.4L223.283 180.44Z" fill="#407BFF"/>
<path d="M144.933 248.75L138.883 264.74L143.343 268.15L150.533 249.12L144.933 248.75Z" fill="#263238"/>
<path d="M142.433 162.51C140.923 164.75 133.263 163.24 133.263 163.24L131.643 153.77L141.043 157.54L142.433 162.51Z" fill="#FFB573"/>
<path d="M133.522 153.25L134.992 163.11L129.332 163.96C129.028 163.981 128.725 163.892 128.481 163.708C128.237 163.524 128.067 163.259 128.002 162.96L125.892 155.92C125.856 155.756 125.884 155.584 125.972 155.44C126.06 155.297 126.2 155.193 126.362 155.15L133.522 153.25Z" fill="#FFB573"/>
<path d="M131.003 157.77L134.233 158.34L137.233 156.04L136.053 155.2C135.259 154.631 134.701 153.792 134.483 152.84C134.251 151.838 134.114 150.817 134.073 149.79V149.45C134.033 149.148 133.897 148.867 133.684 148.649C133.472 148.43 133.194 148.287 132.893 148.24L132.093 148.84C131.583 149.93 131.943 151.19 131.883 152.04L131.753 153.7L130.463 154.26L131.003 157.77Z" fill="#FFB573"/>
<path d="M193.213 124.96L174.293 150.96L139.523 157.79V163.49C139.523 163.49 172.183 165.91 179.523 161.63C186.863 157.35 199.183 131.47 199.183 131.47L193.213 124.96Z" fill="#FFB573"/>
<path d="M192.982 74.95C185.052 72.28 175.842 77.21 172.202 84.75C168.562 92.29 169.842 101.55 173.932 108.85C175.281 110.985 176.52 113.188 177.642 115.45C178.77 117.738 179.016 120.362 178.332 122.82C177.522 125.21 176.672 126.74 173.712 126.35C173.712 126.35 173.712 124.72 174.842 124.91C174.842 124.91 172.452 126.25 171.512 125.37C172.592 127.06 175.512 126.44 176.432 124.67C177.832 122.02 175.262 118.43 172.262 118.46C169.262 118.49 166.832 121.52 166.922 124.52C167.05 126.015 167.583 127.447 168.464 128.661C169.345 129.875 170.541 130.826 171.922 131.41C171.111 131.541 170.279 131.4 169.555 131.01C168.832 130.619 168.258 130.001 167.922 129.25C169.282 132.81 173.732 134.39 177.472 133.69C181.212 132.99 184.402 130.58 187.332 128.15C191.332 124.88 195.422 120.73 195.332 115.59C195.242 111.77 192.782 108.47 190.712 105.25C188.642 102.03 186.832 98.08 188.142 94.48C189.262 91.48 192.272 89.59 194.942 87.74C196.862 86.41 200.752 83.44 200.292 80.63C199.832 78 195.232 75.7 192.982 74.95Z" fill="#263238"/>
<path d="M175.103 163.96L169.893 150.1L171.093 150.2C172.062 150.281 173.034 150.08 173.892 149.623C174.751 149.165 175.459 148.47 175.933 147.62C179.933 140.5 190.273 122.43 193.183 121.53C197.333 120.3 201.603 123.62 203.183 128.53C204.363 132.14 192.183 147.61 186.553 156.42C181.553 164.2 175.103 163.96 175.103 163.96Z" fill="#263238"/>
<path d="M123.984 258.9V259.01C124.058 259.202 124.179 259.373 124.336 259.506C124.493 259.639 124.682 259.73 124.884 259.77C125.006 259.81 125.136 259.816 125.261 259.788C125.386 259.76 125.501 259.698 125.594 259.61C126.444 258.85 125.904 255.61 125.854 255.3C125.848 255.259 125.83 255.22 125.801 255.189C125.773 255.159 125.735 255.138 125.694 255.13C125.653 255.12 125.611 255.122 125.572 255.137C125.533 255.151 125.498 255.176 125.474 255.21C124.794 256.17 123.714 257.88 123.984 258.9ZM125.524 255.9C125.714 257.19 125.784 258.9 125.324 259.33C125.275 259.356 125.22 259.37 125.164 259.37C125.108 259.37 125.053 259.356 125.004 259.33C124.868 259.305 124.741 259.246 124.635 259.158C124.528 259.071 124.445 258.958 124.394 258.83C124.224 258.29 124.594 257.19 125.524 255.88V255.9Z" fill="#407BFF"/>
<path d="M125.504 255.77C125.774 256.85 126.784 258.69 127.684 258.91C127.85 258.939 128.021 258.913 128.171 258.835C128.321 258.758 128.441 258.633 128.514 258.48C128.58 258.332 128.615 258.172 128.615 258.01C128.615 257.848 128.58 257.688 128.514 257.54C128.104 256.31 125.744 255.29 125.644 255.24C125.612 255.221 125.576 255.21 125.539 255.21C125.501 255.21 125.465 255.221 125.434 255.24C125.383 255.29 125.354 255.359 125.354 255.43C125.398 255.546 125.448 255.659 125.504 255.77V255.77ZM128.224 257.77C128.248 257.857 128.253 257.949 128.239 258.039C128.226 258.128 128.193 258.214 128.144 258.29C128.014 258.52 127.884 258.53 127.784 258.51C127.164 258.38 126.234 256.88 125.934 255.83C126.704 256.21 127.934 256.95 128.194 257.7V257.77H128.224Z" fill="#407BFF"/>
<path d="M196.894 177.55L195.994 180.77C195.864 181.03 196.164 181.29 196.584 181.28H231.074C231.204 181.303 231.338 181.279 231.453 181.213C231.568 181.148 231.657 181.044 231.704 180.92L232.024 177.66C232.024 177.44 231.754 177.25 231.394 177.26H197.504C197.385 177.248 197.265 177.268 197.158 177.32C197.05 177.371 196.959 177.45 196.894 177.55V177.55Z" fill="#407BFF"/>
<path opacity="0.5" d="M196.894 177.55L195.994 180.77C195.864 181.03 196.164 181.29 196.584 181.28H231.074C231.204 181.303 231.338 181.279 231.453 181.213C231.568 181.148 231.657 181.044 231.704 180.92L232.024 177.66C232.024 177.44 231.754 177.25 231.394 177.26H197.504C197.385 177.248 197.265 177.268 197.158 177.32C197.05 177.371 196.959 177.45 196.894 177.55V177.55Z" fill="white"/>
<path d="M203.503 181.61H202.503C202.313 181.61 202.163 181.51 202.183 181.39L202.633 177.16C202.633 177.04 202.813 176.94 203.013 176.94H204.013C204.203 176.94 204.363 177.04 204.343 177.17L203.893 181.39C203.893 181.5 203.693 181.61 203.503 181.61Z" fill="#407BFF"/>
<path d="M228.404 181.61H227.404C227.214 181.61 227.054 181.51 227.074 181.39L227.524 177.17C227.524 177.04 227.714 176.94 227.904 176.94H228.904C229.094 176.94 229.244 177.04 229.234 177.16L228.784 181.38C228.774 181.51 228.604 181.61 228.404 181.61Z" fill="#407BFF"/>
<path d="M217.003 181.58H216.003C215.813 181.58 215.663 181.47 215.683 181.36L216.133 177.14C216.133 177.01 216.313 176.91 216.503 176.91H217.503C217.693 176.91 217.853 177.01 217.833 177.13L217.383 181.35C217.363 181.49 217.203 181.59 217.003 181.58Z" fill="#407BFF"/>
<path d="M207.402 103.49C208.462 108.93 209.503 118.77 205.812 121.74C205.812 121.74 207.283 127.33 217.173 128.81C228.093 130.46 222.363 124.24 222.363 124.24C216.423 121.89 216.562 117.59 217.592 113.63L207.402 103.49Z" fill="#FFB573"/>
<path d="M205.894 121.69C211.164 122.024 216.402 122.753 221.564 123.87L229.054 126.09C230.384 128.78 228.204 134.29 221.934 135.33C221.934 135.33 206.164 137.51 201.514 121.27L205.894 121.69Z" fill="#FFB573"/>
<path opacity="0.2" d="M211.553 107.63L217.553 113.63C217.302 114.56 217.134 115.51 217.053 116.47C214.783 115.8 211.123 113.29 210.873 110.89C210.877 109.769 211.108 108.659 211.553 107.63V107.63Z" fill="black"/>
<path d="M200.734 96.6C203.404 105.07 204.354 108.71 209.834 112.04C218.024 117.04 227.834 111.92 227.744 102.83C227.664 94.65 223.314 82.19 214.014 80.83C211.973 80.5259 209.887 80.7489 207.957 81.478C206.026 82.207 204.314 83.4178 202.983 84.9952C201.652 86.5726 200.747 88.4641 200.353 90.4901C199.959 92.516 200.09 94.609 200.734 96.57V96.6Z" fill="#FFB573"/>
<path d="M220.893 95.29C221.845 96.773 222.996 98.1189 224.313 99.29C224.004 99.6229 223.627 99.8847 223.208 100.057C222.788 100.23 222.336 100.309 221.883 100.29L220.893 95.29Z" fill="#ED893E"/>
<path d="M219.963 104.77C220.301 104.736 220.635 104.673 220.963 104.58C220.989 104.575 221.014 104.565 221.036 104.55C221.058 104.536 221.077 104.516 221.091 104.494C221.105 104.471 221.115 104.446 221.118 104.419C221.122 104.393 221.12 104.366 221.113 104.34C221.098 104.287 221.065 104.241 221.019 104.212C220.972 104.182 220.917 104.171 220.863 104.18C220 104.427 219.092 104.465 218.212 104.291C217.332 104.117 216.506 103.736 215.803 103.18C215.759 103.154 215.707 103.143 215.657 103.151C215.606 103.158 215.56 103.183 215.526 103.221C215.491 103.258 215.471 103.307 215.469 103.358C215.467 103.409 215.482 103.459 215.513 103.5C216.133 103.996 216.846 104.363 217.61 104.581C218.374 104.799 219.174 104.863 219.963 104.77V104.77Z" fill="#263238"/>
<path d="M197.823 79.7101C196.72 80.4257 195.805 81.3944 195.153 82.5355C194.5 83.6766 194.13 84.957 194.073 86.2701C194.032 86.7681 194.111 87.2686 194.303 87.7301C194.403 87.9602 194.562 88.1599 194.764 88.3091C194.966 88.4583 195.203 88.5518 195.453 88.5801C196.213 88.5801 196.773 87.9101 197.193 87.2701L199.123 84.2701C199.916 83.2912 200.587 82.2201 201.123 81.0801C201.773 79.1101 199.003 78.9601 197.823 79.7101Z" fill="#407BFF"/>
<path d="M198.773 81.71C193.453 87.84 191.083 104.84 206.633 109.57C209.233 107.57 205.033 103.77 203.253 99.03C202.093 95.92 208.013 90.13 210.323 87.76C212.633 85.39 214.763 81.95 218.033 82.5C218.861 82.7719 219.751 82.7963 220.593 82.57C223.173 81.4 221.923 79.85 220.593 78.76C218.548 77.26 216.122 76.366 213.593 76.18C210.861 75.8579 208.091 76.1915 205.514 77.1532C202.937 78.1149 200.626 79.677 198.773 81.71V81.71Z" fill="#263238"/>
<path d="M216.044 79.65C222.284 84.86 214.044 84.99 209.674 88.29C205.304 91.59 208.414 96.65 201.334 99.05C195.534 100.75 194.204 99.73 192.594 98.61C194.577 98.2648 196.391 97.2736 197.753 95.7905C199.115 94.3075 199.948 92.4159 200.124 90.41C200.624 86.62 208.894 73.61 216.044 79.65Z" fill="#263238"/>
<path d="M199.783 103.71C200.264 104.412 200.88 105.011 201.594 105.474C202.308 105.938 203.106 106.256 203.943 106.41C206.183 106.81 207.043 104.75 206.273 102.76C205.553 100.96 203.513 98.59 201.353 99.1C200.982 99.1945 200.634 99.361 200.328 99.5901C200.022 99.8192 199.764 100.106 199.569 100.435C199.374 100.764 199.246 101.128 199.192 101.506C199.137 101.884 199.158 102.27 199.253 102.64C199.351 103.03 199.532 103.395 199.783 103.71V103.71Z" fill="#FFB573"/>
<path d="M214.964 80.18C216.174 83.25 219.664 82.85 222.254 86.07C223.834 88.07 226.954 81.9 222.714 79.46C218.474 77.02 213.064 75.36 214.964 80.18Z" fill="#263238"/>
<path d="M211.293 93.18C211.381 93.1906 211.47 93.1718 211.546 93.1266C211.622 93.0814 211.68 93.0122 211.713 92.93C212.543 91.1 215.003 90.65 215.023 90.64C215.082 90.6348 215.138 90.6173 215.19 90.5887C215.241 90.5601 215.286 90.5211 215.321 90.474C215.357 90.427 215.382 90.3731 215.395 90.3157C215.408 90.2584 215.409 90.1989 215.398 90.1412C215.387 90.0835 215.363 90.0287 215.33 89.9806C215.296 89.9324 215.252 89.8918 215.202 89.8616C215.152 89.8313 215.095 89.8119 215.037 89.8048C214.978 89.7976 214.919 89.8028 214.863 89.82C214.743 89.82 211.933 90.4 210.943 92.6C210.919 92.6499 210.906 92.704 210.903 92.7591C210.9 92.8143 210.908 92.8695 210.927 92.9215C210.945 92.9735 210.974 93.0213 211.011 93.0623C211.048 93.1032 211.093 93.1364 211.143 93.16L211.293 93.18Z" fill="#263238"/>
<path d="M224.293 89.5C224.366 89.5053 224.439 89.4904 224.504 89.4569C224.569 89.4234 224.624 89.3726 224.663 89.31C224.724 89.2183 224.747 89.106 224.727 88.9975C224.706 88.8889 224.643 88.7928 224.553 88.73V88.73C223.997 88.3495 223.359 88.1074 222.691 88.0239C222.023 87.9404 221.344 88.018 220.713 88.25C220.625 88.3046 220.56 88.3888 220.529 88.4874C220.499 88.586 220.504 88.6923 220.546 88.7869C220.587 88.8815 220.661 88.9582 220.754 89.0028C220.847 89.0474 220.953 89.0571 221.053 89.03V89.03C221.55 88.8537 222.082 88.7999 222.604 88.873C223.126 88.9461 223.623 89.144 224.053 89.45C224.129 89.4791 224.21 89.496 224.293 89.5V89.5Z" fill="#263238"/>
<path d="M265.403 144.24L259.553 147.57L253.463 160.67C253.463 160.67 259.343 164.41 263.973 161.38C268.603 158.35 265.403 144.24 265.403 144.24Z" fill="#407BFF"/>
<path opacity="0.5" d="M265.403 144.24L259.553 147.57L253.463 160.67C253.463 160.67 259.343 164.41 263.973 161.38C268.603 158.35 265.403 144.24 265.403 144.24Z" fill="white"/>
<path d="M162.893 148.29L169.833 150.29L176.403 163.88C176.403 163.88 171.113 168.76 165.403 164.1C161.143 160.55 162.893 148.29 162.893 148.29Z" fill="#407BFF"/>
<g opacity="0.5">
<path opacity="0.5" d="M162.893 148.29L169.833 150.29L176.403 163.88C176.403 163.88 171.113 168.76 165.403 164.1C161.143 160.55 162.893 148.29 162.893 148.29Z" fill="white"/>
</g>
<path d="M223.894 92.8901C224.374 92.8001 224.894 93.34 225.004 94.08C225.114 94.82 224.844 95.5 224.364 95.58C223.884 95.66 223.364 95.1301 223.254 94.3901C223.144 93.6501 223.404 92.9801 223.894 92.8901Z" fill="#263238"/>
<path d="M225.364 92.16L223.674 92.99C224.694 93.71 225.364 92.16 225.364 92.16Z" fill="#263238"/>
<path d="M215.514 94.6C215.994 94.51 216.514 95.05 216.624 95.79C216.734 96.53 216.464 97.21 215.984 97.29C215.504 97.37 214.984 96.84 214.874 96.1C214.764 95.36 215.034 94.69 215.514 94.6Z" fill="#263238"/>
<path d="M216.993 93.87L215.303 94.7C216.323 95.42 216.993 93.87 216.993 93.87Z" fill="#263238"/>
<path d="M173.203 132.87C172.258 132.875 171.321 132.699 170.443 132.35C167.353 131.08 165.903 127.85 166.443 123.49C166.46 123.359 166.529 123.24 166.634 123.159C166.739 123.079 166.872 123.043 167.003 123.06C167.135 123.08 167.254 123.151 167.334 123.257C167.415 123.364 167.45 123.498 167.433 123.63C166.913 127.5 168.133 130.34 170.773 131.42C172.312 131.946 173.979 131.971 175.534 131.494C177.089 131.016 178.454 130.059 179.433 128.76C181.933 125.42 181.123 120.68 177.203 115.76C166.963 102.91 167.653 96.0799 169.093 90.6799C171.193 82.8399 177.353 73.8599 194.743 75.5799C194.809 75.5862 194.873 75.6054 194.931 75.6365C194.989 75.6676 195.041 75.7099 195.083 75.7611C195.124 75.8122 195.156 75.8711 195.175 75.9345C195.194 75.9978 195.2 76.0642 195.193 76.1299C195.188 76.1953 195.17 76.259 195.14 76.3172C195.11 76.3755 195.068 76.4271 195.018 76.4691C194.968 76.511 194.909 76.5425 194.847 76.5615C194.784 76.5805 194.718 76.5868 194.653 76.5799C177.963 74.9199 172.063 83.4699 170.063 90.9399C168.613 96.3399 168.063 102.65 177.983 115.14C183.983 122.67 181.553 127.59 180.233 129.36C179.4 130.435 178.335 131.309 177.118 131.917C175.901 132.524 174.563 132.85 173.203 132.87V132.87Z" fill="#263238"/>
</svg>
