<svg width="48" height="48" viewBox="0 0 48 48" fill="none" xmlns="http://www.w3.org/2000/svg">
<circle cx="24" cy="24" r="24" fill="#DFEBFF"/>
<path d="M24 24C27.7875 24 30.8571 20.8664 30.8571 17C30.8571 13.1336 27.7875 10 24 10C20.2125 10 17.1429 13.1336 17.1429 17C17.1429 20.8664 20.2125 24 24 24ZM28.8 25.75H27.9054C26.7161 26.3078 25.3929 26.625 24 26.625C22.6071 26.625 21.2893 26.3078 20.0946 25.75H19.2C15.225 25.75 12 29.0422 12 33.1V35.375C12 36.8242 13.1518 38 14.5714 38H33.4286C34.8482 38 36 36.8242 36 35.375V33.1C36 29.0422 32.775 25.75 28.8 25.75Z" fill="#0B5EE8"/>
</svg>
