<svg width="26" height="21" viewBox="0 0 26 21" fill="none" xmlns="http://www.w3.org/2000/svg">
<path d="M25.7559 19.3184L1.46285 0.143965C1.39622 0.0901026 1.31973 0.0500181 1.23776 0.0260004C1.15578 0.00198269 1.06993 -0.00549796 0.985089 0.00398559C0.90025 0.0134691 0.818093 0.0397311 0.743307 0.0812722C0.668521 0.122813 0.602572 0.17882 0.549224 0.246094L0.142986 0.758379C0.0895133 0.825677 0.0497084 0.902959 0.0258493 0.985805C0.00199021 1.06865 -0.0054547 1.15543 0.00394057 1.24119C0.0133358 1.32694 0.0393869 1.40998 0.080603 1.48556C0.121819 1.56114 0.177391 1.62777 0.24414 1.68164L24.5371 20.856C24.6038 20.9099 24.6803 20.95 24.7622 20.974C24.8442 20.998 24.9301 21.0055 25.0149 20.996C25.0998 20.9865 25.1819 20.9603 25.2567 20.9187C25.3315 20.8772 25.3974 20.8212 25.4508 20.7539L25.857 20.2416C25.9105 20.1743 25.9503 20.097 25.9742 20.0142C25.998 19.9313 26.0055 19.8446 25.9961 19.7588C25.9867 19.6731 25.9606 19.59 25.9194 19.5144C25.8782 19.4389 25.8226 19.3722 25.7559 19.3184ZM12.0571 6.00756L17.5328 10.3298C17.4426 7.87131 15.4569 5.90625 13 5.90625C12.6831 5.90685 12.3671 5.9408 12.0571 6.00756ZM13.9429 14.9929L8.4672 10.6706C8.55779 13.1287 10.5435 15.0938 13 15.0938C13.3169 15.0931 13.6329 15.0593 13.9429 14.9929ZM13 4.59375C17.0075 4.59375 20.6815 6.84961 22.6656 10.5C22.1793 11.3984 21.5783 12.2285 20.8782 12.9691L22.4113 14.1791C23.2649 13.2572 23.9881 12.2204 24.5603 11.0984C24.6532 10.9128 24.7017 10.7078 24.7017 10.4998C24.7017 10.2918 24.6532 10.0868 24.5603 9.90117C22.3552 5.56131 17.9939 2.625 13 2.625C11.5091 2.625 10.0869 2.91211 8.74954 3.3965L10.6349 4.88496C11.4043 4.70859 12.1924 4.59375 13 4.59375ZM13 16.4062C8.99247 16.4062 5.31886 14.1504 3.33439 10.5C3.82138 9.60162 4.42301 8.77162 5.12387 8.03127L3.59072 6.82131C2.73728 7.74313 2.01423 8.77971 1.44213 9.90158C1.3492 10.0872 1.30079 10.2922 1.30079 10.5002C1.30079 10.7082 1.3492 10.9132 1.44213 11.0988C3.64516 15.4387 8.00653 18.375 13 18.375C14.4909 18.375 15.9131 18.0858 17.2505 17.6035L15.3651 16.1154C14.5957 16.2914 13.808 16.4062 13 16.4062Z" fill="#828282"/>
</svg>
