<svg xmlns="http://www.w3.org/2000/svg" viewBox="0 0 493 422"><defs><style>.cls-1{fill:#ebebeb;}.cls-2{fill:#e6e6e6;}.cls-3{fill:#f0f0f0;}.cls-4,.cls-9{fill:#fff;}.cls-5{fill:#e0e0e0;}.cls-6{fill:#f5f5f5;}.cls-7{fill:#fafafa;}.cls-10,.cls-17,.cls-8{fill:#407bff;}.cls-16,.cls-17,.cls-9{opacity:0.3;}.cls-10{opacity:0.6;}.cls-11{fill:#263238;}.cls-12{fill:#ff8b7b;}.cls-13{fill:#ff5652;}.cls-14{opacity:0.2;}.cls-15{opacity:0.4;}</style></defs><title>passvvord</title><g id="Character_1" data-name="Character 1"><rect class="cls-1" x="-3.5" y="352.14" width="500" height="0.25"/><rect class="cls-1" x="286.71" y="358.95" width="25.46" height="0.25"/><rect class="cls-1" x="391.61" y="364.36" width="60.33" height="0.25"/><rect class="cls-1" x="218.96" y="359.08" width="62.33" height="0.25"/><rect class="cls-1" x="165.5" y="366.56" width="13.04" height="0.25"/><rect class="cls-1" x="191.21" y="366.56" width="59.38" height="0.25"/><rect class="cls-1" x="48.96" y="362.33" width="38.45" height="0.25"/><path class="cls-1" d="M233.51,307.54H40.41a5.71,5.71,0,0,1-5.7-5.71V30.4a5.71,5.71,0,0,1,5.7-5.7h193.1a5.71,5.71,0,0,1,5.71,5.7V301.83A5.71,5.71,0,0,1,233.51,307.54ZM40.41,25A5.46,5.46,0,0,0,35,30.4V301.83a5.46,5.46,0,0,0,5.45,5.46h193.1a5.47,5.47,0,0,0,5.46-5.46V30.4A5.46,5.46,0,0,0,233.51,25Z"/><path class="cls-1" d="M449.81,307.54H256.71a5.72,5.72,0,0,1-5.71-5.71V30.4a5.72,5.72,0,0,1,5.71-5.7h193.1a5.71,5.71,0,0,1,5.71,5.7V301.83A5.71,5.71,0,0,1,449.81,307.54ZM256.71,25a5.46,5.46,0,0,0-5.46,5.45V301.83a5.47,5.47,0,0,0,5.46,5.46h193.1a5.47,5.47,0,0,0,5.46-5.46V30.4A5.46,5.46,0,0,0,449.81,25Z"/><polygon class="cls-2" points="192.46 265.41 126.06 265.41 122.03 218.91 188.43 218.91 192.46 265.41"/><polygon class="cls-3" points="195.9 265.41 129.5 265.41 125.47 218.91 191.87 218.91 195.9 265.41"/><polygon class="cls-4" points="138.58 255.42 136.36 228.9 182.79 228.9 185.01 255.42 138.58 255.42"/><rect class="cls-2" x="199.6" y="265.41" width="7.79" height="86.73"/><rect class="cls-3" x="204.44" y="265.41" width="5.41" height="86.73"/><rect class="cls-3" x="134.44" y="265.41" width="75.41" height="9.57" transform="translate(344.29 540.39) rotate(180)"/><rect class="cls-2" x="129.31" y="274.98" width="7.79" height="77.16"/><rect class="cls-3" x="134.15" y="274.98" width="5.41" height="77.16"/><rect class="cls-2" x="73.86" y="274.98" width="7.79" height="77.16"/><rect class="cls-3" x="78.7" y="274.98" width="5.41" height="77.16"/><rect class="cls-2" x="150.3" y="274.98" width="7.79" height="77.16"/><rect class="cls-3" x="155.13" y="274.98" width="5.41" height="77.16"/><rect class="cls-2" x="73.86" y="265.41" width="60.58" height="9.57"/><rect class="cls-5" x="126.01" y="49.16" width="234.33" height="130.46"/><rect class="cls-6" x="127.19" y="49.16" width="246.02" height="130.46"/><rect class="cls-4" x="188.99" y="-4.6" width="122.42" height="237.98" transform="translate(364.58 -135.81) rotate(90)"/><polygon class="cls-6" points="227.57 175.59 272.5 53.18 198.34 53.18 153.42 175.59 227.57 175.59"/><polygon class="cls-6" points="298.94 175.59 343.87 53.18 287.93 53.18 243 175.59 298.94 175.59"/><rect class="cls-2" x="414.69" y="227.55" width="19.92" height="124.6"/><polygon class="cls-7" points="429.37 352.14 434.61 352.14 434.61 342.55 423.88 342.55 429.37 352.14"/><rect class="cls-2" x="231.03" y="227.55" width="19.92" height="124.6"/><rect class="cls-7" x="246.38" y="227.55" width="188.23" height="122.01"/><path class="cls-2" d="M431.05,266.91H250V232.45h181.1Zm-180.1-1h179.1V233.45H251Z"/><path class="cls-2" d="M399.17,249.18H285.34c-5.28,0-10.37-4.26-14-11.69l-.34-.72H413.47l-.34.72C409.54,244.92,404.45,249.18,399.17,249.18ZM272.64,237.77c3.38,6.63,8,10.41,12.7,10.41H399.17c4.72,0,9.32-3.78,12.7-10.41Z"/><polygon class="cls-7" points="251.62 352.14 246.38 352.14 246.38 342.55 257.11 342.55 251.62 352.14"/><path class="cls-2" d="M431.05,305.78H250V271.32h181.1Zm-180.1-1h179.1V272.32H251Z"/><path class="cls-2" d="M399.17,288.05H285.34c-5.28,0-10.37-4.26-14-11.7l-.34-.71H413.47l-.34.71C409.54,283.79,404.45,288.05,399.17,288.05ZM272.64,276.64c3.38,6.63,8,10.41,12.7,10.41H399.17c4.72,0,9.32-3.78,12.7-10.41Z"/><path class="cls-2" d="M431.05,344.65H250V310.19h181.1Zm-180.1-1h179.1V311.19H251Z"/><path class="cls-2" d="M399.17,326.92H285.34c-5.28,0-10.37-4.27-14-11.7l-.34-.72H413.47l-.34.72C409.54,322.65,404.45,326.92,399.17,326.92ZM272.64,315.5c3.38,6.63,8,10.42,12.7,10.42H399.17c4.72,0,9.32-3.79,12.7-10.42Z"/><polygon class="cls-2" points="117.48 244.03 117.48 246.44 115.94 246.44 114.66 265.41 95.82 265.41 94.55 246.44 93 246.44 93 244.03 117.48 244.03"/><path class="cls-2" d="M111.28,197c-1.54-11.29-16.79-14.52-36.14-14.93-18.41-.4-24.31-6.91-24.31-6.91s.06,26.38,26.59,35.93C102.61,220.11,112.83,208.27,111.28,197Z"/><path class="cls-2" d="M101.88,222.57c.32-4.65,7.74-13.19,25.59-9.31,12.9,2.81,17.7-3.88,17.7-3.88s-1.2,18.88-20.6,24.56C106.14,239.33,101.31,230.74,101.88,222.57Z"/><path class="cls-2" d="M106,251.15a.7.7,0,0,0,.53-.25c1.29-1.53.23-5.19-1.23-10.26-1.88-6.5-4.22-14.59-2.24-20.47a82.16,82.16,0,0,1,3.84-9.07c2.8-5.93,5.22-11,3.2-16.39a.7.7,0,0,0-.89-.4.7.7,0,0,0-.4.89c1.81,4.8-.38,9.44-3.16,15.31a86.46,86.46,0,0,0-3.9,9.22c-2.11,6.29.29,14.61,2.22,21.3,1.14,3.94,2.32,8,1.51,9a.68.68,0,0,0,.08,1A.67.67,0,0,0,106,251.15Z"/><ellipse id="_Path_" data-name="&lt;Path&gt;" class="cls-6" cx="246.5" cy="385.98" rx="193.89" ry="11.32"/><polygon class="cls-8" points="246.46 330.79 104.46 330.79 96.69 102.42 238.69 102.42 246.46 330.79"/><polygon class="cls-8" points="253.55 323.7 111.55 323.7 103.77 95.34 245.77 95.34 253.55 323.7"/><polygon class="cls-9" points="253.55 323.7 111.55 323.7 103.77 95.34 245.77 95.34 253.55 323.7"/><ellipse class="cls-8" cx="177" cy="160.84" rx="39.27" ry="40.63" transform="translate(-61.78 174.3) rotate(-45.49)"/><path class="cls-4" d="M210,160.83a32,32,0,0,1-3.45,15.7,31.6,31.6,0,0,1-28.4,17.27,34.27,34.27,0,0,1-29.56-17.27,33.46,33.46,0,0,1-4.52-15.7,31.64,31.64,0,0,1,31.84-33A34.35,34.35,0,0,1,210,160.83Z"/><path class="cls-10" d="M206.52,176.53a31.6,31.6,0,0,1-28.4,17.27,34.27,34.27,0,0,1-29.56-17.27,50.59,50.59,0,0,1,28.68-8.78A53.48,53.48,0,0,1,206.52,176.53Z"/><ellipse class="cls-10" cx="176.62" cy="149.55" rx="14.44" ry="14.94" transform="translate(-53.85 170.65) rotate(-45.49)"/><polygon class="cls-4" points="225.02 241 134.44 241 133.83 223 224.41 223 225.02 241"/><polygon class="cls-4" points="226.12 273.18 135.53 273.18 134.92 255.18 225.51 255.18 226.12 273.18"/><path class="cls-8" d="M191.16,257.65l-21.83,3a1.53,1.53,0,0,0-1.32,1.81l2.87,14.62a1.75,1.75,0,0,0,1.94,1.37l21.83-3a1.52,1.52,0,0,0,1.31-1.81L193.1,259A1.76,1.76,0,0,0,191.16,257.65Zm-6.27,14.82-4,.54-.39-4.72a2.82,2.82,0,0,1-1.63-2,2.48,2.48,0,0,1,2.16-3,2.86,2.86,0,0,1,3.16,2.23,2.43,2.43,0,0,1-.78,2.32Z"/><path class="cls-8" d="M189,256.87h0a1.57,1.57,0,0,1-1.72-1.21l-.28-1.44a8.23,8.23,0,0,0-8.62-6.56,7,7,0,0,0-6.46,8.4l.32,1.64a1.35,1.35,0,0,1-1.17,1.61h0a1.56,1.56,0,0,1-1.72-1.22l-.27-1.39a9.86,9.86,0,0,1,8-11.75,11.2,11.2,0,0,1,12.8,8.67l.32,1.64A1.35,1.35,0,0,1,189,256.87Z"/><polygon class="cls-8" points="211.17 298.38 152.2 298.38 151.8 286.67 210.77 286.67 211.17 298.38"/><path class="cls-11" d="M182.72,232a3.17,3.17,0,0,1-3.18,3.3,3.45,3.45,0,0,1-3.41-3.3,3.17,3.17,0,0,1,3.18-3.29A3.44,3.44,0,0,1,182.72,232Z"/><path class="cls-11" d="M168.54,232a3.16,3.16,0,0,1-3.18,3.3A3.44,3.44,0,0,1,162,232a3.16,3.16,0,0,1,3.18-3.29A3.43,3.43,0,0,1,168.54,232Z"/><path class="cls-11" d="M154.37,232a3.17,3.17,0,0,1-3.18,3.3,3.43,3.43,0,0,1-3.4-3.3,3.16,3.16,0,0,1,3.18-3.29A3.43,3.43,0,0,1,154.37,232Z"/><path class="cls-11" d="M196.89,232a3.17,3.17,0,0,1-3.18,3.3,3.43,3.43,0,0,1-3.4-3.3,3.16,3.16,0,0,1,3.18-3.29A3.43,3.43,0,0,1,196.89,232Z"/><path class="cls-11" d="M211.06,232a3.16,3.16,0,0,1-3.18,3.3,3.44,3.44,0,0,1-3.4-3.3,3.16,3.16,0,0,1,3.18-3.29A3.43,3.43,0,0,1,211.06,232Z"/><path class="cls-12" d="M330.41,144c1.33,2.14,2.44,4.19,3.58,6.31s2.17,4.28,3.18,6.46a92.77,92.77,0,0,1,5.1,13.73c.18.59.31,1.22.46,1.84l.22.92.11.47.13.76a13.63,13.63,0,0,1-.31,5.15,29.08,29.08,0,0,1-3.12,7.45,59,59,0,0,1-8.88,11.68l-4.21-3.19a111.39,111.39,0,0,0,5.63-12,24.86,24.86,0,0,0,1.53-5.63,4.46,4.46,0,0,0-.08-1.77l-.4-1.22c-.16-.5-.31-1-.5-1.5a113.55,113.55,0,0,0-5.27-12.09c-2-4-4.15-8-6.3-11.82Z"/><path class="cls-12" d="M327.74,194.17l-4.6,2.44,5.28,6.18s3.3-2.23,3.45-5.64Z"/><polygon class="cls-12" points="316.97 200.42 322.62 204.9 328.42 202.79 323.14 196.61 316.97 200.42"/><path class="cls-11" d="M297.65,111.31c-.11.55-.5.94-.86.87s-.57-.58-.46-1.14.5-1,.87-.87S297.76,110.75,297.65,111.31Z"/><path class="cls-13" d="M297.2,112.26a20,20,0,0,1-3.62,4.22,3.26,3.26,0,0,0,2.55,1Z"/><path class="cls-12" d="M295.4,131.88l0-6.55,8.68,1s-.14,5.63-5,7.29Z"/><polygon class="cls-12" points="297.9 120.61 304.01 122.36 304.12 126.38 295.44 125.33 297.9 120.61"/><path class="cls-14" d="M304,122.36l-6.11-1.76-1.19,2.28a9.73,9.73,0,0,0,5.64,8.48,9.56,9.56,0,0,0,1.77-5Z"/><path class="cls-11" d="M300.31,108.63a.38.38,0,0,0,.23-.08.34.34,0,0,0,0-.48,3.32,3.32,0,0,0-2.84-1.1.34.34,0,0,0-.27.39.33.33,0,0,0,.38.27h0a2.65,2.65,0,0,1,2.24.9A.31.31,0,0,0,300.31,108.63Z"/><path class="cls-12" d="M313.09,121.43c-1,5.14-1.62,12.27,2,15.7,0,0-1.4,5.22-11,5.22-10.51,0-5.05-4.58-5.05-4.58,4.37-1.35,4.33-6.33,3.33-10.33Z"/><path class="cls-8" d="M317,140.58c.94-1.33.9-5.52-.1-6.26-1.61-1.19-8.52-1.47-17.81.67,1,4.06-1.15,6.19-1.15,6.19Z"/><path class="cls-8" d="M348.3,378a2.29,2.29,0,0,1-1.76-.1.68.68,0,0,1-.16-.77.77.77,0,0,1,.43-.49c.95-.45,3.13.44,3.23.47a.18.18,0,0,1,.1.15.19.19,0,0,1-.09.16A9.08,9.08,0,0,1,348.3,378Zm-1.15-1.12a.53.53,0,0,0-.19.06.45.45,0,0,0-.26.28c-.09.3,0,.4.06.43.38.32,1.78,0,2.77-.37A5.34,5.34,0,0,0,347.15,376.86Z"/><path class="cls-8" d="M350,377.41h-.08c-.8-.23-2.5-1.44-2.52-2.24a.55.55,0,0,1,.43-.54.86.86,0,0,1,.73.06c.94.48,1.54,2.43,1.56,2.51a.18.18,0,0,1,0,.17Zm-2-2.49-.08,0c-.2.08-.2.18-.2.22,0,.47,1.14,1.42,2,1.8-.21-.56-.67-1.67-1.28-2A.65.65,0,0,0,348,374.92Z"/><path class="cls-8" d="M296.36,379.16c-.9,0-1.77-.12-2.06-.53a.63.63,0,0,1,0-.73.86.86,0,0,1,.53-.39c1.17-.32,3.63,1.08,3.73,1.14a.17.17,0,0,1,.08.18.16.16,0,0,1-.13.13A12.2,12.2,0,0,1,296.36,379.16Zm-1.11-1.36a1.51,1.51,0,0,0-.32,0,.53.53,0,0,0-.33.24c-.12.2-.07.31,0,.37.33.45,2.1.46,3.41.28A7.42,7.42,0,0,0,295.25,377.8Z"/><path class="cls-8" d="M298.49,379l-.07,0c-.85-.38-2.53-1.9-2.4-2.7,0-.18.16-.42.62-.46a1.2,1.2,0,0,1,.92.28,4.78,4.78,0,0,1,1.1,2.71.2.2,0,0,1-.07.15A.14.14,0,0,1,298.49,379Zm-1.72-2.86h-.1c-.3,0-.32.15-.32.19-.08.47,1.06,1.67,1.93,2.19a3.9,3.9,0,0,0-.93-2.17A.93.93,0,0,0,296.77,376.11Z"/><polygon class="cls-12" points="306.22 378.8 299.19 378.8 298.49 362.51 305.52 362.51 306.22 378.8"/><polygon class="cls-12" points="357.85 375.54 350.98 377.03 344.07 361.86 350.95 360.37 357.85 375.54"/><path class="cls-11" d="M350.31,376.34l7.73-1.67a.61.61,0,0,1,.68.34l2.68,5.82a1,1,0,0,1-.74,1.44c-2.7.54-4.05.66-7.44,1.4-2.09.45-6.81,1.6-9.7,2.22s-3.88-2.14-2.75-2.66c5.05-2.3,7.15-4.33,8.52-6.22A1.68,1.68,0,0,1,350.31,376.34Z"/><path class="cls-11" d="M299.24,378h7.68a.62.62,0,0,1,.6.49l1.39,6.25a1,1,0,0,1-1,1.25c-2.77-.05-6.77-.21-10.25-.21-4.08,0-7.59.22-12.37.22-2.89,0-3.69-2.92-2.48-3.18,5.5-1.21,10-1.34,14.75-4.27A3.27,3.27,0,0,1,299.24,378Z"/><path class="cls-8" d="M327.67,138.73c6.59,1.51,12,18.34,12,18.34l-13.23,10.09a28.93,28.93,0,0,1-7-13C317.17,145.34,320.93,137.18,327.67,138.73Z"/><path class="cls-15" d="M327.67,138.73c6.59,1.51,12,18.34,12,18.34l-13.23,10.09a28.93,28.93,0,0,1-7-13C317.17,145.34,320.93,137.18,327.67,138.73Z"/><path class="cls-12" d="M293,158.81c-1.64,1.78-3.28,3.35-5,5-.85.81-1.71,1.6-2.59,2.38l-1.33,1.16-.33.29c-.16.14-.36.3-.57.46a8,8,0,0,1-1.93,1.14,6.45,6.45,0,0,1-2.44.51,5.78,5.78,0,0,1-2.1-.38,5.91,5.91,0,0,1-2-1.27,6,6,0,0,1-1.56-2.59,6.74,6.74,0,0,1-.29-1.48,10.19,10.19,0,0,1,0-1.79c.05-.48.11-.9.19-1.29a25.05,25.05,0,0,1,1.16-4,35.65,35.65,0,0,1,1.55-3.61c.64-1.28,1.25-2.2,1.86-3.27a81.65,81.65,0,0,1,8.45-11.46,77.35,77.35,0,0,1,10.25-9.71l3.68,3.78c-2.58,3.46-5.12,7.17-7.47,10.83a115.91,115.91,0,0,0-6.4,11.24c-.43.94-1,2-1.27,2.76a26.83,26.83,0,0,0-.93,2.7,17.26,17.26,0,0,0-.57,2.53,3.61,3.61,0,0,0,0,.39c0,.08,0,.12,0-.09a2.78,2.78,0,0,0-.13-.66,4.33,4.33,0,0,0-1.15-1.85,4.92,4.92,0,0,0-1.65-1,4.52,4.52,0,0,0-1.68-.3,4.15,4.15,0,0,0-1.61.3,3.68,3.68,0,0,0-.5.25l.38-.35,1.21-1.1,2.39-2.24c1.58-1.49,3.17-3.08,4.67-4.56Z"/><path class="cls-14" d="M322,151.1c3.58,3.54,4.75,10,5,15.61l-.58.45a29,29,0,0,1-7-13c-.13-.53-.25-1.06-.34-1.57Z"/><path class="cls-8" d="M286,145.78c-1.44,7.6-2.34,23.2,1.83,54.1h37.63c.26-5.77-3.37-33.94,2.2-61.15a98,98,0,0,0-12.6-1.6,137.4,137.4,0,0,0-16,0c-1.76.16-3.5.41-5,.68A10,10,0,0,0,286,145.78Z"/><path class="cls-15" d="M286,145.78c-1.44,7.6-2.34,23.2,1.83,54.1h37.63c.26-5.77-3.37-33.94,2.2-61.15a98,98,0,0,0-12.6-1.6,137.4,137.4,0,0,0-16,0c-1.76.16-3.5.41-5,.68A10,10,0,0,0,286,145.78Z"/><path class="cls-14" d="M291.77,157l-6.8-1.63c-.21,4.12-.23,9.22.07,15.53C288.17,167.35,292.17,161.8,291.77,157Z"/><polygon class="cls-14" points="298.49 362.51 298.85 370.91 305.89 370.91 305.53 362.51 298.49 362.51"/><polygon class="cls-14" points="350.95 360.38 344.07 361.86 347.63 369.68 354.51 368.19 350.95 360.38"/><path class="cls-12" d="M316.43,113.9c-1.8,6.74-2.52,10.78-6.68,13.58-6.26,4.22-14.05-.62-14.29-7.77-.22-6.43,2.77-16.38,10-17.73A9.52,9.52,0,0,1,316.43,113.9Z"/><path class="cls-11" d="M300.65,114.16c-.34-.91-1.89-7.88-.43-9.68s18.11-.51,20.57,1.91c4.09,4,1.25,7.61-3.22,12.23-3.36,3.48-3.49,7.41-5.19,8-3,1-7.58.06-8.5-3.11S300.65,114.16,300.65,114.16Z"/><path class="cls-11" d="M318.77,98.47c-5.88-2.51-16.91.26-22.87-1.18a9.19,9.19,0,0,0,7.6,9.37,78.28,78.28,0,0,0,15,1.38C325.05,107.77,323.77,100.59,318.77,98.47Z"/><path class="cls-11" d="M319.69,106.6a11.21,11.21,0,0,0,6.23-1.19C327,108.07,321,108.8,319.69,106.6Z"/><path class="cls-12" d="M303.85,114.43a7.88,7.88,0,0,1-2,4.67c-1.54,1.69-3.14.64-3.41-1.42-.24-1.85.26-5,2.14-5.9S304,112.35,303.85,114.43Z"/><path class="cls-8" d="M301.19,199.88s8,53.76,12.37,73.89c4.79,22.06,30.53,95,30.53,95l12.59-2.73s-18-59.46-22-90.29c-3.1-23.68-9.19-75.89-9.19-75.89Z"/><path class="cls-11" d="M341.07,364.58c-.05,0,2.35,4.56,2.35,4.56l14.16-3.07-1.19-4.26Z"/><path class="cls-16" d="M306.24,219c9.23,1.8,8.25,36.23,7.14,53.93-2.66-12.52-6.56-36.6-9.22-53.69A3.15,3.15,0,0,1,306.24,219Z"/><path class="cls-8" d="M287.84,199.88s-1,52.59-.2,74c.8,22.31,8.59,95.37,8.59,95.37h11.92s.43-71.75,1-93.66c.58-23.89,3.46-75.75,3.46-75.75Z"/><path class="cls-11" d="M293.94,364.54c-.06,0,.67,4.95.67,4.95H309.1l.4-4.42Z"/><path class="cls-8" d="M300.75,148.09c3.37,9.08-16.44,19.79-16.44,19.79l-8.58-11s5.72-11.39,12.75-16.52C297.15,134,298.18,141.17,300.75,148.09Z"/><path class="cls-15" d="M300.75,148.09c3.37,9.08-16.44,19.79-16.44,19.79l-8.58-11s5.72-11.39,12.75-16.52C297.15,134,298.18,141.17,300.75,148.09Z"/><ellipse class="cls-8" cx="378.37" cy="56.08" rx="36.09" ry="23"/><path class="cls-4" d="M365.35,67.65a10.11,10.11,0,0,1-9.93-8.39,10.23,10.23,0,0,1,7.71-11.57h0A10.06,10.06,0,0,1,374,52.21l23.17-4.78a3.62,3.62,0,0,1,4.24,2.5,3.48,3.48,0,0,1-2.67,4.3l-.61.13a.54.54,0,0,0-.41.31.63.63,0,0,0,0,.52l.41,1.06a1.57,1.57,0,0,1-.62,1.92,1.94,1.94,0,0,0-.89,1.41A1.56,1.56,0,0,1,395.32,61l-.47.1a1.56,1.56,0,0,1-1.66-.8,1.95,1.95,0,0,0-3.61.75,1.56,1.56,0,0,1-1.2,1.39l-.47.09a1.58,1.58,0,0,1-1.66-.79,2,2,0,0,0-1.39-1,1.59,1.59,0,0,1-1.33-1.52l0-1.14a.62.62,0,0,0-.24-.46.63.63,0,0,0-.5-.12l-7.39,1.53a10.07,10.07,0,0,1-7.95,8.39A10.36,10.36,0,0,1,365.35,67.65Zm-2-19a9.21,9.21,0,0,0-7,10.42,9.11,9.11,0,0,0,18-.52l0-.36,8.08-1.67a1.62,1.62,0,0,1,1.95,1.52l0,1.14a.58.58,0,0,0,.48.57,3,3,0,0,1,2.11,1.43.56.56,0,0,0,.59.32l.46-.09a.58.58,0,0,0,.42-.53,2.95,2.95,0,0,1,5.47-1.13.56.56,0,0,0,.58.32l.48-.1a.54.54,0,0,0,.41-.52,2.92,2.92,0,0,1,1.37-2.15.6.6,0,0,0,.21-.71l-.41-1.07a1.62,1.62,0,0,1,1.18-2.16l.61-.13a2.5,2.5,0,0,0,1.91-3.07,2.62,2.62,0,0,0-3.08-1.77l-23.87,4.93-.18-.32a9,9,0,0,0-9.92-4.35Zm2,15.29a6.49,6.49,0,1,1,1.3-.14h0A6.39,6.39,0,0,1,365.36,64Zm0-11.82a5.24,5.24,0,0,0-1.11.12,5.4,5.4,0,0,0,2.18,10.58h0A5.41,5.41,0,0,0,368.34,53,5.4,5.4,0,0,0,365.39,52.14Z"/><ellipse class="cls-10" cx="349" cy="85" rx="11.86" ry="7.56"/><ellipse class="cls-17" cx="330.13" cy="92.56" rx="4.87" ry="3.1"/></g></svg>