<svg width="18" height="18" viewBox="0 0 18 18" fill="none" xmlns="http://www.w3.org/2000/svg">
<path d="M16.5735 7.00475H10.8639V1.29516C10.8639 0.59455 10.2957 0.0263672 9.59508 0.0263672H8.32628C7.62567 0.0263672 7.05749 0.59455 7.05749 1.29516V7.00475H1.3479C0.647285 7.00475 0.0791016 7.57293 0.0791016 8.27355V9.54235C0.0791016 10.243 0.647285 10.8111 1.3479 10.8111H7.05749V16.5207C7.05749 17.2213 7.62567 17.7895 8.32628 17.7895H9.59508C10.2957 17.7895 10.8639 17.2213 10.8639 16.5207V10.8111H16.5735C17.2741 10.8111 17.8423 10.243 17.8423 9.54235V8.27355C17.8423 7.57293 17.2741 7.00475 16.5735 7.00475Z" fill="#0B5EE8"/>
</svg>
