<svg width="48" height="48" viewBox="0 0 48 48" fill="none" xmlns="http://www.w3.org/2000/svg">
<circle cx="24" cy="24" r="24" fill="#DFEBFF"/>
<path d="M35.3839 35.375H34.3571V12.2188C34.3571 11.5456 33.8055 11 33.125 11H15.875C15.1945 11 14.6429 11.5456 14.6429 12.2188V35.375H13.6161C13.2758 35.375 13 35.6478 13 35.9844V37H36V35.9844C36 35.6478 35.7242 35.375 35.3839 35.375ZM19.5714 14.8594C19.5714 14.5228 19.8473 14.25 20.1875 14.25H22.2411C22.5813 14.25 22.8571 14.5228 22.8571 14.8594V16.8906C22.8571 17.2272 22.5813 17.5 22.2411 17.5H20.1875C19.8473 17.5 19.5714 17.2272 19.5714 16.8906V14.8594ZM19.5714 19.7344C19.5714 19.3978 19.8473 19.125 20.1875 19.125H22.2411C22.5813 19.125 22.8571 19.3978 22.8571 19.7344V21.7656C22.8571 22.1022 22.5813 22.375 22.2411 22.375H20.1875C19.8473 22.375 19.5714 22.1022 19.5714 21.7656V19.7344ZM22.2411 27.25H20.1875C19.8473 27.25 19.5714 26.9772 19.5714 26.6406V24.6094C19.5714 24.2728 19.8473 24 20.1875 24H22.2411C22.5813 24 22.8571 24.2728 22.8571 24.6094V26.6406C22.8571 26.9772 22.5813 27.25 22.2411 27.25ZM26.1429 35.375H22.8571V31.1094C22.8571 30.7728 23.133 30.5 23.4732 30.5H25.5268C25.867 30.5 26.1429 30.7728 26.1429 31.1094V35.375ZM29.4286 26.6406C29.4286 26.9772 29.1527 27.25 28.8125 27.25H26.7589C26.4187 27.25 26.1429 26.9772 26.1429 26.6406V24.6094C26.1429 24.2728 26.4187 24 26.7589 24H28.8125C29.1527 24 29.4286 24.2728 29.4286 24.6094V26.6406ZM29.4286 21.7656C29.4286 22.1022 29.1527 22.375 28.8125 22.375H26.7589C26.4187 22.375 26.1429 22.1022 26.1429 21.7656V19.7344C26.1429 19.3978 26.4187 19.125 26.7589 19.125H28.8125C29.1527 19.125 29.4286 19.3978 29.4286 19.7344V21.7656ZM29.4286 16.8906C29.4286 17.2272 29.1527 17.5 28.8125 17.5H26.7589C26.4187 17.5 26.1429 17.2272 26.1429 16.8906V14.8594C26.1429 14.5228 26.4187 14.25 26.7589 14.25H28.8125C29.1527 14.25 29.4286 14.5228 29.4286 14.8594V16.8906Z" fill="#0B5EE8"/>
</svg>
