<svg xmlns="http://www.w3.org/2000/svg" viewBox="0 0 493 422"><defs><style>.cls-1{fill:#ebebeb;}.cls-2,.cls-8{fill:#e0e0e0;}.cls-3{fill:#f5f5f5;}.cls-4{fill:#e6e6e6;}.cls-5{fill:#f0f0f0;}.cls-10,.cls-11,.cls-20,.cls-6{fill:#fff;}.cls-7{fill:#fafafa;}.cls-8{opacity:0.6;}.cls-9{fill:#407bff;}.cls-10{opacity:0.8;}.cls-11,.cls-12{opacity:0.3;}.cls-13{fill:#263238;}.cls-14{fill:#803e3c;}.cls-15{fill:#7f3e3b;}.cls-16{fill:#630f0f;}.cls-17{opacity:0.2;}.cls-18,.cls-20{opacity:0.4;}.cls-19{opacity:0.5;}</style></defs><title>user-login</title><g id="Character_1" data-name="Character 1"><rect class="cls-1" x="-3.5" y="352.14" width="500" height="0.25"/><rect class="cls-1" x="424.72" y="368.24" width="21.68" height="0.25"/><rect class="cls-1" x="307.06" y="363.05" width="34.11" height="0.25"/><rect class="cls-1" x="393.09" y="358.95" width="44.53" height="0.25"/><rect class="cls-1" x="158.38" y="363.99" width="11.14" height="0.25"/><rect class="cls-1" x="111.08" y="363.99" width="38.39" height="0.25"/><rect class="cls-1" x="62.81" y="359.77" width="27.7" height="0.25"/><path class="cls-1" d="M233.51,307.54H40.42a5.71,5.71,0,0,1-5.71-5.71V30.4a5.71,5.71,0,0,1,5.71-5.7H233.51a5.71,5.71,0,0,1,5.71,5.7V301.83A5.71,5.71,0,0,1,233.51,307.54ZM40.42,25A5.46,5.46,0,0,0,35,30.4V301.83a5.47,5.47,0,0,0,5.46,5.46H233.51a5.47,5.47,0,0,0,5.46-5.46V30.4A5.46,5.46,0,0,0,233.51,25Z"/><path class="cls-1" d="M449.81,307.54H256.71a5.72,5.72,0,0,1-5.71-5.71V30.4a5.72,5.72,0,0,1,5.71-5.7h193.1a5.71,5.71,0,0,1,5.71,5.7V301.83A5.71,5.71,0,0,1,449.81,307.54ZM256.71,25a5.46,5.46,0,0,0-5.46,5.45V301.83a5.47,5.47,0,0,0,5.46,5.46h193.1a5.47,5.47,0,0,0,5.46-5.46V30.4A5.46,5.46,0,0,0,449.81,25Z"/><path class="cls-2" d="M111.48,144.37a20.91,20.91,0,0,0,0-41.82h-2.57v41.82Z"/><circle class="cls-3" cx="108.91" cy="123.46" r="20.91"/><path class="cls-2" d="M108,126.09a28,28,0,0,1-28-28V81.37a2.63,2.63,0,1,1,5.26,0V98.1A22.76,22.76,0,0,0,108,120.83a2.63,2.63,0,1,1,0,5.26Z"/><path class="cls-3" d="M59.33,96.1h46.52a4.86,4.86,0,0,0,4.7-6.11l-4-15.23a4.85,4.85,0,0,0-4.69-3.61H63.37a4.86,4.86,0,0,0-4.7,3.61L54.64,90A4.86,4.86,0,0,0,59.33,96.1Z"/><path class="cls-2" d="M406.78,144.37a20.91,20.91,0,1,0,0-41.82h-2.57v41.82Z"/><circle class="cls-3" cx="404.21" cy="123.46" r="20.91"/><path class="cls-2" d="M403.25,126.09a28,28,0,0,1-28-28V81.37a2.63,2.63,0,0,1,5.26,0V98.1a22.76,22.76,0,0,0,22.73,22.73,2.63,2.63,0,0,1,0,5.26Z"/><path class="cls-3" d="M354.63,96.1h46.52a4.87,4.87,0,0,0,4.7-6.11l-4-15.23a4.85,4.85,0,0,0-4.69-3.61H358.67a4.86,4.86,0,0,0-4.7,3.61l-4,15.23A4.86,4.86,0,0,0,354.63,96.1Z"/><rect class="cls-4" x="130.48" y="226.67" width="15.21" height="58.93" transform="translate(276.17 512.26) rotate(180)"/><polygon class="cls-5" points="89.25 285.6 139.72 285.6 147.34 216.62 96.87 216.62 89.25 285.6"/><polygon class="cls-3" points="83.78 285.6 135.92 285.6 143.54 216.62 91.41 216.62 83.78 285.6"/><polygon class="cls-6" points="132.15 280.16 138.57 222.06 95.17 222.06 88.75 280.16 132.15 280.16"/><path class="cls-3" d="M123.19,266.08l.26-2.37c1.61-14.58-7.49-27.57-19.31-27.57h0l-.27,2.37c-1.61,14.58,7.49,27.57,19.32,27.57Z"/><rect class="cls-4" x="55.58" y="285.6" width="44.84" height="66.55" transform="translate(156.01 637.74) rotate(180)"/><polygon class="cls-5" points="60.09 352.14 55.58 352.14 55.58 339.31 64.82 339.31 60.09 352.14"/><rect class="cls-4" x="181.25" y="285.6" width="44.84" height="66.55" transform="translate(407.35 637.74) rotate(180)"/><rect class="cls-5" x="55.58" y="285.6" width="129.61" height="58.67" transform="translate(240.77 629.87) rotate(180)"/><polygon class="cls-5" points="180.68 352.14 185.19 352.14 185.19 339.31 175.95 339.31 180.68 352.14"/><rect class="cls-4" x="59.08" y="289.27" width="122.61" height="23.68" transform="translate(240.77 602.21) rotate(180)"/><path class="cls-5" d="M112.21,304.7h16.35a25.84,25.84,0,0,0,18.78-8.08H93.43A25.87,25.87,0,0,0,112.21,304.7Z"/><rect class="cls-4" x="59.08" y="316.77" width="122.61" height="23.68" transform="translate(240.77 657.21) rotate(180)"/><path class="cls-5" d="M112.21,332.2h16.35a25.84,25.84,0,0,0,18.78-8.08H93.43A25.87,25.87,0,0,0,112.21,332.2Z"/><path class="cls-4" d="M177,282.88h1.16c0-2.38,0-8.44.12-22.31.21-25.14.61-26.68.61-26.68l-2.76,11.61C174.36,258.35,176.62,271.27,177,282.88Z"/><path class="cls-4" d="M174.69,243.77c-4-4.73-12.45-6.11-21.13-7.28-3.41-.47,8.95,7.32,15,12.86,4.7,4.3,7.7,5.48,9,9.77C178.22,253.78,178.11,247.85,174.69,243.77Z"/><path class="cls-4" d="M180,252.23c4-4.73,12.45-6.11,21.13-7.29,3.41-.46-9,7.33-15,12.86-4.7,4.3-7.7,5.49-9,9.77C176.43,262.23,176.54,256.3,180,252.23Z"/><path class="cls-4" d="M178.26,232.78c3-5.65,10.46-11,18.87-13,3.3-.79-7.65,10.45-11.81,17.69-3.23,5.63-7.51,12.24-8.18,17C176.14,245.05,175.28,238.44,178.26,232.78Z"/><path class="cls-5" d="M177.9,285.6h0c-3.54,0-6.47-1.78-6.68-4.05l-.59-3.89h14.55l-.6,3.89C184.38,283.82,181.45,285.6,177.9,285.6Z"/><polygon class="cls-5" points="186.12 279.15 169.69 279.15 169.22 274.83 186.59 274.83 186.12 279.15"/><rect class="cls-4" x="166.04" y="50.33" width="160.21" height="146.13" transform="translate(492.29 246.8) rotate(180)"/><rect class="cls-3" x="162.43" y="50.33" width="162.24" height="146.13" transform="translate(487.11 246.8) rotate(180)"/><rect class="cls-7" x="177.04" y="48.75" width="133.04" height="149.3" transform="translate(366.96 -120.16) rotate(90)"/><polygon class="cls-6" points="299.89 189.92 241.13 56.88 221.17 56.88 279.93 189.92 299.89 189.92"/><polygon class="cls-6" points="274.27 189.92 215.51 56.88 201.77 56.88 260.53 189.92 274.27 189.92"/><rect class="cls-4" x="153.96" y="119.54" width="133.04" height="7.72" transform="translate(343.88 -97.08) rotate(90)"/><rect class="cls-4" x="205.28" y="119.54" width="133.04" height="7.72" transform="translate(395.2 -148.4) rotate(90)"/><rect class="cls-3" x="147.04" y="118.16" width="142.06" height="9.76" transform="translate(341.12 -95.03) rotate(90)"/><rect class="cls-3" x="198.36" y="118.16" width="142.06" height="9.76" transform="translate(392.43 -146.35) rotate(90)"/><rect class="cls-4" x="102.73" y="123.06" width="133.04" height="0.69" transform="translate(292.65 -45.85) rotate(90)"/><path class="cls-4" d="M159.72,41.92H333.28a.84.84,0,0,1,.84.83h0a.84.84,0,0,1-.84.83H159.72a.84.84,0,0,1-.84-.83h0A.84.84,0,0,1,159.72,41.92Z"/><path class="cls-4" d="M326.25,47.42h0a1.12,1.12,0,0,0,1.12-1.12V43.88a1.13,1.13,0,0,0-1.12-1.13h0a1.14,1.14,0,0,0-1.13,1.13V46.3A1.13,1.13,0,0,0,326.25,47.42Z"/><path class="cls-4" d="M172.3,47.42h0a1.13,1.13,0,0,0,1.13-1.12V43.88a1.14,1.14,0,0,0-1.13-1.13h0a1.13,1.13,0,0,0-1.12,1.13V46.3A1.12,1.12,0,0,0,172.3,47.42Z"/><rect class="cls-8" x="159.98" y="42.75" width="162.13" height="114.44" transform="translate(482.09 199.94) rotate(180)"/><rect class="cls-7" x="303.45" y="229.71" width="38.72" height="23.7" rx="5.38" ry="5.38"/><rect class="cls-4" x="303.45" y="225.34" width="38.72" height="5.08" rx="1.81" ry="1.81"/><path class="cls-5" d="M304,279.7s.51,16.66,19.93,16.66,19.93-16.66,19.93-16.66Z"/><path class="cls-5" d="M348.3,279.7s.51,16.66,19.93,16.66,19.93-16.66,19.93-16.66Z"/><rect class="cls-5" x="332.74" y="218.98" width="53.2" height="34.44" rx="7.4" ry="7.4"/><rect class="cls-3" x="332.74" y="212.96" width="53.2" height="6.98" rx="2.48" ry="2.48"/><rect class="cls-4" x="289.4" y="269.5" width="5.04" height="82.64" transform="translate(583.83 621.64) rotate(180)"/><rect class="cls-4" x="407.63" y="253.41" width="27.29" height="16.08"/><rect class="cls-3" x="271.95" y="253.41" width="135.68" height="16.08" transform="translate(679.57 522.91) rotate(180)"/><rect class="cls-4" x="407.63" y="296.36" width="27.29" height="16.08"/><rect class="cls-3" x="271.95" y="296.36" width="135.68" height="16.08" transform="translate(679.57 608.81) rotate(180)"/><rect class="cls-4" x="425.08" y="269.5" width="5.04" height="82.64" transform="translate(855.19 621.64) rotate(180)"/><rect class="cls-3" x="402.59" y="269.5" width="5.04" height="82.64" transform="translate(810.22 621.64) rotate(180)"/><rect class="cls-3" x="271.95" y="269.5" width="5.04" height="82.64" transform="translate(548.93 621.64) rotate(180)"/><ellipse id="_Path_" data-name="&lt;Path&gt;" class="cls-3" cx="246.5" cy="385.98" rx="193.89" ry="11.32"/><path class="cls-9" d="M256.91,335.24H129.34a8.13,8.13,0,0,1-8-7.63L109.9,106.06a7.18,7.18,0,0,1,7.24-7.64H244.71a8.12,8.12,0,0,1,8,7.64l11.42,221.55A7.17,7.17,0,0,1,256.91,335.24Z"/><path class="cls-10" d="M256.91,335.24H129.34a8.13,8.13,0,0,1-8-7.63L109.9,106.06a7.18,7.18,0,0,1,7.24-7.64H244.71a8.12,8.12,0,0,1,8,7.64l11.42,221.55A7.17,7.17,0,0,1,256.91,335.24Z"/><rect class="cls-9" x="218.01" y="91.2" width="14.11" height="1"/><rect class="cls-9" x="207.95" y="91.2" width="5.17" height="1"/><path class="cls-9" d="M262.4,321.19h-122a7.78,7.78,0,0,1-7.68-7.3L121.79,102a6.86,6.86,0,0,1,6.93-7.3h122a7.77,7.77,0,0,1,7.67,7.3l10.92,211.89A6.86,6.86,0,0,1,262.4,321.19Z"/><path class="cls-6" d="M262.4,316.31h-122a2.92,2.92,0,0,1-2.81-2.67L126.66,101.75a2,2,0,0,1,2.06-2.18h122a2.92,2.92,0,0,1,2.8,2.68l10.92,211.89a2.06,2.06,0,0,1-.54,1.56A2,2,0,0,1,262.4,316.31ZM128.72,99.82a1.74,1.74,0,0,0-1.81,1.91l10.92,211.89a2.67,2.67,0,0,0,2.56,2.44h122a1.74,1.74,0,0,0,1.8-1.91L253.28,102.26a2.66,2.66,0,0,0-2.55-2.44Z"/><ellipse class="cls-11" cx="192.59" cy="150.36" rx="36" ry="37.9" transform="translate(-49.51 183.34) rotate(-45.74)"/><path class="cls-6" d="M222.47,150.36a28.69,28.69,0,0,1-2.87,14.23,28.06,28.06,0,0,1-25.47,15.65,31.73,31.73,0,0,1-27.08-15.65,30.78,30.78,0,0,1-4.34-14.23,28.1,28.1,0,0,1,28.34-29.89A31.81,31.81,0,0,1,222.47,150.36Z"/><path class="cls-9" d="M219.6,164.59a28.06,28.06,0,0,1-25.47,15.65,31.73,31.73,0,0,1-27.08-15.65,45.23,45.23,0,0,1,25.86-8A49.22,49.22,0,0,1,219.6,164.59Z"/><ellipse class="cls-9" cx="192.06" cy="140.13" rx="12.97" ry="13.66" transform="matrix(0.7, -0.72, 0.72, 0.7, -42.34, 179.88)"/><path class="cls-6" d="M244.91,238.76H149.38a3.29,3.29,0,0,1-3.25-3.08l-.72-14a2.9,2.9,0,0,1,2.93-3.09h95.53a3.29,3.29,0,0,1,3.25,3.09l.72,14A2.9,2.9,0,0,1,244.91,238.76Z"/><path class="cls-12" d="M215.66,210.84h-39.9a3.29,3.29,0,0,1-3.25-3.09l-.15-3a2.9,2.9,0,0,1,2.93-3.09h39.89a3.29,3.29,0,0,1,3.25,3.09l.16,3A2.91,2.91,0,0,1,215.66,210.84Z"/><path class="cls-12" d="M230.49,306.05H170.73a5.6,5.6,0,0,1-5.53-5.26l-.35-6.89a4.94,4.94,0,0,1,5-5.26H229.6a5.6,5.6,0,0,1,5.53,5.26l.35,6.89A4.94,4.94,0,0,1,230.49,306.05Z"/><path class="cls-6" d="M246.66,272.6H151.12a3.29,3.29,0,0,1-3.25-3.09l-.72-14a2.91,2.91,0,0,1,2.93-3.09h95.53a3.29,3.29,0,0,1,3.25,3.09l.73,14A2.91,2.91,0,0,1,246.66,272.6Z"/><path class="cls-13" d="M161.53,228.66a3.22,3.22,0,0,1-3.25,3.42,3.65,3.65,0,0,1-3.59-3.42,3.21,3.21,0,0,1,3.24-3.42A3.65,3.65,0,0,1,161.53,228.66Z"/><path class="cls-13" d="M172,228.66a3.22,3.22,0,0,1-3.24,3.42,3.64,3.64,0,0,1-3.59-3.42,3.21,3.21,0,0,1,3.24-3.42A3.63,3.63,0,0,1,172,228.66Z"/><path class="cls-13" d="M182.54,228.66a3.22,3.22,0,0,1-3.24,3.42,3.65,3.65,0,0,1-3.6-3.42,3.22,3.22,0,0,1,3.25-3.42A3.64,3.64,0,0,1,182.54,228.66Z"/><path class="cls-13" d="M193.05,228.66a3.22,3.22,0,0,1-3.24,3.42,3.65,3.65,0,0,1-3.6-3.42,3.22,3.22,0,0,1,3.24-3.42A3.65,3.65,0,0,1,193.05,228.66Z"/><path class="cls-13" d="M163.27,262.49a3.21,3.21,0,0,1-3.24,3.42,3.65,3.65,0,0,1-3.6-3.42,3.22,3.22,0,0,1,3.25-3.42A3.64,3.64,0,0,1,163.27,262.49Z"/><path class="cls-13" d="M173.78,262.49a3.22,3.22,0,0,1-3.24,3.42,3.65,3.65,0,0,1-3.6-3.42,3.21,3.21,0,0,1,3.24-3.42A3.65,3.65,0,0,1,173.78,262.49Z"/><path class="cls-13" d="M184.29,262.49a3.22,3.22,0,0,1-3.25,3.42,3.63,3.63,0,0,1-3.59-3.42,3.21,3.21,0,0,1,3.24-3.42A3.65,3.65,0,0,1,184.29,262.49Z"/><path class="cls-13" d="M194.79,262.49a3.21,3.21,0,0,1-3.24,3.42,3.65,3.65,0,0,1-3.6-3.42,3.22,3.22,0,0,1,3.25-3.42A3.63,3.63,0,0,1,194.79,262.49Z"/><path class="cls-13" d="M205.3,262.49a3.21,3.21,0,0,1-3.24,3.42,3.65,3.65,0,0,1-3.6-3.42,3.22,3.22,0,0,1,3.24-3.42A3.65,3.65,0,0,1,205.3,262.49Z"/><path class="cls-13" d="M215.81,262.49a3.22,3.22,0,0,1-3.25,3.42,3.64,3.64,0,0,1-3.59-3.42,3.21,3.21,0,0,1,3.24-3.42A3.65,3.65,0,0,1,215.81,262.49Z"/><path class="cls-14" d="M329.53,146.37c.25.37.38.57.54.84l.45.75c.29.49.55,1,.8,1.48.5,1,1,2,1.4,3a54.64,54.64,0,0,1,2.16,6.1,63.67,63.67,0,0,1,2.38,12.53l.07.79c0,.12,0,.29,0,.48l0,.54a12.92,12.92,0,0,1-.12,2.08,16.9,16.9,0,0,1-1,3.72,25.6,25.6,0,0,1-3.46,6,42.89,42.89,0,0,1-9.31,8.81l-2.76-3.22a57.8,57.8,0,0,0,6.64-9.19,21.34,21.34,0,0,0,2-4.72,9.7,9.7,0,0,0,.33-2.15,4.69,4.69,0,0,0,0-.93l0-.21a1.16,1.16,0,0,0,0-.27l-.12-.71a79.26,79.26,0,0,0-2.72-11c-.58-1.79-1.29-3.51-2-5.21-.35-.85-.75-1.67-1.15-2.48l-.62-1.17-.31-.56-.26-.44Z"/><path class="cls-15" d="M320.2,193.52l3.62,7.64,2.87-6.46s-2.55-5.6-6-5.09Z"/><polygon class="cls-15" points="326.41 201.54 329.29 196.83 326.69 194.7 323.82 201.16 326.41 201.54"/><path class="cls-9" d="M310.13,378a10.27,10.27,0,0,0,2.22-.3.22.22,0,0,0,.15-.16.2.2,0,0,0-.09-.2c-.29-.19-2.83-1.83-3.81-1.39a.7.7,0,0,0-.39.56,1.13,1.13,0,0,0,.33,1A2.37,2.37,0,0,0,310.13,378Zm1.65-.58c-1.45.29-2.55.24-3-.15a.74.74,0,0,1-.21-.7c0-.17.1-.23.17-.26C309.28,376,310.75,376.75,311.78,377.38Z"/><path class="cls-9" d="M312.3,377.67a.19.19,0,0,0,.1,0,.21.21,0,0,0,.1-.17c0-.11,0-2.52-.92-3.32a1,1,0,0,0-.84-.27.69.69,0,0,0-.67.56c-.19.94,1.33,2.75,2.13,3.2A.19.19,0,0,0,312.3,377.67Zm-1.43-3.4a.66.66,0,0,1,.44.17,4.55,4.55,0,0,1,.78,2.64c-.8-.63-1.75-2-1.63-2.57,0-.09.07-.2.32-.23Z"/><path class="cls-9" d="M300.69,373.88a.19.19,0,0,0,0-.19.18.18,0,0,0-.18-.14c-.41,0-4-.17-4.81.7l-.05.06a.63.63,0,0,0-.09.62,1.09,1.09,0,0,0,.73.73c1.16.36,3.21-.94,4.33-1.75Zm-4.66.63c.45-.48,2.43-.61,3.91-.59-1.55,1.06-2.84,1.56-3.49,1.36a.72.72,0,0,1-.48-.48.27.27,0,0,1,0-.25Z"/><path class="cls-9" d="M300.69,373.88l0,0a.21.21,0,0,0,0-.19c-.05-.09-1.17-2-2.49-2.41a1.42,1.42,0,0,0-1.14.15c-.48.28-.51.6-.45.82.26.92,2.81,1.74,3.91,1.73A.2.2,0,0,0,300.69,373.88Zm-3.59-2a.63.63,0,0,1,.19-.15,1.06,1.06,0,0,1,.84-.11,4.69,4.69,0,0,1,2.05,1.9c-1.19-.13-3-.86-3.15-1.42A.21.21,0,0,1,297.1,371.88Z"/><path class="cls-15" d="M311.7,117.07c-1,5-3.16,15.82.31,19.13,0,0-1.36,5-10.59,5-10.16,0-4.85-5-4.85-5,5.54-1.32,5.4-5.43,4.43-9.29Z"/><path class="cls-13" d="M294.78,105.35a.35.35,0,0,0,.17,0,.39.39,0,0,0,.18-.53,3.91,3.91,0,0,0-2.88-2.2.39.39,0,0,0-.44.35.41.41,0,0,0,.35.44h0a3.12,3.12,0,0,1,2.26,1.76A.4.4,0,0,0,294.78,105.35Z"/><path class="cls-16" d="M291.75,109.69a18.26,18.26,0,0,1-2.92,4,2.91,2.91,0,0,0,2.33.74Z"/><path class="cls-13" d="M292.49,108.62c-.08.67-.51,1.17-.94,1.11s-.73-.64-.65-1.31.51-1.17,1-1.12S292.57,108,292.49,108.62Z"/><path class="cls-13" d="M292,107.37l-1.56-.67S291.15,108.06,292,107.37Z"/><polygon class="cls-15" points="309.52 371.98 301.36 373.88 296.4 355.12 304.56 353.22 309.52 371.98"/><polygon class="cls-15" points="322.04 377.47 313.67 377.47 314.32 358.07 322.7 358.07 322.04 377.47"/><path class="cls-13" d="M313,376.5h9.41a.67.67,0,0,1,.67.57l1.07,7.44a1.34,1.34,0,0,1-1.34,1.49c-3.28-.05-4.86-.24-9-.24-2.55,0-6.27.26-9.78.26s-3.71-3.48-2.24-3.79c6.56-1.41,7.6-3.36,9.81-5.22A2.21,2.21,0,0,1,313,376.5Z"/><path class="cls-13" d="M300.64,372.64l8.55-3.94a.66.66,0,0,1,.84.24l4.09,6.32a1.35,1.35,0,0,1-.6,1.91c-3,1.32-4.52,1.81-8.28,3.54-2.31,1.06-7,3.5-10.18,5s-4.82-1.61-3.62-2.51c5.37-4,6.91-6.87,8.14-9.48A2.12,2.12,0,0,1,300.64,372.64Z"/><polygon class="cls-17" points="296.4 355.13 299.06 365.18 307.12 362.89 304.57 353.22 296.4 355.13"/><polygon class="cls-17" points="322.7 358.07 314.32 358.07 313.99 368.07 322.37 368.07 322.7 358.07"/><path class="cls-13" d="M326.46,138.11c3.48.76,7.2,13.28,7.2,13.28l-9.84,10.46s-8.17-11.76-6.5-16.08C319.05,141.27,322.35,137.2,326.46,138.11Z"/><path class="cls-18" d="M320.94,146.07c-1.76-1.61-2.95-1.13-3.76.15-.8,3.72,3.94,11.51,5.85,14.46C323.91,157.16,324.92,149.73,320.94,146.07Z"/><path class="cls-13" d="M282.41,138.35s-4,1.4,4,50.55h34c-.57-13.84-.59-22.38,6-50.79A101.12,101.12,0,0,0,312,136.2a108.87,108.87,0,0,0-15.44,0C289.93,136.81,282.41,138.35,282.41,138.35Z"/><path class="cls-18" d="M282.1,157.21c.22,2.39.51,5.08.89,8.12,2.79-2.51,5.07-9.64,4.23-13.81A24.59,24.59,0,0,0,282.1,157.21Z"/><path class="cls-14" d="M285.74,149.76a148.24,148.24,0,0,1-6.19,13.56,83.18,83.18,0,0,1-8,13l-.64.79-.32.39c-.11.13-.2.25-.37.43a12,12,0,0,1-2,1.76,16.34,16.34,0,0,1-4.18,2.09,30.1,30.1,0,0,1-8,1.41,59.35,59.35,0,0,1-15.16-1.34l.55-4.21c2.3,0,4.71,0,7-.18a58.49,58.49,0,0,0,6.86-.77,27,27,0,0,0,6.14-1.71,9.51,9.51,0,0,0,2.21-1.35,4.18,4.18,0,0,0,.69-.72s.12-.16.2-.27l.23-.33.47-.66A99.14,99.14,0,0,0,272,159.53c2-4.25,4-8.66,5.83-13Z"/><path class="cls-13" d="M282.41,138.35c-4.17,1-9.29,12.44-9.29,12.44l8.64,12.7S293.27,149,291.9,144.58C290.47,140,287.46,137.12,282.41,138.35Z"/><path class="cls-15" d="M243.83,178.26l-7.21-3.33-.72,7.16s6,1.78,9,0Z"/><polygon class="cls-15" points="232.31 174.2 231.62 179.66 235.9 182.09 236.62 174.93 232.31 174.2"/><path class="cls-15" d="M315.32,109.1c-1.53,8.18-2,11.67-6.68,15.38-7,5.58-16.75,1.92-17.69-6.54-.86-7.62,1.78-19.7,10.25-22A11.33,11.33,0,0,1,315.32,109.1Z"/><path class="cls-13" d="M297.37,110.83c-.47,4.16-.65,15,8.51,15.33,11.21.42,14.57-9.17,13.57-13,5.84-4.75,6.68-12.92.12-19.17s-21-2.75-25,3.34C289.54,104.87,297.37,110.83,297.37,110.83Z"/><path class="cls-9" d="M308.6,96.42c-.54-4.39-.12-7.43,4-7.43s9.74,1.5,11.8,5.71,2.23,10.79-3.52,10.13S309.25,101.68,308.6,96.42Z"/><path class="cls-13" d="M315,95.36c-1-5.24,3.69-20,15.08-21,5.28-.44,7.72,5.24,5,6.17,5-.06,8.2,6.55,3.54,7.55,3.68,2.35,2.77,7.2-2.48,9.57C332.21,99.45,316.33,102.62,315,95.36Z"/><path class="cls-13" d="M327.15,101c-3.67,0-7.5-.54-9.88-2.13a4.93,4.93,0,0,1-2.35-3.81.26.26,0,0,1,.23-.27.24.24,0,0,1,.27.23,4.46,4.46,0,0,0,2.13,3.43c4.53,3,15,2,18.26,1,2.82-.92,4.73-2.7,5.11-4.77a4.12,4.12,0,0,0-1.67-4,.26.26,0,0,1,0-.36.25.25,0,0,1,.35,0,4.64,4.64,0,0,1,1.85,4.52C341,97,339,98.93,336,99.91A32.69,32.69,0,0,1,327.15,101Z"/><path class="cls-15" d="M294.82,109.72a6.16,6.16,0,0,0-1.07,4.52c.33,2.09,2.37,2.23,3.85.89s2.77-3.76,1.68-5.5A2.63,2.63,0,0,0,294.82,109.72Z"/><path class="cls-9" d="M295.39,188.9s4.86,57.49,9.91,89.9c4.07,26.17,7.29,87.34,7.29,87.34H324s4.06-59.35,2-85.23c-5.23-65.5,6.44-70.83-5.57-92Z"/><path class="cls-18" d="M309.77,210.63A55.8,55.8,0,0,0,299,226.91c1.33,12.92,2.91,27.26,4.59,39.82A110.38,110.38,0,0,0,309.77,210.63Z"/><path class="cls-9" d="M287.4,188.54s-10.55,62.79-12.21,91.09c4.14,26.17,21.08,81.49,21.08,81.49l10.39-3.77s-5.75-60.32-12-76.83C308.7,233.15,319,221.18,316,188.9,308.85,188.9,287.4,188.54,287.4,188.54Z"/><polygon class="cls-13" points="294.88 363.88 308.92 360.07 308.12 354.47 293.09 358.54 294.88 363.88"/><polygon class="cls-13" points="311.02 366.36 325.57 366.36 326.33 361.26 310.94 360.74 311.02 366.36"/><path class="cls-9" d="M320.94,186.91l1.53,3c.12.24-.16.48-.55.48H286.24c-.3,0-.56-.15-.58-.34l-.31-3.05c0-.21.25-.39.59-.39h34.44A.63.63,0,0,1,320.94,186.91Z"/><path class="cls-19" d="M320.94,186.91l1.53,3c.12.24-.16.48-.55.48H286.24c-.3,0-.56-.15-.58-.34l-.31-3.05c0-.21.25-.39.59-.39h34.44A.63.63,0,0,1,320.94,186.91Z"/><path class="cls-9" d="M316.31,190.76h.92c.19,0,.33-.1.32-.21l-.44-4c0-.11-.17-.21-.35-.21h-.93c-.18,0-.32.1-.31.21l.43,4C316,190.66,316.13,190.76,316.31,190.76Z"/><path class="cls-9" d="M303.93,161.62a.5.5,0,0,1-.49-.37c-3.26-12.06-10-22-13.27-23.5a1.14,1.14,0,0,0-.85-.14.5.5,0,0,1-.66-.25.5.5,0,0,1,.25-.66,2,2,0,0,1,1.68.15c3.46,1.63,10.3,11.43,13.72,23.77,2.45,0,6.23-.34,7.15-.42,1.14-1.36,9.52-11.84,6.39-23.3a.5.5,0,0,1,.35-.62.5.5,0,0,1,.61.35c3.49,12.77-6.63,24.27-6.74,24.39a.49.49,0,0,1-.32.16C311.7,161.19,306.71,161.62,303.93,161.62Z"/><path class="cls-9" d="M320.49,168.69c-5.45-10.22-7.68-10.94-8.65-14.22a17,17,0,0,1,3.1-5c-.66-.19-2.08-.47-3-.64.1-.45.21-.89.31-1.32a9.54,9.54,0,0,0-3,.14l0-1a12.74,12.74,0,0,0-3.87-.24c.11.46.22,1,.33,1.44-1,.19-2.52.5-3.25.7a14.4,14.4,0,0,1,3.05,5.57c-2.94,5-14.36,37.51,4.22,40S325.94,178.91,320.49,168.69Z"/><path class="cls-20" d="M320.49,168.69c-5.45-10.22-7.68-10.94-8.65-14.22a17,17,0,0,1,3.1-5c-.66-.19-2.08-.47-3-.64.1-.45.21-.89.31-1.32a9.54,9.54,0,0,0-3,.14l0-1a12.74,12.74,0,0,0-3.87-.24c.11.46.22,1,.33,1.44-1,.19-2.52.5-3.25.7a14.4,14.4,0,0,1,3.05,5.57c-2.94,5-14.36,37.51,4.22,40S325.94,178.91,320.49,168.69Z"/><path class="cls-9" d="M304.76,153.16a6.26,6.26,0,0,0-.15,1.56c0,.38,1,.63,2.11.73s5.77.29,5.62-.23.23-1.23.25-1.67-1.85-.45-3.42-.39S305.07,152.6,304.76,153.16Z"/><path class="cls-9" d="M294,190.76h.92c.18,0,.32-.1.31-.21l-.43-4c0-.11-.17-.21-.36-.21h-.92c-.18,0-.32.1-.31.21l.43,4C293.6,190.66,293.76,190.76,294,190.76Z"/></g></svg>